<svg width="20" height="20" viewBox="0 0 20 20" fill="none" xmlns="http://www.w3.org/2000/svg">
<path d="M10.577 3.577C10.8699 3.28411 11.3448 3.28419 11.6377 3.577L16.0377 7.977C16.1839 8.1232 16.2662 8.3208 16.2662 8.527C16.2662 8.7332 16.1839 8.9308 16.0377 9.077L11.6377 13.477C11.3448 13.7699 10.8699 13.77 10.577 13.477C10.2841 13.184 10.2841 12.709 10.577 12.416L13.766 9.227H4.727C4.31279 9.227 3.977 8.89121 3.977 8.477C3.977 8.06279 4.31279 7.727 4.727 7.727H13.766L10.577 4.538C10.2841 4.245 10.2841 3.77 10.577 3.577Z" fill="#050505"/>
</svg>
