<svg preserveAspectRatio="none" width="100%" height="100%" overflow="visible" style="display: block;" viewBox="0 0 40 40" fill="none" xmlns="http://www.w3.org/2000/svg">
<g id="battery icon">
<path id="Vector" d="M31.25 8.75H5C4.00544 8.75 3.05161 9.14509 2.34835 9.84835C1.64509 10.5516 1.25 11.5054 1.25 12.5V27.5C1.25 28.4946 1.64509 29.4484 2.34835 30.1517C3.05161 30.8549 4.00544 31.25 5 31.25H31.25C32.2446 31.25 33.1984 30.8549 33.9017 30.1517C34.6049 29.4484 35 28.4946 35 27.5V12.5C35 11.5054 34.6049 10.5516 33.9017 9.84835C33.1984 9.14509 32.2446 8.75 31.25 8.75ZM32.5 27.5C32.5 27.8315 32.3683 28.1495 32.1339 28.3839C31.8995 28.6183 31.5815 28.75 31.25 28.75H5C4.66848 28.75 4.35054 28.6183 4.11612 28.3839C3.8817 28.1495 3.75 27.8315 3.75 27.5V12.5C3.75 12.1685 3.8817 11.8505 4.11612 11.6161C4.35054 11.3817 4.66848 11.25 5 11.25H31.25C31.5815 11.25 31.8995 11.3817 32.1339 11.6161C32.3683 11.8505 32.5 12.1685 32.5 12.5V27.5ZM30 15V25C30 25.3315 29.8683 25.6495 29.6339 25.8839C29.3995 26.1183 29.0815 26.25 28.75 26.25H7.5C7.16848 26.25 6.85054 26.1183 6.61612 25.8839C6.3817 25.6495 6.25 25.3315 6.25 25V15C6.25 14.6685 6.3817 14.3505 6.61612 14.1161C6.85054 13.8817 7.16848 13.75 7.5 13.75H28.75C29.0815 13.75 29.3995 13.8817 29.6339 14.1161C29.8683 14.3505 30 14.6685 30 15ZM40 15V25C40 25.3315 39.8683 25.6495 39.6339 25.8839C39.3995 26.1183 39.0815 26.25 38.75 26.25C38.4185 26.25 38.1005 26.1183 37.8661 25.8839C37.6317 25.6495 37.5 25.3315 37.5 25V15C37.5 14.6685 37.6317 14.3505 37.8661 14.1161C38.1005 13.8817 38.4185 13.75 38.75 13.75C39.0815 13.75 39.3995 13.8817 39.6339 14.1161C39.8683 14.3505 40 14.6685 40 15Z" fill="var(--fill-0, #FFBC0E)"/>
</g>
</svg>
