<svg preserveAspectRatio="none" width="100%" height="100%" overflow="visible" style="display: block;" viewBox="0 0 40 40" fill="none" xmlns="http://www.w3.org/2000/svg">
<g id="Build icon">
<path id="Vector" d="M32.5 6.25H7.5C6.83696 6.25 6.20107 6.51339 5.73223 6.98223C5.26339 7.45107 5 8.08696 5 8.75V17.5C5 25.7375 8.9875 30.7297 12.3328 33.4672C15.9359 36.4141 19.5203 37.4156 19.6766 37.4563C19.8914 37.5147 20.118 37.5147 20.3328 37.4563C20.4891 37.4156 24.0688 36.4141 27.6766 33.4672C31.0125 30.7297 35 25.7375 35 17.5V8.75C35 8.08696 34.7366 7.45107 34.2678 6.98223C33.7989 6.51339 33.163 6.25 32.5 6.25ZM20 34.9406C17.7894 34.1687 15.7312 33.0153 13.9188 31.5328C10.2859 28.5609 8.18281 24.6875 7.64063 20H20V8.75H32.5V17.5C32.5005 18.3353 32.4535 19.17 32.3594 20H20V34.9406Z" fill="var(--fill-0, #FFBC0E)"/>
</g>
</svg>
