<svg preserveAspectRatio="none" width="100%" height="100%" overflow="visible" style="display: block;" viewBox="0 0 40 40" fill="none" xmlns="http://www.w3.org/2000/svg">
<g id="core icon">
<path id="Vector" d="M16.25 16.25H23.75V23.75H16.25V16.25ZM37.5 23.75C37.5 24.0815 37.3683 24.3995 37.1339 24.6339C36.8995 24.8683 36.5815 25 36.25 25H33.75V31.25C33.75 31.913 33.4866 32.5489 33.0178 33.0178C32.5489 33.4866 31.913 33.75 31.25 33.75H25V36.25C25 36.5815 24.8683 36.8995 24.6339 37.1339C24.3995 37.3683 24.0815 37.5 23.75 37.5C23.4185 37.5 23.1005 37.3683 22.8661 37.1339C22.6317 36.8995 22.5 36.5815 22.5 36.25V33.75H17.5V36.25C17.5 36.5815 17.3683 36.8995 17.1339 37.1339C16.8995 37.3683 16.5815 37.5 16.25 37.5C15.9185 37.5 15.6005 37.3683 15.3661 37.1339C15.1317 36.8995 15 36.5815 15 36.25V33.75H8.75C8.08696 33.75 7.45107 33.4866 6.98223 33.0178C6.51339 32.5489 6.25 31.913 6.25 31.25V25H3.75C3.41848 25 3.10054 24.8683 2.86612 24.6339C2.6317 24.3995 2.5 24.0815 2.5 23.75C2.5 23.4185 2.6317 23.1005 2.86612 22.8661C3.10054 22.6317 3.41848 22.5 3.75 22.5H6.25V17.5H3.75C3.41848 17.5 3.10054 17.3683 2.86612 17.1339C2.6317 16.8995 2.5 16.5815 2.5 16.25C2.5 15.9185 2.6317 15.6005 2.86612 15.3661C3.10054 15.1317 3.41848 15 3.75 15H6.25V8.75C6.25 8.08696 6.51339 7.45107 6.98223 6.98223C7.45107 6.51339 8.08696 6.25 8.75 6.25H15V3.75C15 3.41848 15.1317 3.10054 15.3661 2.86612C15.6005 2.6317 15.9185 2.5 16.25 2.5C16.5815 2.5 16.8995 2.6317 17.1339 2.86612C17.3683 3.10054 17.5 3.41848 17.5 3.75V6.25H22.5V3.75C22.5 3.41848 22.6317 3.10054 22.8661 2.86612C23.1005 2.6317 23.4185 2.5 23.75 2.5C24.0815 2.5 24.3995 2.6317 24.6339 2.86612C24.8683 3.10054 25 3.41848 25 3.75V6.25H31.25C31.913 6.25 32.5489 6.51339 33.0178 6.98223C33.4866 7.45107 33.75 8.08696 33.75 8.75V15H36.25C36.5815 15 36.8995 15.1317 37.1339 15.3661C37.3683 15.6005 37.5 15.9185 37.5 16.25C37.5 16.5815 37.3683 16.8995 37.1339 17.1339C36.8995 17.3683 36.5815 17.5 36.25 17.5H33.75V22.5H36.25C36.5815 22.5 36.8995 22.6317 37.1339 22.8661C37.3683 23.1005 37.5 23.4185 37.5 23.75ZM26.25 15C26.25 14.6685 26.1183 14.3505 25.8839 14.1161C25.6495 13.8817 25.3315 13.75 25 13.75H15C14.6685 13.75 14.3505 13.8817 14.1161 14.1161C13.8817 14.3505 13.75 14.6685 13.75 15V25C13.75 25.3315 13.8817 25.6495 14.1161 25.8839C14.3505 26.1183 14.6685 26.25 15 26.25H25C25.3315 26.25 25.6495 26.1183 25.8839 25.8839C26.1183 25.6495 26.25 25.3315 26.25 25V15Z" fill="var(--fill-0, #FFBC0E)"/>
</g>
</svg>
