<svg preserveAspectRatio="none" width="100%" height="100%" overflow="visible" style="display: block;" viewBox="0 0 20 20" fill="none" xmlns="http://www.w3.org/2000/svg">
<g id="Frame">
<path id="Vector" d="M16.25 3.125H3.75C3.41848 3.125 3.10054 3.2567 2.86612 3.49112C2.6317 3.72554 2.5 4.04348 2.5 4.375V8.75C2.5 12.8688 4.49375 15.3648 6.16641 16.7336C7.96797 18.207 9.76016 18.7078 9.83828 18.7281C9.9457 18.7573 10.059 18.7573 10.1664 18.7281C10.2445 18.7078 12.0344 18.207 13.8383 16.7336C15.5063 15.3648 17.5 12.8688 17.5 8.75V4.375C17.5 4.04348 17.3683 3.72554 17.1339 3.49112C16.8995 3.2567 16.5815 3.125 16.25 3.125ZM10 17.4703C8.89469 17.0843 7.86558 16.5077 6.95938 15.7664C5.14297 14.2805 4.09141 12.3438 3.82031 10H10V4.375H16.25V8.75C16.2502 9.16766 16.2268 9.585 16.1797 10H10V17.4703Z" fill="var(--fill-0, #050505)"/>
</g>
</svg>
