<svg preserveAspectRatio="none" width="100%" height="100%" overflow="visible" style="display: block;" viewBox="0 0 173 40" fill="none" xmlns="http://www.w3.org/2000/svg">
<g id="Logo Container">
<g id="Vector">
<path d="M38.1521 26.5793L52.2646 2.85714H16.1422L28.1889 15.8392L31.7497 9.78916H38.7216L32.1504 20.2001L38.1521 26.5793Z" fill="var(--fill-0, white)"/>
<path d="M19.1421 14.8157L5.54518 37.1234L39.9029 37.1867L28.9938 25.499L25.8196 30.9791H18.8478L24.9381 21.1041L19.1421 14.8157Z" fill="var(--fill-0, white)"/>
</g>
<g id="XForge">
<path d="M57.026 31.6475L63.2975 20.8275L57.0872 10.1915H61.6761L65.9284 17.9463H66.4791L70.7314 10.1915H75.3203L69.11 20.8275L75.3814 31.6475H70.7926L66.4791 23.7087H65.9284L61.6149 31.6475H57.026Z" fill="var(--fill-0, white)"/>
<path d="M79.8955 31.6475V10.1915H93.3561V13.8696H83.9337V19.0497H92.6219V22.7279H83.9337V31.6475H79.8955Z" fill="var(--fill-0, white)"/>
<path d="M105.296 32.0766C103.786 32.0766 102.43 31.7701 101.227 31.157C100.023 30.544 99.0751 29.6551 98.3816 28.4904C97.6882 27.3256 97.3415 25.9259 97.3415 24.2911V23.8007C97.3415 22.166 97.6882 20.7662 98.3816 19.6015C99.0751 18.4367 100.023 17.5478 101.227 16.9348C102.43 16.3218 103.786 16.0152 105.296 16.0152C106.805 16.0152 108.161 16.3218 109.364 16.9348C110.568 17.5478 111.516 18.4367 112.209 19.6015C112.903 20.7662 113.25 22.166 113.25 23.8007V24.2911C113.25 25.9259 112.903 27.3256 112.209 28.4904C111.516 29.6551 110.568 30.544 109.364 31.157C108.161 31.7701 106.805 32.0766 105.296 32.0766ZM105.296 28.6436C106.478 28.6436 107.457 28.2656 108.232 27.5095C109.007 26.733 109.395 25.6296 109.395 24.1992V23.8926C109.395 22.4622 109.007 21.369 108.232 20.6129C107.478 19.8364 106.499 19.4482 105.296 19.4482C104.113 19.4482 103.134 19.8364 102.359 20.6129C101.584 21.369 101.196 22.4622 101.196 23.8926V24.1992C101.196 25.6296 101.584 26.733 102.359 27.5095C103.134 28.2656 104.113 28.6436 105.296 28.6436Z" fill="var(--fill-0, white)"/>
<path d="M118.643 31.6475V16.4444H122.437V18.1608H122.987C123.212 17.5478 123.579 17.0983 124.089 16.8122C124.619 16.5261 125.231 16.3831 125.924 16.3831H127.76V19.816H125.863C124.884 19.816 124.078 20.0817 123.446 20.6129C122.814 21.1238 122.498 21.9207 122.498 23.0038V31.6475H118.643Z" fill="var(--fill-0, white)"/>
<path d="M131.336 24.1072V23.6168C131.336 22.0229 131.652 20.664 132.284 19.5402C132.917 18.3958 133.753 17.5274 134.793 16.9348C135.854 16.3218 137.006 16.0152 138.25 16.0152C139.637 16.0152 140.687 16.2605 141.401 16.7509C142.115 17.2413 142.635 17.7522 142.961 18.2834H143.512V16.4444H147.305V34.3448C147.305 35.3869 146.999 36.2145 146.388 36.8275C145.776 37.461 144.96 37.7777 143.94 37.7777H133.783V34.4061H142.594C143.165 34.4061 143.451 34.0996 143.451 33.4865V29.5325H142.9C142.696 29.8595 142.411 30.1966 142.043 30.544C141.676 30.8709 141.187 31.1468 140.575 31.3716C139.963 31.5964 139.188 31.7088 138.25 31.7088C137.006 31.7088 135.854 31.4125 134.793 30.8199C133.753 30.2068 132.917 29.3384 132.284 28.2145C131.652 27.0702 131.336 25.7011 131.336 24.1072ZM139.351 28.3371C140.534 28.3371 141.523 27.9591 142.319 27.203C143.114 26.4469 143.512 25.3843 143.512 24.0153V23.7087C143.512 22.3192 143.114 21.2566 142.319 20.521C141.544 19.7649 140.555 19.3869 139.351 19.3869C138.168 19.3869 137.179 19.7649 136.384 20.521C135.588 21.2566 135.191 22.3192 135.191 23.7087V24.0153C135.191 25.3843 135.588 26.4469 136.384 27.203C137.179 27.9591 138.168 28.3371 139.351 28.3371Z" fill="var(--fill-0, white)"/>
<path d="M160.328 32.0766C158.819 32.0766 157.483 31.7598 156.321 31.1264C155.179 30.4725 154.281 29.5632 153.629 28.3984C152.996 27.2132 152.68 25.8237 152.68 24.2298V23.862C152.68 22.2681 152.996 20.8888 153.629 19.7241C154.261 18.5389 155.148 17.6295 156.29 16.9961C157.432 16.3422 158.758 16.0152 160.267 16.0152C161.756 16.0152 163.051 16.3524 164.152 17.0267C165.254 17.6806 166.11 18.6002 166.722 19.7854C167.334 20.9501 167.64 22.309 167.64 23.862V25.18H156.596C156.637 26.2222 157.024 27.0702 157.759 27.7241C158.493 28.378 159.39 28.7049 160.451 28.7049C161.532 28.7049 162.327 28.4699 162.837 27.9999C163.347 27.5299 163.734 27.0089 163.999 26.4367L167.15 28.0919C166.865 28.6232 166.447 29.2056 165.896 29.839C165.366 30.452 164.652 30.9833 163.755 31.4329C162.857 31.862 161.715 32.0766 160.328 32.0766ZM156.627 22.2988H163.724C163.643 21.4201 163.286 20.7151 162.653 20.1838C162.041 19.6525 161.236 19.3869 160.237 19.3869C159.196 19.3869 158.37 19.6525 157.759 20.1838C157.147 20.7151 156.769 21.4201 156.627 22.2988Z" fill="var(--fill-0, white)"/>
</g>
</g>
</svg>
