<svg preserveAspectRatio="none" width="100%" height="100%" overflow="visible" style="display: block;" viewBox="0 0 206 43" fill="none" xmlns="http://www.w3.org/2000/svg">
<g id="Group 1000002443">
<path id="Vector" d="M19.9715 1.36088C20.0729 1.36023 20.1742 1.35958 20.2787 1.35891C20.389 1.35878 20.4994 1.35866 20.6131 1.35853C20.73 1.35796 20.8469 1.3574 20.9674 1.35682C21.3544 1.35515 21.7415 1.35438 22.1285 1.35375C22.3978 1.3531 22.6671 1.35244 22.9363 1.35179C23.5013 1.35059 24.0662 1.34993 24.6312 1.34953C25.3537 1.34891 26.0763 1.34618 26.7989 1.34294C27.3553 1.34082 27.9118 1.34023 28.4683 1.34006C28.7346 1.33971 29.0009 1.3388 29.2672 1.33731C29.6406 1.33536 30.0139 1.33558 30.3872 1.33632C30.4964 1.33527 30.6056 1.33423 30.7182 1.33315C31.7876 1.33972 32.6297 1.58421 33.4088 2.33613C34.3163 3.4102 34.8202 4.87644 35.4009 6.14296C35.9726 7.38731 36.5722 8.61734 37.1746 9.84698C37.8718 11.2705 38.5571 12.6972 39.217 14.1384C39.7664 15.3321 40.3436 16.5117 40.9214 17.6918C41.6211 19.1207 42.3092 20.5527 42.9718 21.9993C43.5009 23.1491 44.0554 24.286 44.6114 25.4229C45.2274 26.6822 45.8371 27.9428 46.421 29.2174C47.027 30.5401 47.6618 31.8475 48.3015 33.1541C48.9794 34.5394 49.653 35.9262 50.3026 37.3252C50.3623 37.4533 50.422 37.5814 50.4835 37.7133C50.5377 37.8307 50.5918 37.9481 50.6476 38.0691C50.6938 38.1692 50.74 38.2693 50.7876 38.3725C51.1428 39.2112 51.3196 39.9853 51.0051 40.8639C50.6005 41.4646 50.2571 41.7915 49.5504 41.9653C49.101 41.9991 48.6528 41.9987 48.2023 41.9983C48.067 41.9991 47.9318 41.9998 47.7925 42.0006C47.4227 42.0024 47.053 42.0032 46.6833 42.0033C46.4516 42.0035 46.22 42.004 45.9884 42.0046C45.1785 42.0067 44.3686 42.0076 43.5587 42.0074C42.8068 42.0073 42.055 42.0097 41.3031 42.0133C40.6553 42.0162 40.0075 42.0175 39.3597 42.0173C38.9738 42.0173 38.588 42.0179 38.2021 42.0203C37.7707 42.0225 37.3393 42.0219 36.9078 42.0205C36.7821 42.0218 36.6565 42.0231 36.527 42.0244C34.649 42.0094 33.274 41.1496 31.8383 40.0325C31.6042 39.8525 31.37 39.6724 31.1358 39.4924C31.0123 39.3971 30.8889 39.3018 30.7655 39.2064C30.3104 38.8551 29.8538 38.5059 29.3972 38.1566C28.4648 37.443 27.5346 36.7267 26.6049 36.0097C25.8261 35.4094 25.0459 34.8109 24.265 34.2134C23.78 33.8421 23.2956 33.4702 22.812 33.0972C22.1735 32.605 21.5338 32.1143 20.8934 31.6246C20.4669 31.2984 20.0409 30.9717 19.6156 30.6439C19.5293 30.5776 19.4431 30.5112 19.3542 30.4429C19.1899 30.3165 19.0257 30.1899 18.8617 30.0631C18.7867 30.0055 18.7118 29.9479 18.6345 29.8885C18.5695 29.8384 18.5045 29.7882 18.4375 29.7366C18.1422 29.5205 17.8376 29.3196 17.5324 29.118C16.1176 32.0057 16.1177 32.0057 14.7507 34.9163C14.2013 36.11 13.6414 37.2984 13.0713 38.4823C12.9807 38.6706 12.8905 38.8591 12.8007 39.0478C12.6746 39.3122 12.5473 39.5761 12.4196 39.8397C12.3825 39.9181 12.3454 39.9965 12.3072 40.0773C11.9341 40.8408 11.4797 41.4623 10.7109 41.8579C9.96091 42.1008 9.15065 42.0436 8.37034 42.0368C8.17515 42.0369 7.97996 42.0372 7.78477 42.0376C7.37725 42.0379 6.96981 42.0363 6.56231 42.0331C6.04143 42.0293 5.52067 42.03 4.99979 42.0321C4.5973 42.0333 4.19484 42.0323 3.79235 42.0306C3.60034 42.03 3.40832 42.03 3.21631 42.0307C2.94759 42.0314 2.67906 42.029 2.41037 42.0259C2.29285 42.027 2.29285 42.027 2.17295 42.0282C1.56343 42.0163 1.22233 41.843 0.728631 41.5105C0.163131 40.8983 -0.0161798 40.4131 0.00127224 39.5876C0.0870156 38.9352 0.380463 38.3845 0.671862 37.8013C0.738462 37.6635 0.804835 37.5256 0.870999 37.3876C1.04885 37.0181 1.22956 36.6501 1.41086 36.2823C1.60029 35.8968 1.7871 35.51 1.97401 35.1233C2.20428 34.647 2.4347 34.1709 2.66625 33.6953C3.13641 32.7288 3.59438 31.7577 4.04255 30.7807C4.26031 30.3097 4.47909 29.8392 4.69875 29.369C4.7828 29.1891 4.86674 29.0091 4.95062 28.8291C5.25691 28.1725 5.56625 27.5173 5.87862 26.8635C5.98284 26.6444 6.08624 26.4249 6.18874 26.2049C7.26355 23.9019 7.26355 23.9019 8.2222 23.3196C8.36224 23.232 8.36224 23.232 8.5051 23.1427C9.03906 22.9226 9.50416 22.9282 10.0762 22.929C10.251 22.9273 10.251 22.9273 10.4295 22.9255C10.8142 22.9223 11.1988 22.9216 11.5836 22.9212C11.852 22.9201 12.1204 22.919 12.3888 22.9178C12.9514 22.9158 13.5141 22.9151 14.0767 22.9153C14.7955 22.9154 15.5141 22.9107 16.2329 22.9048C16.7874 22.901 17.3419 22.9003 17.8965 22.9005C18.1613 22.9001 18.4262 22.8986 18.691 22.896C21.324 22.8721 21.324 22.8721 22.301 23.6607C22.385 23.7209 22.469 23.7811 22.5555 23.8431C22.7843 24.0076 23.0038 24.1807 23.2235 24.3571C23.8652 24.8601 24.5135 25.3471 25.1821 25.8138C25.966 26.3618 26.7377 26.9246 27.506 27.4942C28.1145 27.945 28.7261 28.3911 29.3404 28.8337C30.0412 29.339 30.7389 29.8482 31.4338 30.3615C31.5224 30.4269 31.611 30.4924 31.7023 30.5598C32.1684 30.9042 32.6339 31.2493 33.0992 31.5948C33.2424 31.7009 33.2424 31.7009 33.3884 31.8091C33.569 31.9429 33.7494 32.0769 33.9297 32.2112C34.5074 32.6391 35.0973 33.0443 35.6986 33.4383C34.8549 31.5868 33.982 29.7514 33.0872 27.9242C32.3876 26.4953 31.6995 25.0633 31.0369 23.6167C30.5077 22.4669 29.9533 21.33 29.3972 20.193C28.6367 18.6378 27.8933 17.0766 27.1708 15.5032C26.8022 14.7013 26.4214 13.9053 26.0356 13.1116C25.9703 12.976 25.9703 12.976 25.9037 12.8376C25.8655 12.7591 25.8273 12.6805 25.788 12.5995C25.7072 12.4051 25.7072 12.4051 25.7072 12.1777C25.6323 12.1777 25.5573 12.1777 25.4801 12.1777C25.4396 12.3125 25.399 12.4474 25.3573 12.5863C25.1216 13.2923 24.8057 13.9604 24.4846 14.6306C24.3808 14.8483 24.2795 15.0671 24.1782 15.286C23.6659 16.3723 23.1635 17.3616 21.9807 17.7901C21.6032 17.9003 21.2464 17.9084 20.8543 17.9119C20.7303 17.9136 20.7303 17.9136 20.6039 17.9154C20.3335 17.9186 20.0633 17.9193 19.793 17.9196C19.6033 17.9207 19.4135 17.9219 19.2238 17.9231C18.8273 17.9251 18.4308 17.9257 18.0343 17.9255C17.5283 17.9255 17.0224 17.9302 16.5165 17.936C16.125 17.9398 15.7335 17.9405 15.342 17.9403C15.1556 17.9407 14.9691 17.9422 14.7827 17.9449C13.0308 17.9675 13.0308 17.9675 12.2588 17.3558C12.0293 17.1272 11.8741 16.9077 11.7419 16.6117C11.6974 16.5437 11.6529 16.4757 11.6071 16.4056C11.3818 15.7983 11.4854 15.2068 11.7453 14.6308C11.7817 14.5552 11.818 14.4797 11.8555 14.4018C11.8945 14.3172 11.9336 14.2325 11.9738 14.1453C12.121 13.8292 12.2717 13.515 12.4231 13.2009C12.4548 13.1353 12.4864 13.0696 12.519 13.002C12.8564 12.3021 13.1952 11.6028 13.5354 10.9043C14.032 9.88408 14.5175 8.85972 14.992 7.82893C15.1708 7.44231 15.3498 7.05578 15.5289 6.66929C15.6592 6.38774 15.7893 6.10607 15.9191 5.82425C16.0924 5.44839 16.2677 5.07351 16.4442 4.69913C16.5108 4.55719 16.5768 4.41496 16.6421 4.27242C17.1833 3.09216 17.796 2.05088 19.0084 1.49054C19.3361 1.39072 19.6296 1.36219 19.9715 1.36088Z" fill="var(--fill-0, #D7FE51)"/>
<g id="Vector_2">
<path d="M148.55 1.3803C150.573 1.3803 152.596 1.3803 154.681 1.3803C154.718 6.40781 154.756 11.4353 154.794 16.6152C155.019 16.2775 155.244 15.9398 155.475 15.5919C155.795 15.1921 156.142 14.8232 156.497 14.455C156.623 14.3227 156.623 14.3227 156.751 14.1876C158.826 12.1554 161.605 11.9017 164.362 11.92C167.015 11.9521 169.421 12.815 171.385 14.6469C172.927 16.2663 173.738 18.2152 174.209 20.367C174.229 20.4512 174.249 20.5354 174.27 20.6222C174.483 21.6239 174.467 22.6201 174.462 23.6382C174.462 23.8401 174.462 24.0419 174.462 24.2437C174.462 24.7881 174.461 25.3325 174.459 25.8769C174.458 26.4471 174.458 27.0173 174.458 27.5876C174.457 28.6658 174.455 29.7441 174.453 30.8224C174.45 32.0506 174.449 33.2788 174.448 34.507C174.446 37.0322 174.441 39.5573 174.436 42.0824C172.413 42.0824 170.39 42.0824 168.305 42.0824C168.303 41.2452 168.303 41.2452 168.3 40.391C168.295 38.5423 168.287 36.6936 168.279 34.8448C168.274 33.7245 168.269 32.6041 168.266 31.4837C168.263 30.5064 168.26 29.5291 168.254 28.5518C168.252 28.0351 168.25 27.5183 168.249 27.0016C168.248 26.5136 168.246 26.0257 168.242 25.5377C168.241 25.3601 168.241 25.1826 168.241 25.005C168.243 22.8528 168.021 20.5301 166.489 18.889C166.429 18.825 166.37 18.7609 166.309 18.695C165.746 18.1532 165.059 17.8939 164.332 17.6384C164.251 17.6101 164.171 17.5818 164.088 17.5527C162.43 17.0853 160.294 17.3387 158.803 18.1562C158.345 18.4434 157.928 18.7638 157.519 19.1164C157.45 19.1745 157.382 19.2325 157.311 19.2923C156.344 20.1774 155.727 21.3959 155.362 22.6409C155.315 22.7979 155.315 22.7979 155.267 22.958C154.859 24.4544 154.761 25.9791 154.758 27.5233C154.757 27.6837 154.756 27.8442 154.755 28.0046C154.752 28.4336 154.75 28.8627 154.748 29.2917C154.746 29.7425 154.743 30.1933 154.741 30.6442C154.735 31.4949 154.731 32.3456 154.727 33.1964C154.723 34.1662 154.717 35.136 154.712 36.1057C154.7 38.098 154.69 40.0902 154.681 42.0824C152.657 42.0824 150.634 42.0824 148.55 42.0824C148.55 28.6507 148.55 15.219 148.55 1.3803Z" fill="white"/>
<path d="M129.248 3.65326C131.271 3.65326 133.294 3.65326 135.379 3.65326C135.379 6.65476 135.379 9.65626 135.379 12.7487C138.564 12.7487 141.749 12.7487 145.03 12.7487C145.03 14.5121 145.03 16.2755 145.03 18.0923C141.845 18.0923 138.66 18.0923 135.379 18.0923C135.379 24.2454 135.379 30.3984 135.379 36.7379C138.564 36.7379 141.749 36.7379 145.03 36.7379C145.03 38.5013 145.03 40.2647 145.03 42.0815C142.487 42.0952 142.487 42.0952 141.394 42.0982C140.652 42.1002 139.91 42.1026 139.167 42.1073C138.568 42.111 137.969 42.113 137.369 42.1139C137.142 42.1145 136.914 42.1157 136.687 42.1176C134.705 42.1331 132.678 42.0567 131.102 40.6799C129.125 38.5701 129.213 36.1708 129.222 33.4439C129.223 33.0432 129.222 32.6426 129.222 32.2419C129.222 31.5495 129.223 30.857 129.224 30.1646C129.226 29.1635 129.226 28.1623 129.227 27.1612C129.227 25.5365 129.229 23.9119 129.231 22.2872C129.233 20.7099 129.235 19.1327 129.235 17.5554C129.236 17.458 129.236 17.3606 129.236 17.2603C129.236 16.7717 129.236 16.2831 129.237 15.7945C129.239 11.7474 129.243 7.70033 129.248 3.65326Z" fill="white"/>
<path d="M197.895 12.716C198.13 12.7166 198.364 12.7171 198.599 12.7174C199.212 12.7187 199.824 12.7221 200.437 12.7259C201.175 12.73 201.913 12.7315 202.65 12.7335C203.767 12.7368 204.884 12.7434 206 12.7493C206 14.5127 206 16.276 206 18.0929C202.853 18.0929 199.706 18.0929 196.463 18.0929C196.463 26.0093 196.463 33.9258 196.463 42.0821C194.44 42.0821 192.416 42.0821 190.332 42.0821C190.324 38.9502 190.318 35.8182 190.314 32.6863C190.312 31.232 190.31 29.7777 190.306 28.3234C190.303 27.0555 190.3 25.7876 190.3 24.5196C190.299 23.8486 190.298 23.1776 190.296 22.5066C190.293 21.8741 190.293 21.2417 190.293 20.6093C190.293 20.378 190.292 20.1467 190.291 19.9154C190.28 17.8338 190.438 15.9537 191.935 14.3552C193.653 12.7427 195.678 12.6981 197.895 12.716Z" fill="white"/>
<path d="M179.091 12.749C181.152 12.749 183.213 12.749 185.336 12.749C185.336 22.4289 185.336 32.1087 185.336 42.0819C183.275 42.0819 181.214 42.0819 179.091 42.0819C179.091 32.402 179.091 22.7222 179.091 12.749Z" fill="white"/>
<path fill-rule="evenodd" clip-rule="evenodd" d="M82.6968 1.3803H75.3168C74.9979 2.2106 74.6787 3.04159 74.359 3.87159L73.5995 5.84275C72.6097 8.41127 71.6173 10.9788 70.6227 13.5455C70.309 14.3547 69.9955 15.1641 69.6823 15.9736C68.8367 18.1593 67.9907 20.3449 67.1389 22.5283C66.4903 24.1908 65.8435 25.8541 65.1992 27.5184L65.0628 27.8708C64.6961 28.8182 64.3295 29.7656 63.9629 30.7131C63.6871 31.4259 63.4113 32.1387 63.1354 32.8515C62.9997 33.2021 62.864 33.5527 62.7284 33.9034C62.2904 35.0358 61.8518 36.1681 61.4084 37.2985C61.3225 37.5176 61.2366 37.7367 61.1507 37.9559L61.1186 38.0378C60.9685 38.4209 60.8185 38.804 60.6675 39.1867C60.5937 39.3738 60.5201 39.561 60.4466 39.7483L60.3438 40.0106C60.0736 40.6914 59.8508 41.3783 59.6484 42.0824C60.4672 42.0848 61.286 42.0868 62.1048 42.088L62.2051 42.0881C62.5887 42.0886 62.9723 42.0892 63.3559 42.0902C63.7649 42.0915 64.1738 42.0926 64.5828 42.093C64.7379 42.0931 64.893 42.0933 65.0482 42.0935L65.5055 42.0953L65.9256 42.0953C66.1419 42.0958 66.3583 42.0931 66.5743 42.0824C66.603 42.0537 66.6252 42.0315 66.645 42.0073C66.7125 41.925 66.7524 41.8203 66.9284 41.3585L67.0284 41.0929C67.1401 40.7991 67.2516 40.5053 67.3627 40.2113C67.4427 39.9995 67.5228 39.7877 67.603 39.5759C67.771 39.1325 67.939 38.689 68.1067 38.2454C68.3286 37.6581 68.5509 37.071 68.7739 36.4841C68.9514 36.0174 69.1286 35.5506 69.3057 35.0837L69.5618 34.4081C69.6845 34.0855 69.8073 33.7629 69.9294 33.4401L70.043 33.1398C70.1777 32.7868 70.3073 32.4333 70.4346 32.0774L70.7752 30.9405H87.3519C87.3519 31.1336 87.3519 31.2174 87.3683 31.2979C87.3808 31.3596 87.4029 31.4194 87.4419 31.525C87.5172 31.7034 87.5914 31.8823 87.661 32.063L87.9555 32.8449C88.0741 33.1592 88.1926 33.4735 88.3111 33.7879L89.0948 35.8671C89.5005 36.9435 89.9065 38.0197 90.3126 39.0959L91.4393 42.0824H98.4787C98.4787 41.9824 98.4787 41.9264 98.4706 41.8716C98.4601 41.8018 98.4364 41.7339 98.3825 41.5797L98.2446 41.2257C98.1634 41.0167 98.0823 40.8077 98.0006 40.5989C97.9403 40.4446 97.8801 40.2903 97.82 40.1359C97.6558 39.7135 97.4914 39.2912 97.3266 38.8691C97.1519 38.422 96.9775 37.9748 96.8032 37.5275L96.7476 37.3847C96.5464 36.8684 96.3452 36.3522 96.1438 35.836C95.5464 34.3045 94.9516 32.772 94.3585 31.2389C93.6823 29.4912 93.0055 27.7437 92.3248 25.9978L92.2128 25.7106C91.9172 24.9526 91.6215 24.1947 91.3258 23.4368C89.9497 19.9104 88.5806 16.3813 87.2152 12.8508C86.2587 10.3775 85.3019 7.90421 84.339 5.43336L84.0664 4.73425C83.9391 4.40705 83.8118 4.07987 83.6842 3.75282L83.5665 3.45165C83.2946 2.75158 83.0019 2.06768 82.6968 1.3803ZM79.1771 8.88343H78.95C78.9232 8.91033 78.902 8.93152 78.883 8.95443C78.8123 9.03939 78.7703 9.14802 78.5728 9.65954L78.4631 9.94664C78.3421 10.2609 78.2212 10.5751 78.1006 10.8895C78.0136 11.1165 77.9265 11.3435 77.8393 11.5705C77.6595 12.038 77.4798 12.5055 77.3003 12.9732C77.0599 13.5997 76.8193 14.2261 76.578 14.8523C76.1591 15.9391 75.7416 17.0263 75.3255 18.1141L75.2033 18.4337C74.9127 19.193 74.6223 19.9524 74.3328 20.7121L74.0395 21.482C73.8997 21.8476 73.76 22.2131 73.6209 22.5788L73.4913 22.9196L73.37 23.236L73.2557 23.5378C73.2122 23.6518 73.1801 23.7362 73.1495 23.8212C73.0627 24.0627 72.9889 24.309 72.7054 25.2552H85.3082C85.3082 24.8953 85.2189 24.6404 85.0921 24.3071L84.9947 24.0561C84.8862 23.7725 84.7776 23.4889 84.6683 23.2056C84.5881 22.9977 84.5081 22.7897 84.4283 22.5816C84.2564 22.1327 84.0845 21.6839 83.9122 21.2352C83.6256 20.4892 83.3403 19.7428 83.056 18.9959C81.7721 15.6215 80.4804 12.2503 79.1771 8.88343Z" fill="var(--fill-0, white)"/>
<path fill-rule="evenodd" clip-rule="evenodd" d="M121.641 15.2503C121.406 15.0324 121.171 14.8154 120.931 14.6037C116.067 10.4972 106.616 10.8561 102.246 15.5452L101.999 15.8188C101.311 16.5328 100.656 17.2348 100.145 18.0917L99.9549 18.4337C99.0601 20.028 98.3474 21.758 98.0957 23.5783C98.0737 23.7964 98.0507 24.0144 98.0247 24.2321L97.9112 24.3457C97.6693 26.119 97.6978 28.0462 97.8739 29.8234L97.9112 30.1441C98.2256 33.4867 99.6847 37.0082 102.158 39.3244L102.453 39.5806C105.414 42.1586 109.149 43.0676 112.997 42.9961L113.239 42.9914C114.804 42.9712 116.289 42.6972 117.76 42.156C120.886 40.876 123.256 38.8025 124.632 35.6823L124.756 35.3953L124.874 35.1236L124.983 34.8601C125.031 34.744 125.065 34.6621 125.092 34.578C125.157 34.3772 125.184 34.164 125.274 33.4412H119.257L118.462 34.9192L118.235 35.374H118.008C117.896 35.5598 117.845 35.6434 117.781 35.7147C117.728 35.773 117.666 35.823 117.553 35.914L117.213 36.1698C116.025 37.1321 114.725 37.583 113.202 37.6416L112.785 37.6478C110.813 37.7027 109.064 37.5881 107.441 36.3119C107.21 36.1148 107.007 35.9493 106.739 35.8057L106.54 35.7151C106.54 35.5985 106.54 35.5417 106.52 35.4929C106.501 35.4465 106.464 35.4073 106.392 35.3309C105.17 34.1627 104.569 32.3249 104.297 30.6982L104.242 30.3515C104.174 29.9415 104.107 29.5314 104.042 29.1209C106.71 29.1234 109.378 29.1254 112.046 29.1266C113.342 29.1271 114.639 29.1278 115.936 29.129C117.075 29.1302 118.214 29.1311 119.353 29.1315L119.52 29.1315C120.066 29.1316 120.611 29.1317 121.156 29.1324C121.732 29.1332 122.308 29.1338 122.884 29.1338C123.096 29.1337 123.307 29.1337 123.518 29.1338L123.527 29.1338C123.82 29.1344 124.114 29.135 124.407 29.1348L124.673 29.1345C124.95 29.1356 125.224 29.132 125.501 29.1209C125.553 29.0691 125.593 29.0288 125.624 28.9827C125.735 28.8204 125.737 28.5852 125.747 27.5235L125.747 27.2733C125.748 27.092 125.749 26.9107 125.749 26.7293C125.749 26.4485 125.749 26.1677 125.752 25.8869C125.763 24.4086 125.703 22.9595 125.326 21.52L125.26 21.2902C124.661 19.1841 123.58 17.0499 121.97 15.5443L121.641 15.2503ZM119.597 23.322C119.276 21.1756 118.257 19.4002 116.532 18.0921C113.346 16.0134 109.163 16.6181 106.494 19.1464C105.098 20.5851 104.269 22.5805 104.269 24.5726H119.597V23.322Z" fill="var(--fill-0, white)"/>
<path d="M184.463 0.697064C185.311 1.34392 185.867 2.25732 186.017 3.31201C186.107 4.55564 185.85 5.48436 185.109 6.49541C184.424 7.26749 183.646 7.69538 182.617 7.78512C181.363 7.8258 180.4 7.53463 179.432 6.7228C178.69 5.90503 178.37 5.02428 178.254 3.93732C178.384 2.7222 178.79 1.72227 179.702 0.888921C181.119 -0.244144 182.926 -0.278431 184.463 0.697064Z" fill="var(--fill-0, white)"/>
</g>
</g>
</svg>
