<svg preserveAspectRatio="none" width="100%" height="100%" overflow="visible" style="display: block;" viewBox="0 0 223 39" fill="none" xmlns="http://www.w3.org/2000/svg">
<g id="coinfund" clip-path="url(#clip0_9804_33709)">
<path id="Vector" d="M28.1275 11.1267C27.0808 9.81536 25.752 8.80866 24.1475 8.10331C22.5399 7.39795 20.8804 7.04361 19.1728 7.04361C17.0761 7.04361 15.1826 7.42113 13.4888 8.17617C11.7949 8.93119 10.3455 9.96439 9.14054 11.2758C7.93558 12.5871 7.00258 14.1237 6.33813 15.8854C5.67368 17.6505 5.34317 19.5381 5.34317 21.5548C5.34317 23.4357 5.65647 25.2173 6.28648 26.8963C6.91651 28.5752 7.82196 30.0555 9.00972 31.3303C10.1975 32.6087 11.6469 33.6153 13.3579 34.3539C15.069 35.0923 17.0073 35.4633 19.1728 35.4633C21.3383 35.4633 23.1699 35.0427 24.7776 34.2049C26.382 33.367 27.7453 32.1881 28.8641 30.6782L33.1056 33.7512C32.8267 34.1221 32.3379 34.6486 31.639 35.3374C30.9402 36.0262 30.014 36.7149 28.8641 37.4037C27.7108 38.0925 26.3235 38.6985 24.6985 39.2185C23.0735 39.7385 21.1971 40 19.066 40C16.1328 40 13.4888 39.4636 11.1305 38.3874C8.77217 37.311 6.76503 35.9003 5.10562 34.1552C3.44621 32.41 2.17927 30.4364 1.30825 28.2342C0.433789 26.0352 0 23.8098 0 21.5581C0 18.8029 0.471658 16.2596 1.41498 13.925C2.3583 11.5904 3.67686 9.57694 5.37072 7.87812C7.06455 6.18262 9.09923 4.86462 11.4747 3.92415C13.8503 2.98367 16.4667 2.51343 19.3311 2.51343C21.7755 2.51343 24.175 2.96711 26.5334 3.87447C28.8918 4.78183 30.8197 6.17599 32.3206 8.05694L28.1309 11.1301L28.1275 11.1267Z" fill="var(--fill-0, white)"/>
<path id="Vector_2" d="M35.5801 27.1518C35.5801 25.4065 35.9209 23.7772 36.6025 22.2639C37.2843 20.7505 38.2173 19.4259 39.4051 18.2834C40.5929 17.141 41.9905 16.2435 43.5948 15.5878C45.1993 14.9322 46.9274 14.6043 48.7797 14.6043C50.6319 14.6043 52.36 14.9322 53.9645 15.5878C55.5688 16.2435 56.9665 17.141 58.1542 18.2834C59.342 19.4259 60.275 20.7539 60.9568 22.2639C61.6384 23.7739 61.9792 25.4065 61.9792 27.1518C61.9792 28.897 61.6384 30.5361 60.9568 32.0627C60.275 33.5926 59.342 34.9173 58.1542 36.0431C56.9665 37.1691 55.5688 38.0599 53.9645 38.7122C52.3567 39.3681 50.6285 39.6959 48.7797 39.6959C46.931 39.6959 45.1993 39.3681 43.5948 38.7122C41.9872 38.0566 40.5892 37.1691 39.4051 36.0431C38.2173 34.9173 37.2843 33.5926 36.6025 32.0627C35.9209 30.5361 35.5801 28.897 35.5801 27.1518ZM40.61 27.1518C40.61 28.3603 40.8028 29.4764 41.1848 30.503C41.5671 31.5295 42.111 32.4005 42.81 33.1225C43.5087 33.8444 44.3627 34.4173 45.3781 34.8346C46.3904 35.2551 47.5266 35.4638 48.783 35.4638C50.0397 35.4638 51.1759 35.2551 52.1879 34.8346C53.2002 34.414 54.0573 33.8444 54.7563 33.1225C55.4552 32.4005 55.9956 31.5263 56.3812 30.503C56.7669 29.4796 56.9563 28.3603 56.9563 27.1518C56.9563 25.943 56.7635 24.8269 56.3812 23.8004C55.9956 22.7773 55.4552 21.9029 54.7563 21.181C54.0573 20.4591 53.2036 19.8895 52.1879 19.469C51.1759 19.0484 50.0397 18.8398 48.783 18.8398C47.5266 18.8398 46.3904 19.0484 45.3781 19.469C44.3661 19.8895 43.5087 20.4591 42.81 21.181C42.111 21.9029 41.5704 22.7773 41.1848 23.8004C40.7994 24.8237 40.61 25.943 40.61 27.1518Z" fill="var(--fill-0, white)"/>
<path id="Vector_3" d="M65.9121 6.64041C65.9121 5.73305 66.2529 4.95153 66.9345 4.29915C67.6164 3.64347 68.4289 3.31561 69.372 3.31561C70.3153 3.31561 71.1278 3.64347 71.8061 4.29915C72.4877 4.95483 72.8287 5.73636 72.8287 6.64041C72.8287 7.54445 72.4877 8.3293 71.8061 8.98498C71.1245 9.64065 70.312 9.96851 69.372 9.96851C68.4322 9.96851 67.6164 9.64065 66.9345 8.98498C66.2529 8.3293 65.9121 7.54776 65.9121 6.64041ZM67.0104 15.2074H71.7234V39.0903H67.0104V15.2074Z" fill="var(--fill-0, white)"/>
<path id="Vector_4" d="M78.2539 15.2103H82.9671V18.8895H83.0705C83.6624 17.6145 84.6955 16.5813 86.1621 15.7898C87.6287 15.0017 89.3224 14.6043 91.2435 14.6043C92.4313 14.6043 93.5742 14.7798 94.6759 15.1342C95.7777 15.4852 96.7348 16.0316 97.5576 16.7701C98.3768 17.5085 99.031 18.459 99.5234 19.618C100.012 20.777 100.257 22.1447 100.257 23.7243V39.0931H95.5436V24.986C95.5436 23.8766 95.3853 22.9296 95.0719 22.1381C94.7586 21.3499 94.3385 20.7108 93.8153 20.224C93.292 19.7372 92.6894 19.3862 92.0078 19.1643C91.3262 18.9457 90.6203 18.8365 89.8871 18.8365C88.9093 18.8365 88.0004 18.9888 87.1638 19.2901C86.3272 19.5915 85.594 20.0717 84.964 20.7274C84.3339 21.383 83.8449 22.2142 83.4973 23.221C83.1462 24.2276 82.9741 25.4197 82.9741 26.7973V39.0899H78.2609V15.2103H78.2539Z" fill="var(--fill-0, white)"/>
<path id="Vector_5" d="M107.252 3.41718H132.132V10.6728H115.421V17.9283H130.872V25.1839H115.421V39.0891H107.248V3.41718H107.252Z" fill="var(--fill-0, white)"/>
<path id="Vector_6" d="M160.52 39.0931H152.977V35.7684H152.874C152.595 36.2386 152.237 36.7089 151.799 37.1791C151.362 37.6493 150.832 38.0698 150.202 38.4375C149.572 38.8084 148.856 39.1096 148.054 39.3449C147.251 39.58 146.377 39.6992 145.434 39.6992C143.444 39.6992 141.829 39.4045 140.59 38.8182C139.35 38.2321 138.39 37.4174 137.708 36.3744C137.027 35.3346 136.572 34.1059 136.345 32.6952C136.118 31.2845 136.004 29.7546 136.004 28.1088V14.6043H143.86V26.5954C143.86 27.3008 143.888 28.0325 143.94 28.7876C143.991 29.5427 144.149 30.2414 144.411 30.8771C144.673 31.5163 145.076 32.0363 145.616 32.4402C146.157 32.8443 146.935 33.0462 147.947 33.0462C148.959 33.0462 149.782 32.8707 150.409 32.5164C151.039 32.1622 151.517 31.6953 151.847 31.1057C152.178 30.5196 152.398 29.854 152.502 29.1154C152.605 28.377 152.66 27.6055 152.66 26.7973V14.6043H160.517V39.0931H160.52Z" fill="var(--fill-0, white)"/>
<path id="Vector_7" d="M165.768 14.606H173.311V17.9308H173.414C173.658 17.4606 174.006 16.9903 174.461 16.5201C174.915 16.0498 175.456 15.6293 176.086 15.2617C176.716 14.8908 177.428 14.5895 178.234 14.3543C179.036 14.1192 179.911 14 180.854 14C182.844 14 184.452 14.2947 185.674 14.8809C186.896 15.4703 187.846 16.285 188.528 17.3248C189.209 18.3679 189.671 19.5932 189.915 21.0039C190.16 22.4146 190.284 23.9445 190.284 25.5903V39.0949H182.427V27.1037C182.427 26.3985 182.4 25.6666 182.348 24.9115C182.296 24.1564 182.138 23.4577 181.876 22.822C181.615 22.1828 181.212 21.6629 180.671 21.2589C180.131 20.8549 179.353 20.6529 178.341 20.6529C177.328 20.6529 176.506 20.8284 175.879 21.1827C175.249 21.5371 174.77 22.0073 174.44 22.5935C174.106 23.1829 173.889 23.8453 173.786 24.5837C173.683 25.3221 173.628 26.0939 173.628 26.9018V39.0949H165.771V14.606H165.768Z" fill="var(--fill-0, white)"/>
<path id="Vector_8" d="M221.935 39.0926H214.705V35.8673H214.601C214.288 36.3043 213.875 36.7481 213.369 37.2018C212.863 37.6555 212.267 38.066 211.589 38.437C210.908 38.8079 210.157 39.1093 209.338 39.3444C208.518 39.5794 207.671 39.6986 206.797 39.6986C204.91 39.6986 203.199 39.3873 201.664 38.7648C200.128 38.1423 198.81 37.2713 197.708 36.1453C196.606 35.0195 195.759 33.6848 195.167 32.1385C194.572 30.5952 194.275 28.8965 194.275 27.0485C194.275 25.3364 194.544 23.6974 195.088 22.1376C195.628 20.5745 196.396 19.1903 197.391 17.9816C198.386 16.7729 199.598 15.8059 201.034 15.084C202.466 14.3621 204.087 14.0011 205.905 14.0011C207.547 14.0011 209.076 14.2462 210.487 14.733C211.903 15.2197 213.063 16.0509 213.971 17.2265H214.075V1H221.931V39.0926H221.935ZM214.705 26.8499C214.705 25.0021 214.154 23.5086 213.056 22.366C211.954 21.2236 210.412 20.654 208.422 20.654C206.432 20.654 204.886 21.2269 203.784 22.366C202.683 23.5086 202.135 25.0021 202.135 26.8499C202.135 28.6978 202.686 30.1913 203.784 31.3338C204.886 32.4763 206.428 33.0459 208.422 33.0459C210.415 33.0459 211.957 32.4763 213.056 31.3338C214.158 30.1913 214.705 28.6978 214.705 26.8499Z" fill="var(--fill-0, white)"/>
</g>
<defs>
<clipPath id="clip0_9804_33709">
<rect width="223" height="39" fill="white"/>
</clipPath>
</defs>
</svg>
