<svg preserveAspectRatio="none" width="100%" height="100%" overflow="visible" style="display: block;" viewBox="0 0 196 43" fill="none" xmlns="http://www.w3.org/2000/svg">
<g id="depin hub" clip-path="url(#clip0_9804_33664)">
<path id="Path 0" fill-rule="evenodd" clip-rule="evenodd" d="M20.8872 1.0013C30.357 0.996392 30.7686 1.0013 31.3906 1.08966C31.7447 1.14365 32.1993 1.22219 32.3955 1.26637C32.5917 1.31055 32.9458 1.40381 33.1851 1.47253C33.4243 1.54126 33.855 1.69342 34.1421 1.80632C34.4292 1.91922 34.9173 2.14011 35.2187 2.29719C35.5202 2.45427 35.9939 2.72425 36.2715 2.90096C36.549 3.07767 36.9366 3.34765 37.1328 3.50473C37.329 3.65689 37.6927 3.96614 37.9415 4.19194C38.1903 4.41774 38.5636 4.80062 38.7741 5.04605C38.9847 5.29148 39.2478 5.61055 39.3579 5.75781C39.468 5.90507 39.7168 6.2634 39.9034 6.55792C40.09 6.84753 40.425 7.46603 40.6499 7.92744C40.87 8.39377 41.1476 9.07607 41.2672 9.43931C41.382 9.80256 41.5352 10.3769 41.6069 10.7156C41.6739 11.0543 41.7648 11.5942 41.8079 11.9182C41.8797 12.4434 41.8893 13.543 41.9084 21.9073C41.918 28.3034 41.9084 31.5725 41.8749 32.1419C41.8462 32.6034 41.7792 33.2513 41.7218 33.59C41.6691 33.9287 41.5734 34.4147 41.5112 34.6699C41.449 34.9252 41.3198 35.3669 41.2193 35.6516C41.1236 35.9363 40.9514 36.3879 40.8365 36.6579C40.7217 36.9279 40.4968 37.3795 40.3436 37.6642C40.1905 37.9489 39.9082 38.4103 39.7168 38.695C39.5254 38.9797 39.2239 39.3871 39.0469 39.6031C38.8698 39.8191 38.487 40.2265 38.2047 40.5112C37.9176 40.7959 37.5013 41.1739 37.2764 41.3506C37.0515 41.5322 36.6447 41.8268 36.3672 42.0035C36.0896 42.1851 35.6159 42.46 35.3145 42.622C35.013 42.779 34.5393 42.9999 34.2617 43.1128C33.9842 43.2257 33.5104 43.3926 33.209 43.481C32.9075 43.5693 32.4194 43.692 32.1323 43.746C31.8452 43.8049 31.3141 43.8835 30.96 43.9228C30.4001 43.9866 28.242 43.9964 0 43.9964L0.0239258 12.0164L0.133984 11.4028C0.196191 11.0641 0.29668 10.5781 0.358887 10.3229C0.421094 10.0676 0.545508 9.63566 0.636426 9.36568C0.727344 9.09571 0.861328 8.73246 0.933105 8.55575C1.00488 8.37904 1.16279 8.03543 1.27764 7.79491C1.39727 7.55438 1.63174 7.12242 1.79922 6.83772C1.9667 6.55301 2.2251 6.15541 2.37822 5.94925C2.53135 5.73817 2.82803 5.37002 3.03857 5.11968C3.24912 4.86934 3.63672 4.46683 3.8999 4.2263C4.16309 3.98578 4.57461 3.63726 4.80908 3.45564C5.04834 3.27402 5.43594 3.00404 5.67041 2.85187C5.90967 2.70461 6.32119 2.469 6.59394 2.32664C6.86191 2.1892 7.25908 2.00267 7.4792 1.90941C7.69453 1.81614 8.07734 1.67379 8.32617 1.59034C8.575 1.50689 9.00566 1.38418 9.2832 1.31546C9.56074 1.24673 10.0632 1.14856 10.4077 1.09947C11.0011 1.01112 11.4652 1.00621 20.8872 1.0013ZM11.3887 7.40221C11.1111 7.47093 10.69 7.60838 10.4556 7.70655C10.2211 7.79982 9.88613 7.95689 9.71387 8.05507C9.5416 8.14833 9.24971 8.33486 9.06787 8.46249C8.88603 8.59011 8.57021 8.83555 8.37402 9.00735C8.17783 9.18406 7.86201 9.51294 7.67539 9.73874C7.48877 9.96454 7.24951 10.2836 7.14424 10.4456C7.03896 10.6076 6.84277 10.961 6.71357 11.231C6.57959 11.501 6.41211 11.8986 6.34033 12.1145C6.26855 12.3305 6.16807 12.6938 6.12021 12.9245C6.07236 13.1552 6.00537 13.651 5.98144 14.0289C5.94316 14.4952 5.93359 17.3914 5.94316 23.0609C5.95752 30.6104 5.96709 31.4498 6.03887 31.8474C6.08672 32.0929 6.17285 32.4757 6.23984 32.7064C6.30205 32.9371 6.4456 33.3347 6.55566 33.59C6.66094 33.8452 6.85234 34.2232 6.97197 34.4245C7.0916 34.6257 7.28779 34.9252 7.41221 35.0871C7.53184 35.2491 7.76152 35.524 7.91943 35.6958C8.07734 35.8676 8.35967 36.1376 8.5415 36.2898C8.72334 36.4419 9.03916 36.6775 9.23535 36.8101C9.43154 36.9377 9.79043 37.139 10.0249 37.2519C10.2594 37.3648 10.6278 37.5169 10.8384 37.5857C11.0489 37.6593 11.4365 37.7673 11.6997 37.8262L12.1782 37.9342H29.6919C30.4719 37.7575 30.8595 37.6495 31.0557 37.5857C31.2519 37.5169 31.6203 37.3599 31.8691 37.242C32.118 37.1193 32.5391 36.8739 32.8022 36.6923C33.1133 36.4812 33.4722 36.172 33.8358 35.8038C34.1947 35.4307 34.4962 35.0626 34.7019 34.7435C34.879 34.4736 35.1183 34.0416 35.2331 33.7863C35.3527 33.5311 35.5154 33.0991 35.5968 32.8292C35.6781 32.5592 35.7786 32.1518 35.8265 31.921C35.8982 31.5382 35.9078 30.7871 35.9222 23.0118C35.9365 17.249 35.9269 14.3234 35.8935 13.9062C35.8647 13.5675 35.7834 13.0619 35.7164 12.7772C35.6494 12.4925 35.5202 12.0605 35.4245 11.82C35.3336 11.5746 35.1805 11.2359 35.0848 11.0592C34.9938 10.8825 34.7833 10.5438 34.6254 10.2983C34.4627 10.0578 34.1086 9.62584 33.831 9.34114C33.5535 9.05644 33.1372 8.69319 32.8979 8.5263C32.6587 8.3594 32.3285 8.14833 32.1562 8.05507C31.984 7.95689 31.6538 7.79982 31.4145 7.70655C31.1753 7.60838 30.759 7.47584 30.4814 7.40712C30.2039 7.3384 29.7397 7.25986 29.4526 7.23041C29.1129 7.20096 26.0504 7.18132 20.8394 7.18623C16.3939 7.19114 12.5562 7.21568 12.3218 7.23532C12.0873 7.25986 11.6662 7.3384 11.3887 7.40221ZM2.07197 33.8452C2.0002 33.8845 1.85664 34.0171 1.75615 34.1349C1.65566 34.2527 1.55039 34.4392 1.52168 34.5472C1.49775 34.6552 1.4834 34.8663 1.49775 35.0135C1.50732 35.1608 1.55039 35.3473 1.58867 35.4307C1.63174 35.5093 1.73701 35.6516 1.82314 35.7449C1.91406 35.8382 2.07197 35.9511 2.17725 36.0002C2.2873 36.0542 2.4835 36.0934 2.63184 36.0934C2.80729 36.0934 2.97477 36.0558 3.13428 35.9805C3.26348 35.9167 3.44531 35.7793 3.53145 35.6713C3.61758 35.5682 3.72285 35.3571 3.76113 35.2099C3.80898 35.0479 3.82812 34.8663 3.80898 34.7534C3.79463 34.6552 3.74678 34.4981 3.70371 34.4097C3.66064 34.3263 3.56016 34.179 3.47402 34.0907C3.39268 33.9974 3.23955 33.8796 3.13428 33.8256C3.029 33.7716 2.83281 33.7176 2.70361 33.7078C2.56963 33.698 2.40693 33.7078 2.33516 33.7323C2.26338 33.752 2.14375 33.806 2.07197 33.8452ZM5.12012 37.1291C5.0292 37.1979 4.90478 37.3304 4.84736 37.4237C4.78994 37.5169 4.71338 37.7133 4.68467 37.8605C4.63682 38.0863 4.6416 38.1747 4.70381 38.4005C4.75645 38.587 4.84258 38.7392 4.98613 38.8963C5.12969 39.0533 5.26846 39.1466 5.45508 39.2104C5.62734 39.2644 5.79482 39.289 5.93359 39.2693C6.05322 39.2595 6.23506 39.2006 6.34033 39.1466C6.4456 39.0926 6.58916 38.9846 6.66094 38.9061C6.73271 38.8325 6.8332 38.6705 6.88584 38.5478C6.93848 38.425 6.98633 38.2287 6.98633 38.106C6.98633 37.9833 6.95762 37.7967 6.92412 37.6936C6.89541 37.5906 6.79014 37.4139 6.69922 37.3059C6.6083 37.1979 6.42168 37.0555 6.29248 36.9917C6.14893 36.9279 5.96709 36.8788 5.83789 36.8837C5.71826 36.8837 5.546 36.9083 5.45508 36.9426C5.35937 36.977 5.21103 37.0604 5.12012 37.1291ZM1.87578 37.2028C1.79443 37.2666 1.66523 37.4384 1.59824 37.5758C1.49775 37.7918 1.47861 37.89 1.49297 38.16C1.50254 38.4152 1.53603 38.5281 1.65566 38.7245C1.74658 38.8717 1.88535 39.019 2.03369 39.1123C2.21553 39.2252 2.33516 39.2644 2.5792 39.2791C2.84238 39.2939 2.93809 39.2792 3.12949 39.181C3.25869 39.1172 3.44053 38.9748 3.52666 38.8668C3.61758 38.7588 3.72285 38.5527 3.76113 38.4005C3.80898 38.2238 3.82334 38.0618 3.8042 37.9342C3.78506 37.8262 3.73242 37.6593 3.68457 37.566C3.63672 37.4728 3.52666 37.3255 3.43574 37.2371C3.34961 37.1488 3.19648 37.0457 3.096 37.0064C3.00029 36.9623 2.78496 36.9279 2.61748 36.9279C2.44043 36.9279 2.26338 36.9573 2.17725 37.0064C2.0959 37.0457 1.96191 37.1341 1.87578 37.2028ZM1.80879 40.5407C1.71309 40.6487 1.59824 40.8156 1.55518 40.9137C1.51689 41.0168 1.4834 41.2034 1.4834 41.331C1.4834 41.4635 1.51211 41.6549 1.54561 41.758C1.57432 41.8611 1.67959 42.0378 1.77051 42.1458C1.86143 42.2538 2.02412 42.3863 2.12939 42.4403C2.26338 42.5091 2.4165 42.5434 2.63184 42.5434C2.83281 42.5434 3.00508 42.514 3.11035 42.4649C3.20127 42.4158 3.34961 42.3078 3.44053 42.2194C3.52666 42.1311 3.6415 41.974 3.68936 41.8709C3.74199 41.7728 3.79463 41.6059 3.80898 41.5028C3.82812 41.3948 3.80898 41.2132 3.76113 41.0512C3.72285 40.9039 3.62715 40.7027 3.55059 40.6094C3.47402 40.5161 3.29697 40.3787 3.15342 40.3002C2.96201 40.202 2.82803 40.1676 2.63184 40.1676C2.47871 40.1676 2.2873 40.2069 2.17725 40.2609C2.07197 40.31 1.90449 40.4376 1.80879 40.5407ZM5.04355 40.5358C4.88564 40.6928 4.78037 40.8499 4.74209 40.9776C4.71338 41.0855 4.68945 41.2721 4.68945 41.3948C4.68945 41.542 4.73252 41.7089 4.81865 41.8807C4.89521 42.028 5.0292 42.2096 5.12012 42.2882C5.21103 42.3667 5.40723 42.4649 5.55078 42.5091C5.7709 42.5729 5.85703 42.5778 6.07715 42.5287C6.2207 42.4992 6.41211 42.4256 6.49346 42.3618C6.57959 42.3029 6.71357 42.1605 6.79492 42.0427C6.87148 41.9298 6.96719 41.7188 6.9959 41.5715C7.04853 41.3408 7.04853 41.2672 6.97676 41.0414C6.92891 40.899 6.82363 40.6928 6.7375 40.5898C6.65137 40.4818 6.46953 40.3443 6.34033 40.2805C6.18242 40.2069 6.01973 40.1725 5.86182 40.1725C5.72783 40.1774 5.546 40.202 5.45508 40.2314C5.36416 40.2609 5.17754 40.3983 5.04355 40.5358ZM8.15391 40.5849C8.09648 40.6634 8.01514 40.8107 7.96728 40.9039C7.91943 41.0021 7.88115 41.1886 7.88115 41.3457C7.88115 41.493 7.91943 41.704 7.9625 41.812C8.00557 41.92 8.11084 42.082 8.19697 42.1704C8.2831 42.2636 8.43623 42.3814 8.5415 42.4403C8.68027 42.514 8.81904 42.5434 9.04394 42.5434C9.26885 42.5434 9.40762 42.514 9.54639 42.4403C9.65166 42.3814 9.80478 42.2636 9.89092 42.1704C9.97705 42.082 10.0775 41.92 10.1206 41.812C10.1685 41.704 10.202 41.5028 10.202 41.3702C10.2067 41.2279 10.1637 41.0315 10.111 40.9039C10.0584 40.7812 9.94355 40.6094 9.85264 40.5161C9.76172 40.4229 9.60381 40.31 9.49853 40.2609C9.38848 40.2069 9.19228 40.1676 9.04394 40.1676C8.84775 40.1676 8.71377 40.202 8.52236 40.3002C8.37881 40.3787 8.21133 40.5014 8.15391 40.5849ZM181.19 12.0655L181.238 19.3647L181.429 19.08C181.534 18.9229 181.783 18.6284 181.979 18.4222C182.18 18.2209 182.511 17.9313 182.721 17.7841C182.932 17.6368 183.286 17.4306 183.511 17.3276C183.736 17.2196 184.123 17.0772 184.372 17.0134C184.721 16.9152 184.994 16.8858 185.568 16.8661C186.114 16.8465 186.434 16.8612 186.789 16.9152C187.052 16.9594 187.449 17.0527 187.674 17.1263C187.899 17.195 188.277 17.3521 188.511 17.4748C188.75 17.5975 189.081 17.7988 189.253 17.9215C189.425 18.0491 189.722 18.3044 189.918 18.4958C190.109 18.6823 190.382 18.9916 190.521 19.183C190.665 19.3696 190.889 19.7132 191.019 19.9439C191.153 20.1746 191.368 20.6262 191.497 20.9502C191.631 21.2741 191.799 21.7944 191.875 22.1037C191.957 22.4129 192.052 22.8793 192.095 23.1345C192.138 23.3898 192.196 23.9199 192.225 24.3126C192.258 24.72 192.268 25.3385 192.248 25.7607C192.234 26.1632 192.177 26.7817 192.129 27.1351C192.076 27.4836 191.98 28.0039 191.909 28.2886C191.837 28.5733 191.708 29.0151 191.612 29.2704C191.521 29.5256 191.325 29.9674 191.181 30.2521C191.038 30.5368 190.799 30.9442 190.65 31.1553C190.502 31.3713 190.215 31.71 190.019 31.9161C189.822 32.1223 189.521 32.3923 189.349 32.5199C189.176 32.6426 188.918 32.8144 188.774 32.9028C188.631 32.9911 188.363 33.1237 188.176 33.2071C187.994 33.2857 187.65 33.4035 187.411 33.4673C187.176 33.5311 186.702 33.6096 186.358 33.6391C185.889 33.6882 185.602 33.6882 185.186 33.6489C184.884 33.6145 184.42 33.536 184.157 33.4673C183.879 33.3986 183.477 33.2415 183.2 33.0991C182.937 32.9666 182.549 32.7163 182.338 32.5444C182.128 32.3726 181.855 32.1125 181.735 31.9652C181.616 31.818 181.429 31.5676 181.137 31.1111L181.104 31.4302C181.085 31.6069 181.07 31.926 181.07 32.1419C181.07 32.3579 181.056 32.7064 180.999 33.2955H176.142L176.132 22.7026C176.127 16.876 176.142 12.09 176.166 12.0753C176.189 12.0556 177.328 12.0458 181.19 12.0655ZM183.176 20.8716C183.032 20.9305 182.779 21.0778 182.616 21.2054C182.448 21.3379 182.219 21.5736 182.094 21.7355C181.975 21.8975 181.817 22.1626 181.74 22.3246C181.664 22.4866 181.558 22.7615 181.506 22.9382C181.448 23.1149 181.372 23.4241 181.333 23.6254C181.29 23.8266 181.243 24.401 181.228 24.9016C181.209 25.471 181.223 25.9963 181.257 26.3006C181.286 26.5706 181.357 26.978 181.415 27.2087C181.467 27.4394 181.573 27.7683 181.645 27.945C181.712 28.1217 181.855 28.3966 181.956 28.5586C182.056 28.7206 182.262 28.9758 182.41 29.1231C182.558 29.2704 182.798 29.452 182.941 29.5305C183.085 29.6042 183.319 29.6974 183.463 29.7367C183.611 29.776 183.932 29.8103 184.195 29.8103C184.54 29.8103 184.736 29.7858 184.961 29.7072C185.123 29.6483 185.372 29.5256 185.516 29.4225C185.659 29.3244 185.87 29.1329 185.989 29.0004C186.104 28.8629 186.272 28.6322 186.353 28.485C186.439 28.3377 186.564 28.0726 186.635 27.8959C186.702 27.7192 186.803 27.3903 186.856 27.1596C186.913 26.9289 186.98 26.5117 187.009 26.227C187.042 25.9128 187.052 25.3876 187.033 24.8771C187.018 24.3715 186.97 23.861 186.913 23.5763C186.865 23.321 186.769 22.9529 186.707 22.7664C186.645 22.5749 186.506 22.2657 186.406 22.0792C186.3 21.8877 186.095 21.603 185.946 21.441C185.779 21.2545 185.554 21.0778 185.348 20.9698C185.166 20.8716 184.903 20.7636 184.769 20.7342C184.63 20.7047 184.358 20.6802 184.171 20.6851C183.98 20.69 183.736 20.7096 183.63 20.7293C183.525 20.7538 183.319 20.8176 183.176 20.8716ZM47.2773 12.0409H51.0241C53.0817 12.0409 55.1441 12.0655 55.6035 12.09C56.0629 12.1195 56.6658 12.1734 56.9433 12.2176C57.2209 12.2569 57.6946 12.3502 57.9961 12.4189C58.2976 12.4876 58.7713 12.6201 59.0488 12.7134C59.3264 12.8067 59.757 12.9785 60.0058 13.0914C60.2547 13.2043 60.6566 13.4153 60.8911 13.5577C61.1304 13.705 61.4845 13.9455 61.6807 14.0927C61.8769 14.24 62.231 14.5542 62.4654 14.7849C62.6951 15.0156 63.0109 15.3592 63.1641 15.5506C63.3124 15.7371 63.566 16.0906 63.7191 16.336C63.8723 16.5765 64.1115 17.0183 64.2455 17.3177C64.3843 17.6123 64.5805 18.1228 64.6857 18.4467C64.791 18.7707 64.925 19.2518 64.9776 19.5119C65.0351 19.777 65.1116 20.2139 65.1499 20.4838C65.1882 20.7538 65.2456 21.3674 65.2743 21.8435C65.3126 22.4768 65.3126 22.9578 65.2743 23.5861C65.2456 24.0672 65.1882 24.6807 65.1499 24.9507C65.1116 25.2207 65.0351 25.6576 64.9776 25.9177C64.925 26.1828 64.7958 26.6639 64.6905 26.9878C64.59 27.3118 64.3556 27.8861 64.1737 28.2641C63.9919 28.642 63.7287 29.1231 63.5852 29.3293C63.4464 29.5354 63.1593 29.9085 62.9487 30.1588C62.7382 30.4092 62.3745 30.7773 62.1352 30.9786C61.9008 31.1847 61.5323 31.4645 61.3218 31.6069C61.1112 31.7443 60.7763 31.9505 60.5801 32.0585C60.3839 32.1665 59.9724 32.3579 59.6709 32.4806C59.3694 32.6034 58.8287 32.7801 58.4746 32.8733C58.1205 32.9666 57.5271 33.0942 57.1587 33.1531C56.5031 33.266 56.4026 33.266 47.2773 33.2955V12.0409ZM52.3975 29.0249C54.6034 29.0249 55.4408 29.0004 55.6753 28.9709C55.9145 28.9415 56.3117 28.8629 56.5605 28.7991C56.8094 28.7353 57.2305 28.5733 57.4937 28.4408C57.7568 28.3034 58.1109 28.0776 58.2784 27.9352C58.4507 27.7929 58.6947 27.5425 58.8239 27.3805C58.9483 27.2185 59.1732 26.8406 59.312 26.546C59.4556 26.2515 59.6278 25.8048 59.6948 25.5643C59.7618 25.3189 59.8479 24.936 59.8862 24.7053C59.9245 24.4746 59.9819 23.9788 60.0106 23.6008C60.0393 23.2032 60.0489 22.6142 60.0346 22.2019C60.0154 21.8092 59.9676 21.2594 59.9293 20.9747C59.891 20.69 59.8049 20.2482 59.7379 19.993C59.6709 19.7377 59.5417 19.3401 59.4508 19.1094C59.3599 18.8787 59.1685 18.5155 59.0297 18.2995C58.8861 18.0835 58.6469 17.7841 58.4937 17.6368C58.3358 17.4895 58.0487 17.2637 57.8525 17.1361C57.6563 17.0085 57.3118 16.8367 57.0869 16.7483C56.862 16.6649 56.4888 16.552 56.2495 16.498C55.8715 16.4096 55.5987 16.3949 54.1105 16.3753L52.407 16.3507L52.3975 29.0249ZM84.9892 12.036L89.8317 12.0556C94.0044 12.0704 94.7461 12.0851 95.2007 12.1538C95.4878 12.198 95.8993 12.2716 96.1099 12.3158C96.3204 12.36 96.7271 12.4729 97.019 12.5661C97.3061 12.6643 97.7512 12.8361 98 12.9588C98.2488 13.0766 98.6604 13.3172 98.9092 13.4841C99.158 13.6559 99.5456 13.97 99.7657 14.1811C99.9858 14.3971 100.302 14.7554 100.469 14.9861C100.641 15.2168 100.871 15.5899 100.986 15.8206C101.106 16.0513 101.273 16.4685 101.369 16.7532C101.46 17.0379 101.57 17.4699 101.613 17.7104C101.651 17.9559 101.699 18.4418 101.718 18.7903C101.732 19.183 101.723 19.6592 101.685 20.0175C101.651 20.3415 101.575 20.8274 101.508 21.0974C101.445 21.3674 101.316 21.7748 101.22 22.0055C101.129 22.2362 100.972 22.5651 100.871 22.7418C100.771 22.9185 100.594 23.1934 100.474 23.3554C100.354 23.5174 100.134 23.7825 99.9763 23.9444C99.8231 24.1064 99.5456 24.3617 99.3638 24.5139C99.1771 24.666 98.8757 24.8869 98.6938 25.0047C98.5072 25.1176 98.1627 25.3042 97.9282 25.422C97.689 25.5349 97.2583 25.7067 96.9712 25.7999C96.6793 25.8981 96.2056 26.0208 95.9184 26.0748C95.6266 26.1337 95.1959 26.1975 94.9614 26.227C94.7222 26.2515 93.5354 26.2761 90.1045 26.2761V33.2955H84.9844L84.9892 12.036ZM90.0997 22.0104C92.6071 22.0055 93.5259 21.9859 93.7604 21.9613C93.9996 21.9319 94.3202 21.8779 94.4781 21.8386C94.636 21.7945 94.9279 21.6815 95.1241 21.5785C95.3251 21.4803 95.6026 21.2839 95.7462 21.1465C95.8945 21.0091 96.0811 20.7636 96.1625 20.6065C96.2486 20.4446 96.3539 20.1697 96.4017 19.9979C96.4544 19.7917 96.4831 19.4923 96.4831 19.1634C96.4831 18.8296 96.4544 18.5302 96.4017 18.3289C96.3539 18.1522 96.2582 17.897 96.1864 17.7644C96.1194 17.627 95.9424 17.3963 95.7988 17.2441C95.6505 17.0919 95.3825 16.8956 95.1959 16.7925C95.0141 16.6943 94.703 16.5667 94.502 16.5029C94.1623 16.3998 94.057 16.3949 92.1286 16.3753L90.1093 16.3556L90.0997 22.0104ZM109.24 12.0458V33.3004H104.12L104.111 22.7075C104.106 16.8809 104.12 12.0949 104.144 12.0802C104.163 12.0605 105.321 12.0458 109.24 12.0458ZM111.968 12.0458H117.327L124.816 25.2256L124.864 12.0704L129.95 12.0458L129.96 33.3004L124.577 33.3053L117.112 20.7145L117.088 33.3004H111.968V12.0458ZM139.148 12.0458L144.244 12.0704L144.268 20.4887H151.158L151.182 12.0704L156.269 12.0458L156.278 33.3004H151.158V24.7593H144.268V33.3004H139.148V12.0458ZM74.8925 16.8661C75.3614 16.8612 75.9213 16.8858 76.2323 16.93C76.529 16.9692 77.0171 17.0674 77.3233 17.1459C77.6248 17.2294 78.0315 17.3619 78.2325 17.4454C78.4287 17.5288 78.7732 17.7006 78.9981 17.8233C79.2183 17.9411 79.5724 18.1669 79.7829 18.324C79.9887 18.4762 80.3332 18.7756 80.5485 18.9916C80.7591 19.2076 81.0558 19.5512 81.2041 19.7524C81.3524 19.9586 81.5725 20.2973 81.6922 20.5133C81.8166 20.7293 82.0032 21.1121 82.1085 21.3625C82.2138 21.6128 82.3717 22.0644 82.4626 22.3688C82.5487 22.6731 82.6684 23.1983 82.7258 23.5321C82.7832 23.8708 82.8502 24.5335 82.8789 25.0047C82.9028 25.4809 82.922 26.0306 82.898 26.6L72.0118 26.6246L72.0405 26.9584C72.0597 27.14 72.1123 27.4542 72.1602 27.6554C72.208 27.8616 72.3276 28.1905 72.4233 28.3917C72.5477 28.6519 72.6913 28.858 72.9162 29.0789C73.1076 29.2753 73.3517 29.4618 73.5431 29.5551C73.7105 29.6434 74.0024 29.7514 74.1891 29.8005C74.4092 29.8545 74.7154 29.8839 75.0982 29.8839C75.4811 29.8839 75.7682 29.8545 75.9691 29.8005C76.1366 29.7563 76.3998 29.6532 76.5577 29.5698C76.7156 29.4912 76.9453 29.3194 77.0697 29.1918C77.1989 29.0642 77.3664 28.8139 77.4477 28.6371C77.5339 28.4653 77.6104 28.2788 77.6296 28.2346C77.6487 28.1757 77.6918 28.1561 77.7636 28.1708C77.8258 28.1806 78.9551 28.2543 80.2758 28.3279C82.0989 28.4359 82.6827 28.4801 82.6827 28.5292C82.6827 28.5635 82.6157 28.7844 82.5344 29.02C82.453 29.2556 82.276 29.668 82.1372 29.9379C82.0032 30.2079 81.7735 30.5957 81.6252 30.797C81.4769 31.0031 81.1706 31.3418 80.9505 31.5578C80.7256 31.7738 80.3858 32.0634 80.1896 32.2057C79.9934 32.3432 79.6393 32.5592 79.4049 32.6819C79.1656 32.8095 78.8019 32.9813 78.5914 33.0648C78.3808 33.1433 77.9693 33.2758 77.6822 33.3544C77.3903 33.428 76.8975 33.5311 76.5816 33.5753C76.1797 33.6342 75.706 33.6636 75.0265 33.6587C74.3565 33.6587 73.878 33.6342 73.5191 33.5802C73.2272 33.536 72.7535 33.4329 72.4664 33.3544C72.1745 33.2758 71.7438 33.1286 71.5094 33.0304C71.2701 32.9322 70.9351 32.7752 70.7677 32.677C70.5954 32.5788 70.2604 32.3677 70.026 32.2057C69.7771 32.0339 69.3704 31.6756 69.0642 31.3664C68.7435 31.0375 68.4182 30.6399 68.2363 30.3552C68.0688 30.0999 67.8392 29.7023 67.7291 29.4716C67.6143 29.2458 67.4468 28.8482 67.3559 28.5881C67.2601 28.3328 67.131 27.8714 67.064 27.5572C66.997 27.248 66.9204 26.7964 66.8869 26.551C66.8582 26.3104 66.8343 25.7263 66.8343 25.2502C66.8343 24.7789 66.8582 24.2046 66.8869 23.9739C66.9156 23.7481 66.973 23.38 67.0161 23.164C67.0592 22.948 67.1645 22.5308 67.2554 22.2313C67.3511 21.9368 67.552 21.4263 67.71 21.1023C67.8631 20.7784 68.1358 20.3071 68.3129 20.0519C68.4899 19.7966 68.8345 19.3892 69.0689 19.1438C69.3082 18.8983 69.7102 18.5498 69.9542 18.3682C70.203 18.1866 70.6672 17.9068 70.983 17.7448C71.2988 17.5828 71.7582 17.3816 72.0118 17.2981C72.2606 17.2147 72.6817 17.1018 72.9449 17.0478C73.2081 16.9938 73.5718 16.93 73.7584 16.9103C73.9402 16.8907 74.4522 16.8661 74.8925 16.8661ZM74.0551 20.6753C73.9163 20.7145 73.7058 20.798 73.5909 20.8618C73.4713 20.9207 73.2703 21.0532 73.1507 21.1612C73.0263 21.2643 72.8349 21.4705 72.7248 21.6177C72.6147 21.7699 72.4616 22.0202 72.385 22.1822C72.3133 22.3442 72.2128 22.6437 72.1602 22.8449C72.1123 23.0511 72.0597 23.321 72.0405 23.4487L72.0118 23.6794L77.8258 23.6843C77.7683 23.1689 77.7109 22.8547 77.6535 22.6486C77.6009 22.4473 77.486 22.1381 77.4047 21.9663C77.3185 21.7895 77.1511 21.5392 77.0314 21.4018C76.9118 21.2643 76.6965 21.0778 76.5529 20.9796C76.4094 20.8863 76.151 20.7587 75.9835 20.6949C75.7299 20.6016 75.5576 20.5722 75.0982 20.5624C74.7824 20.5526 74.4714 20.5575 74.414 20.5771C74.3517 20.5918 74.1938 20.636 74.0551 20.6753ZM158.905 17.1999H163.982L164.011 27.5818L164.116 27.999C164.179 28.2297 164.284 28.5341 164.356 28.6813C164.428 28.8237 164.571 29.0298 164.676 29.1427C164.782 29.2507 164.983 29.398 165.131 29.4667C165.337 29.5649 165.485 29.5943 165.849 29.614C166.169 29.6238 166.394 29.6091 166.614 29.5502C166.782 29.506 167.012 29.4176 167.117 29.3538C167.222 29.29 167.409 29.1329 167.538 29.0004C167.667 28.8678 167.839 28.6126 167.93 28.4163C168.021 28.2297 168.141 27.8861 168.308 27.2382L168.327 17.1999H173.409V33.3004L168.839 33.2758L168.811 32.4659C168.792 32.0241 168.777 31.4694 168.763 30.8215L168.538 31.2584C168.414 31.4989 168.193 31.8425 168.045 32.0192C167.902 32.2008 167.629 32.4708 167.447 32.6279C167.265 32.785 166.945 33.001 166.734 33.104C166.523 33.212 166.208 33.3397 166.04 33.3986C165.868 33.4575 165.533 33.536 165.298 33.5802C165.026 33.6342 164.595 33.6636 164.126 33.6636C163.715 33.6636 163.222 33.6391 163.025 33.5998C162.825 33.5655 162.494 33.482 162.284 33.4133C162.073 33.3446 161.772 33.2218 161.614 33.1433C161.456 33.0599 161.198 32.9028 161.04 32.785C160.882 32.6721 160.599 32.4119 160.413 32.2156C160.226 32.0143 159.996 31.7345 159.901 31.5823C159.81 31.4351 159.666 31.1749 159.585 31.008C159.504 30.8362 159.37 30.5073 159.293 30.2717C159.216 30.0361 159.102 29.5894 159.044 29.2753C158.939 28.7206 158.939 28.6519 158.92 22.9578L158.905 17.1999ZM14.4368 10.1805C16.7433 10.1805 17.3988 10.1952 17.5232 10.2443C17.6094 10.2787 17.7146 10.3621 17.7625 10.426C17.8391 10.5389 17.8486 10.853 17.8438 20.5378H24.1603V15.531C24.1603 12.7772 24.1794 10.4849 24.1985 10.4407C24.2177 10.3965 24.3134 10.3229 24.4139 10.2689C24.5813 10.1854 24.7632 10.1805 27.5099 10.1805C29.9694 10.1805 30.4575 10.1903 30.6106 10.2542C30.7111 10.2934 30.8164 10.3818 30.8499 10.4505C30.8978 10.5487 30.9073 13.0766 30.9121 22.5847C30.9121 34.2919 30.9121 34.6012 30.8212 34.7239C30.7733 34.7926 30.6489 34.8712 30.5437 34.9055C30.4049 34.9497 29.6393 34.9693 27.5338 34.9693C25.7489 34.9693 24.6531 34.9497 24.5431 34.9202C24.4521 34.8908 24.3277 34.8172 24.1603 34.6503V24.612H17.8438V29.5698C17.8438 32.7604 17.8295 34.5717 17.796 34.6503C17.7721 34.719 17.6668 34.8123 17.5472 34.8712C17.351 34.9644 17.2313 34.9644 14.4942 34.9693C12.7572 34.9693 11.5801 34.9497 11.47 34.9202C11.3695 34.8908 11.2451 34.827 11.1925 34.773C11.1016 34.6748 11.0968 34.6061 11.0968 22.5847C11.0968 12.9048 11.1111 10.48 11.159 10.4161C11.1925 10.3671 11.2834 10.2983 11.36 10.2542C11.4844 10.1903 11.8959 10.1805 14.4368 10.1805Z" fill="var(--fill-0, white)"/>
<path id="Path 1" fill-rule="evenodd" clip-rule="evenodd" d="M20.8872 1.00655C30.357 1.00164 30.7686 1.00655 31.3906 1.09491C31.7447 1.1489 32.1993 1.22744 32.3955 1.27162C32.5917 1.3158 32.9458 1.40906 33.1851 1.47778C33.4243 1.5465 33.855 1.69867 34.1421 1.81157C34.4292 1.92447 34.9173 2.14536 35.2187 2.30244C35.5202 2.45952 35.9939 2.72949 36.2715 2.90621C36.549 3.08292 36.9366 3.3529 37.1328 3.50997C37.329 3.66214 37.6927 3.97139 37.9415 4.19719C38.1903 4.42299 38.5636 4.80586 38.7741 5.0513C38.9847 5.29673 39.2478 5.6158 39.3579 5.76306C39.468 5.91032 39.7168 6.26865 39.9034 6.56317C40.09 6.85278 40.425 7.47127 40.6499 7.93269C40.87 8.39901 41.1476 9.08132 41.2672 9.44456C41.382 9.8078 41.5351 10.3821 41.6069 10.7208C41.6739 11.0595 41.7648 11.5995 41.8079 11.9234C41.8797 12.4487 41.8892 13.5482 41.9084 21.9126C41.918 28.3086 41.9084 31.5778 41.8749 32.1472C41.8462 32.6086 41.7792 33.2565 41.7218 33.5952C41.6691 33.9339 41.5734 34.4199 41.5112 34.6752C41.449 34.9304 41.3198 35.3722 41.2193 35.6569C41.1236 35.9416 40.9514 36.3932 40.8365 36.6632C40.7217 36.9331 40.4968 37.3847 40.3436 37.6694C40.1905 37.9541 39.9082 38.4156 39.7168 38.7003C39.5254 38.985 39.2239 39.3924 39.0469 39.6084C38.8698 39.8244 38.487 40.2318 38.2047 40.5165C37.9176 40.8012 37.5013 41.1791 37.2764 41.3559C37.0515 41.5375 36.6447 41.832 36.3672 42.0087C36.0896 42.1903 35.6159 42.4652 35.3144 42.6272C35.013 42.7843 34.5393 43.0052 34.2617 43.1181C33.9842 43.231 33.5104 43.3979 33.209 43.4862C32.9075 43.5746 32.4194 43.6973 32.1323 43.7513C31.8452 43.8102 31.3141 43.8887 30.96 43.928C30.4001 43.9918 28.242 44.0016 0 44.0016L0.0239258 12.0216L0.133984 11.408C0.196191 11.0693 0.29668 10.5834 0.358887 10.3281C0.421094 10.0729 0.545508 9.64091 0.636426 9.37093C0.727344 9.10095 0.861328 8.73771 0.933105 8.561C1.00488 8.38429 1.16279 8.04068 1.27764 7.80016C1.39727 7.55963 1.63174 7.12767 1.79922 6.84296C1.9667 6.55826 2.2251 6.16066 2.37822 5.95449C2.53135 5.74342 2.82803 5.37527 3.03857 5.12493C3.24912 4.87459 3.63672 4.47207 3.8999 4.23155C4.16309 3.99102 4.57461 3.64251 4.80908 3.46089C5.04834 3.27927 5.43594 3.00929 5.67041 2.85712C5.90967 2.70986 6.32119 2.47424 6.59394 2.33189C6.86191 2.19445 7.25908 2.00792 7.4792 1.91465C7.69453 1.82139 8.07734 1.67904 8.32617 1.59559C8.575 1.51214 9.00566 1.38943 9.2832 1.32071C9.56074 1.25198 10.0632 1.15381 10.4077 1.10472C11.0011 1.01637 11.4652 1.01146 20.8872 1.00655ZM11.3887 7.40746C11.1111 7.47618 10.69 7.61363 10.4556 7.7118C10.2211 7.80506 9.88613 7.96214 9.71387 8.06032C9.5416 8.15358 9.24971 8.34011 9.06787 8.46774C8.88603 8.59536 8.57021 8.84079 8.37402 9.0126C8.17783 9.18931 7.86201 9.51819 7.67539 9.74399C7.48877 9.96979 7.24951 10.2889 7.14424 10.4508C7.03896 10.6128 6.84277 10.9663 6.71357 11.2362C6.57959 11.5062 6.41211 11.9038 6.34033 12.1198C6.26855 12.3358 6.16807 12.699 6.12021 12.9297C6.07236 13.1604 6.00537 13.6562 5.98144 14.0342C5.94316 14.5005 5.93359 17.3966 5.94316 23.0661C5.95752 30.6157 5.96709 31.4551 6.03887 31.8527C6.08672 32.0981 6.17285 32.481 6.23984 32.7117C6.30205 32.9424 6.4456 33.34 6.55566 33.5952C6.66094 33.8505 6.85234 34.2285 6.97197 34.4297C7.0916 34.631 7.28779 34.9304 7.41221 35.0924C7.53183 35.2544 7.76152 35.5293 7.91943 35.7011C8.07734 35.8729 8.35967 36.1428 8.5415 36.295C8.72334 36.4472 9.03916 36.6828 9.23535 36.8153C9.43154 36.943 9.79043 37.1442 10.0249 37.2571C10.2594 37.37 10.6278 37.5222 10.8384 37.5909C11.0489 37.6645 11.4365 37.7725 11.6997 37.8314L12.1782 37.9394H29.6919C30.4719 37.7627 30.8595 37.6547 31.0557 37.5909C31.2519 37.5222 31.6203 37.3651 31.8691 37.2473C32.118 37.1246 32.5391 36.8791 32.8022 36.6975C33.1133 36.4865 33.4722 36.1772 33.8358 35.8091C34.1947 35.436 34.4962 35.0678 34.7019 34.7488C34.879 34.4788 35.1183 34.0468 35.2331 33.7916C35.3527 33.5363 35.5154 33.1044 35.5968 32.8344C35.6781 32.5644 35.7786 32.157 35.8265 31.9263C35.8982 31.5434 35.9078 30.7924 35.9222 23.017C35.9365 17.2543 35.9269 14.3287 35.8934 13.9115C35.8647 13.5728 35.7834 13.0672 35.7164 12.7825C35.6494 12.4978 35.5202 12.0658 35.4245 11.8253C35.3336 11.5798 35.1805 11.2411 35.0848 11.0644C34.9938 10.8877 34.7833 10.549 34.6254 10.3036C34.4627 10.0631 34.1086 9.63109 33.831 9.34639C33.5535 9.06169 33.1372 8.69844 32.8979 8.53155C32.6587 8.36465 32.3285 8.15358 32.1562 8.06032C31.984 7.96214 31.6538 7.80506 31.4145 7.7118C31.1753 7.61363 30.759 7.48109 30.4814 7.41237C30.2039 7.34365 29.7397 7.26511 29.4526 7.23566C29.1129 7.20621 26.0504 7.18657 20.8394 7.19148C16.3939 7.19639 12.5562 7.22093 12.3218 7.24057C12.0873 7.26511 11.6662 7.34365 11.3887 7.40746ZM2.07197 33.8505C2.0002 33.8898 1.85664 34.0223 1.75615 34.1401C1.65566 34.2579 1.55039 34.4444 1.52168 34.5524C1.49775 34.6604 1.4834 34.8715 1.49775 35.0188C1.50732 35.166 1.55039 35.3525 1.58867 35.436C1.63174 35.5145 1.73701 35.6569 1.82314 35.7502C1.91406 35.8434 2.07197 35.9563 2.17725 36.0054C2.2873 36.0594 2.4835 36.0987 2.63184 36.0987C2.80729 36.0987 2.97477 36.061 3.13428 35.9858C3.26348 35.922 3.44531 35.7845 3.53144 35.6765C3.61758 35.5734 3.72285 35.3624 3.76113 35.2151C3.80898 35.0531 3.82812 34.8715 3.80898 34.7586C3.79463 34.6604 3.74678 34.5034 3.70371 34.415C3.66064 34.3315 3.56016 34.1843 3.47402 34.0959C3.39268 34.0027 3.23955 33.8849 3.13428 33.8309C3.029 33.7769 2.83281 33.7229 2.70361 33.7131C2.56963 33.7032 2.40693 33.7131 2.33516 33.7376C2.26338 33.7572 2.14375 33.8112 2.07197 33.8505ZM5.12012 37.1344C5.0292 37.2031 4.90478 37.3357 4.84736 37.4289C4.78994 37.5222 4.71338 37.7185 4.68467 37.8658C4.63682 38.0916 4.6416 38.1799 4.70381 38.4057C4.75644 38.5923 4.84258 38.7444 4.98613 38.9015C5.12969 39.0586 5.26846 39.1519 5.45508 39.2157C5.62734 39.2697 5.79482 39.2942 5.93359 39.2746C6.05322 39.2648 6.23506 39.2059 6.34033 39.1519C6.4456 39.0979 6.58916 38.9899 6.66094 38.9113C6.73271 38.8377 6.8332 38.6757 6.88584 38.553C6.93848 38.4303 6.98633 38.2339 6.98633 38.1112C6.98633 37.9885 6.95762 37.802 6.92412 37.6989C6.89541 37.5958 6.79014 37.4191 6.69922 37.3111C6.6083 37.2031 6.42168 37.0608 6.29248 36.997C6.14892 36.9331 5.96709 36.8841 5.83789 36.889C5.71826 36.889 5.546 36.9135 5.45508 36.9479C5.35937 36.9822 5.21103 37.0657 5.12012 37.1344ZM1.87578 37.208C1.79443 37.2718 1.66523 37.4436 1.59824 37.5811C1.49775 37.7971 1.47861 37.8952 1.49297 38.1652C1.50254 38.4205 1.53603 38.5334 1.65566 38.7297C1.74658 38.877 1.88535 39.0242 2.03369 39.1175C2.21553 39.2304 2.33516 39.2697 2.5792 39.2844C2.84238 39.2991 2.93809 39.2844 3.12949 39.1862C3.25869 39.1224 3.44053 38.9801 3.52666 38.8721C3.61758 38.7641 3.72285 38.5579 3.76113 38.4057C3.80898 38.229 3.82334 38.067 3.8042 37.9394C3.78506 37.8314 3.73242 37.6645 3.68457 37.5713C3.63672 37.478 3.52666 37.3307 3.43574 37.2424C3.34961 37.154 3.19648 37.051 3.096 37.0117C3.00029 36.9675 2.78496 36.9331 2.61748 36.9331C2.44043 36.9331 2.26338 36.9626 2.17725 37.0117C2.0959 37.051 1.96191 37.1393 1.87578 37.208ZM1.80879 40.5459C1.71309 40.6539 1.59824 40.8208 1.55518 40.919C1.51689 41.0221 1.4834 41.2086 1.4834 41.3362C1.4834 41.4688 1.51211 41.6602 1.54561 41.7633C1.57432 41.8664 1.67959 42.0431 1.77051 42.1511C1.86143 42.2591 2.02412 42.3916 2.12939 42.4456C2.26338 42.5143 2.4165 42.5487 2.63184 42.5487C2.83281 42.5487 3.00508 42.5192 3.11035 42.4701C3.20127 42.421 3.34961 42.3131 3.44053 42.2247C3.52666 42.1363 3.6415 41.9793 3.68935 41.8762C3.74199 41.778 3.79463 41.6111 3.80898 41.508C3.82812 41.4 3.80898 41.2184 3.76113 41.0564C3.72285 40.9092 3.62715 40.7079 3.55059 40.6146C3.47402 40.5214 3.29697 40.3839 3.15342 40.3054C2.96201 40.2072 2.82803 40.1729 2.63184 40.1729C2.47871 40.1729 2.2873 40.2121 2.17725 40.2661C2.07197 40.3152 1.90449 40.4428 1.80879 40.5459ZM5.04355 40.541C4.88564 40.6981 4.78037 40.8552 4.74209 40.9828C4.71338 41.0908 4.68945 41.2773 4.68945 41.4C4.68945 41.5473 4.73252 41.7142 4.81865 41.886C4.89521 42.0333 5.0292 42.2149 5.12012 42.2934C5.21103 42.372 5.40723 42.4701 5.55078 42.5143C5.7709 42.5781 5.85703 42.583 6.07715 42.5339C6.2207 42.5045 6.41211 42.4309 6.49346 42.367C6.57959 42.3081 6.71357 42.1658 6.79492 42.048C6.87148 41.9351 6.96719 41.724 6.9959 41.5767C7.04853 41.346 7.04853 41.2724 6.97676 41.0466C6.92891 40.9043 6.82363 40.6981 6.7375 40.595C6.65137 40.487 6.46953 40.3496 6.34033 40.2858C6.18242 40.2121 6.01973 40.1778 5.86182 40.1778C5.72783 40.1827 5.546 40.2072 5.45508 40.2367C5.36416 40.2661 5.17754 40.4036 5.04355 40.541ZM8.1539 40.5901C8.09648 40.6686 8.01514 40.8159 7.96728 40.9092C7.91943 41.0073 7.88115 41.1939 7.88115 41.3509C7.88115 41.4982 7.91943 41.7093 7.9625 41.8173C8.00557 41.9253 8.11084 42.0873 8.19697 42.1756C8.2831 42.2689 8.43623 42.3867 8.5415 42.4456C8.68027 42.5192 8.81904 42.5487 9.04394 42.5487C9.26885 42.5487 9.40762 42.5192 9.54638 42.4456C9.65166 42.3867 9.80478 42.2689 9.89092 42.1756C9.97705 42.0873 10.0775 41.9253 10.1206 41.8173C10.1685 41.7093 10.202 41.508 10.202 41.3755C10.2067 41.2331 10.1637 41.0368 10.111 40.9092C10.0584 40.7865 9.94355 40.6146 9.85263 40.5214C9.76172 40.4281 9.60381 40.3152 9.49853 40.2661C9.38847 40.2121 9.19228 40.1729 9.04394 40.1729C8.84775 40.1729 8.71377 40.2072 8.52236 40.3054C8.37881 40.3839 8.21133 40.5067 8.1539 40.5901ZM14.4368 10.1858C16.7433 10.1858 17.3988 10.2005 17.5232 10.2496C17.6094 10.2839 17.7146 10.3674 17.7625 10.4312C17.8391 10.5441 17.8486 10.8583 17.8438 20.5431H24.1603V15.5362C24.1603 12.7825 24.1794 10.4901 24.1985 10.4459C24.2177 10.4018 24.3134 10.3281 24.4139 10.2741C24.5813 10.1907 24.7632 10.1858 27.5099 10.1858C29.9694 10.1858 30.4575 10.1956 30.6106 10.2594C30.7111 10.2987 30.8164 10.387 30.8499 10.4557C30.8978 10.5539 30.9073 13.0819 30.9121 22.59C30.9121 34.2972 30.9121 34.6064 30.8212 34.7291C30.7733 34.7979 30.6489 34.8764 30.5436 34.9108C30.4049 34.9549 29.6393 34.9746 27.5338 34.9746C25.7489 34.9746 24.6531 34.9549 24.5431 34.9255C24.4521 34.896 24.3277 34.8224 24.1603 34.6555V24.6173H17.8438V29.575C17.8438 32.7657 17.8295 34.577 17.796 34.6555C17.7721 34.7242 17.6668 34.8175 17.5472 34.8764C17.351 34.9697 17.2313 34.9697 14.4942 34.9746C12.7572 34.9746 11.5801 34.9549 11.47 34.9255C11.3695 34.896 11.2451 34.8322 11.1925 34.7782C11.1016 34.6801 11.0968 34.6113 11.0968 22.59C11.0968 12.9101 11.1111 10.4852 11.159 10.4214C11.1925 10.3723 11.2834 10.3036 11.36 10.2594C11.4844 10.1956 11.8959 10.1858 14.4368 10.1858Z" fill="var(--fill-0, #A76DEA)"/>
</g>
<defs>
<clipPath id="clip0_9804_33664">
<rect width="196" height="43" fill="white"/>
</clipPath>
</defs>
</svg>
