<svg preserveAspectRatio="none" width="100%" height="100%" overflow="visible" style="display: block;" viewBox="0 0 115 77" fill="none" xmlns="http://www.w3.org/2000/svg">
<g id="depin alliance">
<path id="Vector" d="M3.80078 49.4279V23.0078H13.3829C17.0514 23.0078 20.1746 24.2754 22.7434 26.8197C25.3122 29.3641 26.5966 32.4999 26.5966 36.2179C26.5966 39.9265 25.303 43.0623 22.725 45.6162C20.1562 48.1605 17.0329 49.4279 13.3738 49.4279H3.80078ZM10.5554 28.8289V43.6162H12.0893C14.3902 43.6162 16.2105 42.9685 17.5503 41.6634C18.8995 40.3584 19.574 38.5463 19.574 36.2179C19.574 33.9271 18.9086 32.1244 17.5689 30.8099C16.229 29.4862 14.4271 28.8289 12.1633 28.8289H10.5554Z" fill="var(--fill-0, #18F1AE)"/>
<path id="Vector_2" d="M34.6677 37.8181H41.9491C41.792 36.9637 41.3762 36.2784 40.7017 35.762C40.0271 35.2362 39.2601 34.9732 38.3916 34.9732C36.2941 34.9827 35.0466 35.9309 34.6677 37.8181ZM47.7705 40.8319V41.4985H34.5661C34.5661 44.165 35.8782 45.5075 38.4932 45.5075C39.8608 45.5075 40.8587 44.9536 41.4871 43.8457H47.5302C47.059 45.8737 45.9316 47.4416 44.1576 48.5308C42.559 49.526 40.6832 50.0235 38.5117 50.0235C35.4901 50.0235 33.0507 49.2067 31.2027 47.5731C29.2529 45.8549 28.2734 43.4796 28.2734 40.4563C28.2734 37.4894 29.179 35.1423 30.9993 33.4053C32.7827 31.706 35.139 30.8516 38.0774 30.8516C41.1174 30.8516 43.4922 31.7435 45.2017 33.518C46.9204 35.2925 47.7705 37.7336 47.7705 40.8319Z" fill="var(--fill-0, #18F1AE)"/>
<path id="Vector_3" d="M80.3581 25.6875V49.4224H73.6035V32.5508C73.6035 28.7577 76.6251 25.6875 80.3581 25.6875Z" fill="var(--fill-0, #18F1AE)"/>
<path id="Vector_4" d="M84.7832 49.4279V23.0078H91.5378L103.938 39.166H104.003V23.0078H110.758V49.4279H104.003L91.621 33.2417H91.5378V49.4279H84.7832Z" fill="var(--fill-0, #18F1AE)"/>
<path id="Vector_5" d="M76.8304 23.4476C79.2748 23.4476 81.2565 21.4342 81.2565 18.9504C81.2565 16.4666 79.2748 14.4531 76.8304 14.4531C74.3859 14.4531 72.4043 16.4666 72.4043 18.9504C72.4043 21.4342 74.3859 23.4476 76.8304 23.4476Z" fill="var(--fill-0, #18F1AE)"/>
<path id="Vector_6" d="M66.9902 18.6944C66.9902 16.0467 68.0251 13.5024 69.8732 11.6246C71.7212 9.74686 74.2162 8.69531 76.8311 8.69531C79.4369 8.69531 81.9411 9.74686 83.7891 11.6246C85.6372 13.5024 86.6721 16.0373 86.6721 18.6944H84.9071C84.9071 16.5162 84.0571 14.4319 82.5417 12.8921C81.0262 11.3524 78.9749 10.4886 76.8311 10.4886C74.6874 10.4886 72.6361 11.3524 71.1206 12.8921C69.6052 14.4319 68.7552 16.5162 68.7552 18.6944H66.9902Z" fill="var(--fill-0, white)"/>
<path id="Vector_7" d="M62.0762 18.6971C62.0762 14.7256 63.6285 10.9044 66.4006 8.09709C69.1634 5.28984 72.9243 3.70312 76.8329 3.70312C80.7416 3.70312 84.5024 5.28045 87.2652 8.09709C90.0281 10.9044 91.5897 14.7256 91.5897 18.6971H89.64C89.64 15.2419 88.2909 11.9371 85.8885 9.49602C83.486 7.05493 80.2334 5.68416 76.8329 5.68416C73.4325 5.68416 70.1799 7.05493 67.7775 9.49602C65.3749 11.9371 64.0258 15.2419 64.0258 18.6971H62.0762Z" fill="var(--fill-0, white)"/>
<path id="Vector_8" d="M62.0762 18.6971C62.0762 14.7256 63.6285 10.9044 66.4006 8.09709C69.1634 5.28984 72.9243 3.70312 76.8329 3.70312C80.7416 3.70312 84.5024 5.28045 87.2652 8.09709C90.0281 10.9044 91.5897 14.7256 91.5897 18.6971H89.64C89.64 15.2419 88.2909 11.9371 85.8885 9.49602C83.486 7.05493 80.2334 5.68416 76.8329 5.68416C73.4325 5.68416 70.1799 7.05493 67.7775 9.49602C65.3749 11.9371 64.0258 15.2419 64.0258 18.6971H62.0762Z" fill="var(--fill-0, white)"/>
<path id="Vector_9" d="M57.5422 53.1929V40.6682H61.3862C67.5311 40.6682 70.5989 37.6826 70.5989 31.7019C70.5989 28.782 69.721 26.5756 67.9746 25.0828C66.3482 23.7026 64.0659 23.0078 61.1368 23.0078H50.7969V53.1929V57.8216H108.77C110.027 57.8216 111.043 56.7888 111.043 55.5026V53.1929H57.5422ZM57.5422 28.5378H58.688C60.3513 28.5378 61.4879 28.688 62.107 28.9791C63.0772 29.4485 63.5577 30.425 63.5577 31.9084C63.5577 33.3449 63.0495 34.2838 62.0423 34.7344C61.4509 34.9974 60.3328 35.1288 58.688 35.1288H57.5422V28.5378Z" fill="var(--fill-0, #18F1AE)"/>
<path id="Vector_10" d="M17.5403 71.1494H10.4899L9.14086 74.6232H3.7168L11.2846 54.625H16.8658L24.2857 74.6232H18.8339L17.5403 71.1494ZM16.1635 67.1685L14.0752 60.7935H14.0197L11.9037 67.1685H16.1635Z" fill="var(--fill-0, white)"/>
<path id="Vector_11" d="M30.5283 52.6016V74.6183H25.7695V57.4368C25.7695 54.7704 27.904 52.6016 30.5283 52.6016Z" fill="var(--fill-0, white)"/>
<path id="Vector_12" d="M33.6562 52.6016C36.2805 52.6016 38.415 54.761 38.415 57.4368V74.6278H33.6562V52.6016Z" fill="var(--fill-0, white)"/>
<path id="Vector_13" d="M46.2816 61.0117V74.6255H41.5228V65.8469C41.5321 63.1711 43.6573 61.0117 46.2816 61.0117ZM43.8976 53.0781C44.6368 53.0781 45.2652 53.3411 45.7826 53.8668C46.3001 54.3925 46.5588 55.031 46.5588 55.7821C46.5588 56.5332 46.3001 57.1717 45.7826 57.6975C45.2652 58.2232 44.6368 58.4861 43.8976 58.4861C43.1583 58.4861 42.53 58.2232 42.0125 57.6975C41.4951 57.1717 41.2363 56.5332 41.2363 55.7821C41.2363 55.031 41.4951 54.3925 42.0125 53.8668C42.53 53.3411 43.1583 53.0781 43.8976 53.0781Z" fill="var(--fill-0, white)"/>
<path id="Vector_14" d="M56.4046 64.7467C55.5082 64.7467 54.769 65.0378 54.1961 65.6105C53.6232 66.1833 53.346 66.9155 53.346 67.8263C53.346 68.7464 53.6232 69.4881 54.1868 70.042C54.7598 70.5959 55.4991 70.8683 56.4046 70.8683C57.3101 70.8683 58.0493 70.5959 58.613 70.042C59.1766 69.4787 59.4538 68.7464 59.4538 67.8263C59.4538 66.9155 59.1674 66.1833 58.6038 65.6105C58.0308 65.0378 57.3009 64.7467 56.4046 64.7467ZM64.0555 61.01V74.6238H59.2968V73.1121H59.2413C58.4374 74.4266 57.0883 75.0838 55.2033 75.0838C53.2444 75.0838 51.618 74.3608 50.3244 72.9244C49.0677 71.5254 48.4395 69.8261 48.4395 67.8169C48.4395 65.8171 49.0585 64.1177 50.2967 62.7281C51.5718 61.2917 53.189 60.5781 55.1386 60.5781C56.922 60.5781 58.308 61.1696 59.2968 62.3526V61.0194H64.0555V61.01Z" fill="var(--fill-0, white)"/>
<path id="Vector_15" d="M71.9795 61.0132V62.7689H72.0349C73.0144 61.3043 74.4374 60.5625 76.3223 60.5625C79.6766 60.5625 81.3583 62.4403 81.3583 66.2052V74.6082H76.5996V67.9797C76.5996 66.853 76.5349 66.0925 76.4056 65.6982C76.1283 64.8344 75.4723 64.4025 74.4558 64.4025C72.811 64.4025 71.9795 65.4541 71.9795 67.5478V74.6082H67.2207V60.9944H71.9795V61.0132Z" fill="var(--fill-0, white)"/>
<path id="Vector_16" d="M94.1498 61.3589V65.4431C93.2997 64.8141 92.4774 64.4948 91.6919 64.4948C90.7679 64.4948 89.9917 64.8141 89.3634 65.4525C88.7443 66.0815 88.4301 66.8702 88.4301 67.8091C88.4301 68.795 88.7443 69.593 89.3634 70.222C89.9917 70.8416 90.7956 71.1515 91.7751 71.1515C92.6899 71.1515 93.4845 70.8416 94.1592 70.222V74.3062C93.1518 74.8225 92.0338 75.0854 90.8048 75.0854C88.7904 75.0854 87.081 74.4188 85.6765 73.0763C84.2442 71.7149 83.5234 70.0155 83.5234 67.9687C83.5234 65.7998 84.2349 64.0254 85.6672 62.6452C87.0995 61.2651 88.8828 60.5703 91.0173 60.5703C92.1631 60.5703 93.2073 60.8333 94.1498 61.3589Z" fill="var(--fill-0, white)"/>
<path id="Vector_17" d="M100.942 65.8375H106.449C106.329 65.1896 106.015 64.6733 105.507 64.2789C104.999 63.8845 104.416 63.6874 103.76 63.6874C102.172 63.6874 101.238 64.4009 100.942 65.8375ZM110.867 68.119V68.6259H100.868C100.868 70.6445 101.858 71.6585 103.835 71.6585C104.869 71.6585 105.627 71.236 106.108 70.4004H110.682C110.321 71.9402 109.471 73.1231 108.131 73.9494C106.92 74.7005 105.497 75.0761 103.862 75.0761C101.58 75.0761 99.7314 74.4564 98.3271 73.2264C96.8489 71.9214 96.1094 70.1281 96.1094 67.8373C96.1094 65.5934 96.7938 63.8094 98.17 62.5044C99.5192 61.2182 101.303 60.5703 103.521 60.5703C105.821 60.5703 107.623 61.2463 108.916 62.589C110.22 63.9221 110.867 65.7717 110.867 68.119Z" fill="var(--fill-0, white)"/>
</g>
</svg>
