<svg preserveAspectRatio="none" width="100%" height="100%" overflow="visible" style="display: block;" viewBox="0 0 126.13 28.1772" fill="none" xmlns="http://www.w3.org/2000/svg">
<g id="Group">
<path id="Vector" d="M0 27.8164V0.294927C0.11899 0.294927 0.214181 0.271099 0.333172 0.271099H5.90192C7.13942 0.271099 8.35313 0.366412 9.56683 0.723834C11.7325 1.34336 13.0651 2.74922 13.6601 4.89376C14.0171 6.15665 14.1123 7.44336 14.1123 8.75391C14.1123 12.4234 14.1123 16.093 14.0885 19.7625C14.0647 21.2637 13.8029 22.741 13.1841 24.1469C12.3988 25.934 11.0185 27.0539 9.11466 27.5066C8.18653 27.7211 7.21081 27.8164 6.25889 27.8402C4.25985 27.8879 2.26082 27.8641 0.28558 27.8641C0.190388 27.8402 0.0951923 27.8164 0 27.8164ZM3.83149 3.03516V25.1477C5.06899 25.0762 6.28269 25.1 7.47259 24.957C8.94807 24.7664 9.75721 23.7656 9.97139 22.3359C10.1142 21.2875 10.2094 20.2391 10.2332 19.1906C10.257 15.8309 10.2808 12.4949 10.2332 9.13516C10.2332 7.99141 10.138 6.87149 9.97139 5.75157C9.78101 4.39336 8.97187 3.51172 7.61538 3.3211C6.35409 3.13047 5.11659 3.10665 3.83149 3.03516ZM112.565 0.271099H114.945C115.159 0.271099 115.183 0.390239 115.254 0.533208C115.968 2.225 116.706 3.9168 117.42 5.6086C119.205 9.77852 120.989 13.9723 122.774 18.1422C122.822 18.2375 122.846 18.309 122.941 18.4043V0.294927H126.13V27.8402H123.845C123.774 27.8402 123.655 27.6973 123.607 27.5781C122.75 25.5527 121.894 23.5035 121.037 21.4781C119.347 17.475 117.681 13.4719 115.992 9.46875C115.944 9.37344 115.897 9.27813 115.801 9.18282V27.8164H112.565V0.271099ZM85.2447 13.9723V8.84922C85.2447 7.32422 85.3875 5.79922 85.8873 4.34571C86.7202 1.84375 88.505 0.50938 91.0752 0.151958C92.5031 -0.0386666 93.931 -0.0386673 95.3589 0.318755C97.4769 0.842973 98.881 2.15352 99.6187 4.17891C100.071 5.4418 100.285 6.75235 100.309 8.08672C100.333 11.9469 100.333 15.7832 100.309 19.6434C100.309 21.2875 100.047 22.884 99.3808 24.409C98.6668 26.077 97.4293 27.2207 95.7159 27.7211C93.5978 28.3168 91.456 28.3168 89.3618 27.5305C87.9101 26.9824 86.8868 25.934 86.2442 24.5281C85.4589 22.7887 85.2923 20.9301 85.2685 19.0477C85.2447 17.3797 85.2447 15.6879 85.2447 13.9723ZM89.1476 14.0199H89.1C89.1 15.95 89.0762 17.8801 89.1 19.8102C89.1238 20.7395 89.1952 21.6688 89.3618 22.598C89.576 23.7656 90.2185 24.6234 91.4084 24.957C92.1461 25.1477 92.8839 25.1715 93.6454 25.0523C94.9543 24.8617 95.8111 24.1231 96.0728 22.8602C96.287 21.9309 96.3822 20.9539 96.406 20.0008C96.4298 15.9977 96.4298 11.9945 96.406 7.99141C96.406 7.1336 96.287 6.25196 96.1442 5.39415C95.93 4.0836 95.0495 3.27344 93.7644 3.08282C93.2171 3.01133 92.6697 2.9875 92.1223 3.03516C90.7183 3.10665 89.7901 3.84532 89.4094 5.17969C89.2428 5.79922 89.1476 6.44258 89.1238 7.08594C89.1238 9.4211 89.1476 11.7086 89.1476 14.0199ZM17.4202 13.9484C17.4202 11.8754 17.3964 9.80235 17.4202 7.7293C17.444 6.25196 17.7058 4.82227 18.3483 3.4879C19.1337 1.86758 20.395 0.819146 22.1322 0.366412C23.9647 -0.110151 25.8209 -0.133979 27.6534 0.366412C29.7 0.914459 31.0327 2.27266 31.7466 4.2504C32.1988 5.53711 32.3892 6.87149 32.3892 8.22969C32.3892 12.0184 32.413 15.8309 32.3892 19.6195C32.3892 21.216 32.1512 22.8125 31.5087 24.2898C30.5567 26.482 28.8433 27.6734 26.5111 27.9832C25.107 28.1738 23.7029 28.15 22.3226 27.7926C20.1332 27.2445 18.7291 25.8387 18.0151 23.718C17.4916 22.1691 17.3726 20.5488 17.3488 18.9285C17.325 17.2606 17.3488 15.5688 17.3488 13.9008C17.3964 13.9484 17.4202 13.9484 17.4202 13.9484ZM21.2755 13.9961H21.2517C21.2517 15.9262 21.2279 17.8563 21.2517 19.7863C21.2755 20.7156 21.3469 21.6211 21.4897 22.5266C21.7038 23.8371 22.4892 24.8379 23.9647 25.0285C24.4644 25.1 24.988 25.1 25.4877 25.0762C26.9156 25.0047 27.82 24.266 28.2245 22.884C28.4863 21.9309 28.5339 20.9539 28.5339 19.977C28.5339 15.9738 28.5577 11.9945 28.5339 7.99141C28.5339 7.10977 28.4387 6.22813 28.2721 5.37032C28.0341 4.17891 27.3202 3.36875 26.0827 3.13047C25.2974 2.96368 24.512 2.96368 23.7267 3.13047C22.632 3.36875 21.8704 3.98829 21.5849 5.10821C21.4183 5.75157 21.2993 6.44258 21.2755 7.10977C21.2517 9.39727 21.2755 11.6848 21.2755 13.9961ZM47.0012 16.9031H43.5029V14.2106H50.4281V27.8164H48.0721C47.9531 26.8156 47.8341 25.8148 47.6913 24.8141C47.6675 24.8141 47.6437 24.7902 47.62 24.7902C47.5724 24.9094 47.5248 25.0523 47.4534 25.1715C46.5966 27.0539 45.1925 28.1262 43.0983 28.1738C41.9322 28.1977 40.8137 28.1023 39.719 27.6496C38.2435 27.0539 37.2678 25.9578 36.6728 24.5043C35.9113 22.6695 35.7209 20.7156 35.7209 18.7379V9.63555C35.7209 7.94376 35.8399 6.27579 36.2921 4.63165C36.7204 3.03516 37.5534 1.74844 39.0288 0.938287C39.7428 0.533209 40.5281 0.318755 41.3373 0.199614C42.7175 0.032817 44.0978 0.00898927 45.4543 0.294927C47.7151 0.771489 49.1668 2.10586 49.7856 4.32188C50.2377 5.87071 50.2615 7.44336 50.2377 9.06368H46.668V8.56329C46.668 7.37188 46.668 6.15665 46.3586 4.98907C46.1207 4.0836 45.5971 3.46407 44.669 3.22579C43.5981 2.93985 42.5272 2.91602 41.5038 3.29727C40.5281 3.65469 40.0046 4.48868 39.8618 5.48946C39.6952 6.5379 39.6 7.61016 39.5762 8.6586C39.5524 12.4473 39.5524 16.2121 39.5762 20.0008C39.5762 20.9777 39.7428 21.9547 39.957 22.884C40.2663 24.1945 41.1707 24.9332 42.5272 25.1C43.2411 25.1953 43.9788 25.1715 44.6452 24.9332C45.6923 24.5758 46.2635 23.7895 46.5728 22.7648C46.9536 21.4066 47.0012 20.0246 47.0012 18.6188V16.9031ZM82.0796 10.1121H78.4385V9.73086C78.3909 8.34883 78.3909 6.94297 78.2957 5.56094C78.2005 4.20274 77.5103 3.34493 76.368 3.1543C75.7493 3.03516 75.0829 3.03516 74.4404 3.08282C72.7031 3.20196 71.9892 4.39336 71.7988 5.87071C71.656 6.99063 71.6084 8.11055 71.6084 9.23047C71.5846 12.6379 71.6084 16.0453 71.6084 19.4766C71.6084 20.5965 71.6322 21.7164 71.9178 22.7887C72.1558 23.6227 72.5127 24.409 73.3695 24.7664C74.488 25.243 75.6541 25.2668 76.7726 24.8379C77.6769 24.4805 78.0339 23.6941 78.2005 22.8363C78.3433 22.0977 78.3909 21.3352 78.4147 20.5965C78.4385 19.6195 78.4147 18.6426 78.4147 17.6418H82.032C82.032 17.6656 82.0558 17.6656 82.0558 17.6895C82.1034 19.7863 82.1034 21.8832 81.4846 23.9086C80.7469 26.3391 79.1762 27.7211 76.6536 28.0309C75.3923 28.1977 74.1548 28.1738 72.9173 27.9117C70.4661 27.3637 69.0144 25.791 68.3243 23.432C67.8959 21.9309 67.7293 20.4059 67.7531 18.857V9.34961C67.7531 7.80079 67.8721 6.27579 68.2767 4.79844C68.9192 2.34415 70.3947 0.723834 72.9649 0.247271C74.7497 -0.0863225 76.5584 -0.110151 78.2957 0.533208C79.8663 1.10508 80.9135 2.24883 81.4608 3.82149C81.9368 5.17969 82.0796 6.60938 82.1034 8.03907C82.1034 8.73008 82.0796 9.39727 82.0796 10.1121ZM54.45 0.294927H65.0639V3.10665H58.2577V12.2805H63.755V14.9731H58.2577V25.1H65.1115V27.8402H54.4262C54.45 18.6426 54.45 9.49258 54.45 0.294927ZM104.307 27.8164V0.294927H108.043V27.8164H104.307Z" fill="var(--fill-0, white)"/>
</g>
</svg>
