<svg preserveAspectRatio="none" width="100%" height="100%" overflow="visible" style="display: block;" viewBox="0 0 254 23.0002" fill="none" xmlns="http://www.w3.org/2000/svg">
<g id="Group 1000002333">
<g id="Group">
<path id="Vector" fill-rule="evenodd" clip-rule="evenodd" d="M146.677 14.6332C146.804 14.3359 146.849 14.0119 146.808 13.6615C143.345 13.6615 139.881 13.6615 136.417 13.6615C136.417 12.5683 136.417 11.4752 136.417 10.382C141.064 10.382 145.713 10.382 150.36 10.382C150.36 14.5117 150.36 18.6415 150.36 22.7712C149.176 22.7712 147.992 22.7712 146.808 22.7712C146.808 21.5161 146.808 19.0059 146.808 19.0059C146.808 19.0059 146.387 19.0059 146.348 19.0666C145.079 21.0725 143.128 22.3681 140.626 22.8319C134.404 23.5207 130.347 21.1118 128.46 15.6049C127.345 11.892 127.739 8.32907 129.644 4.91621C132.761 0.775923 136.992 -0.70191 142.336 0.482835C145.832 1.58511 148.155 3.75115 149.307 6.98108C148.047 7.1289 146.798 7.33137 145.559 7.58839C143.519 3.92557 140.383 2.81212 136.154 4.24817C134.333 5.20092 133.083 6.59774 132.406 8.43863C131.471 11.4649 131.91 14.2989 133.721 16.941C135.694 19.0329 138.171 19.8225 141.153 19.3095C143.521 19.0173 145.254 17.9038 146.348 15.9693C146.553 15.5425 146.664 15.0971 146.677 14.6332Z" fill="var(--fill-0, white)"/>
</g>
<g id="Group_2">
<path id="Vector_2" fill-rule="evenodd" clip-rule="evenodd" d="M20.2754 0.537903C21.7223 0.537903 23.1691 0.537903 24.6159 0.537903C24.6159 7.74463 24.6159 14.9515 24.6159 22.1582C23.1691 22.1582 21.7223 22.1582 20.2754 22.1582C20.2754 14.9515 20.2754 7.74463 20.2754 0.537903Z" fill="var(--fill-0, white)"/>
</g>
<g id="Group_3">
<path id="Vector_3" fill-rule="evenodd" clip-rule="evenodd" d="M219.004 0.537903C219.004 1.71208 219.004 2.88614 219.004 4.06031C214.816 4.01999 210.652 4.06056 206.509 4.18178C206.509 5.80124 206.509 7.42082 206.509 9.04027C210.28 9.04027 214.05 9.04027 217.821 9.04027C217.821 10.1334 217.821 11.2266 217.821 12.3198C214.05 12.3198 210.28 12.3198 206.509 12.3198C206.509 15.5992 206.509 18.8787 206.509 22.1582C205.15 22.1582 203.79 22.1582 202.432 22.1582C202.432 14.9515 202.432 7.74463 202.432 0.537903C207.956 0.537903 213.48 0.537903 219.004 0.537903Z" fill="var(--fill-0, white)"/>
</g>
<g id="Group_4">
<path id="Vector_4" fill-rule="evenodd" clip-rule="evenodd" d="M247.292 11.472C246.766 11.472 246.24 11.472 245.713 11.472C245.713 15.0349 245.713 18.5978 245.713 22.1607C244.355 22.1607 242.995 22.1607 241.636 22.1607C241.636 18.5978 241.636 15.0349 241.636 11.472C241.109 11.4922 240.582 11.4719 240.058 11.4113C237.755 7.84745 235.519 4.24415 233.35 0.601123C234.916 0.501402 236.472 0.521686 238.019 0.661854C239.729 3.6174 241.439 6.57307 243.149 9.52861C243.719 9.77275 244.157 9.65129 244.464 9.16423C246.091 6.30026 247.735 3.44589 249.396 0.601123C250.932 0.499944 252.467 0.520229 254 0.661854C251.794 4.29261 249.558 7.89604 247.292 11.472Z" fill="var(--fill-0, white)"/>
</g>
<g id="Group_5">
<path id="Vector_5" fill-rule="evenodd" clip-rule="evenodd" d="M199.399 22.1585H192.363L183.55 4.06056H182.958C182.958 4.06056 182.958 16.1258 182.958 22.1585C181.6 22.1585 180.24 22.1585 178.881 22.1585C178.881 14.9517 178.881 0.538147 178.881 0.538147H185.786L194.533 18.7575H195.322C195.322 18.7575 195.322 6.61127 195.322 0.538147C196.681 0.538147 198.041 0.538147 199.399 0.538147C199.399 7.74488 199.399 22.1585 199.399 22.1585Z" fill="var(--fill-0, white)"/>
</g>
<g id="Group_6">
<path id="Vector_6" fill-rule="evenodd" clip-rule="evenodd" d="M221.377 0.665833C222.78 0.665833 224.183 0.665833 225.586 0.665833C225.586 6.73895 225.586 12.8121 225.586 18.8852C229.444 18.8852 233.303 18.8852 237.161 18.8852C237.161 19.9784 237.161 21.0715 237.161 22.1647C231.899 22.1647 226.638 22.1647 221.377 22.1647C221.377 14.9984 221.377 7.83212 221.377 0.665833Z" fill="var(--fill-0, white)"/>
</g>
<g id="Group_7">
<path id="Vector_7" fill-rule="evenodd" clip-rule="evenodd" d="M0.0155423 3.45039C5.32051 5.15086 10.6256 6.85133 15.9306 8.55181C15.9732 10.444 15.9294 12.3266 15.799 14.1998C10.5767 15.9085 5.35944 17.6293 0.147071 19.362C-0.0282964 17.9449 -0.0282964 16.5279 0.147071 15.1108C4.02705 13.8624 7.92912 12.6883 11.8532 11.5884C11.8532 11.4669 11.8532 11.3454 11.8532 11.224C7.93149 10.0911 4.02955 8.89664 0.147071 7.64084C0.017147 6.25386 -0.0266917 4.85704 0.0155423 3.45039Z" fill="var(--fill-0, white)"/>
</g>
<g id="Group_8">
<path id="Vector_8" fill-rule="evenodd" clip-rule="evenodd" d="M44.4673 3.45038C44.5981 4.80517 44.6419 6.18183 44.5988 7.5801C40.6972 8.7946 36.7953 10.0092 32.8927 11.224C32.8743 11.4212 32.962 11.5629 33.1557 11.6491C36.9602 12.8404 40.7746 13.9943 44.5988 15.1108C44.6424 16.5302 44.5987 17.9472 44.4673 19.362C39.2637 17.6118 34.0465 15.9113 28.8153 14.2605C28.7715 12.3559 28.8154 10.4529 28.9468 8.5518C34.1134 6.82655 39.2868 5.12607 44.4673 3.45038Z" fill="var(--fill-0, white)"/>
</g>
<g id="Group_9">
<path id="Subtract" d="M119.717 0.532776C122.29 7.70416 127.595 22.1176 127.608 22.1529H123.333C123.319 22.1147 121.896 18.3105 121.295 16.4439C118.006 16.4236 114.718 16.4447 111.43 16.5054C110.692 18.3273 109.332 22.1331 109.325 22.1529H104.854C104.875 22.0951 110.222 7.70006 113.009 0.532776H119.717ZM116.886 3.44879C116.535 3.28688 116.184 3.28688 115.833 3.44879C114.762 6.59819 112.742 12.9234 112.742 12.9234H119.845C119.845 12.9234 117.893 6.56175 116.886 3.44879Z" fill="var(--fill-0, white)"/>
</g>
<path id="Subtract_2" d="M162.984 0.0546718C166.463 -0.230113 169.577 0.600205 172.323 2.54491C175.257 5.23468 176.55 8.49403 176.203 12.3222C176.057 16.2161 174.281 19.2734 170.876 21.4931C166.775 23.4615 162.653 23.5015 158.513 21.6142C155.156 19.566 153.335 16.6712 153.054 12.9297C152.479 8.64919 153.905 5.06614 157.328 2.18065C159.029 1.03003 160.915 0.32116 162.984 0.0546718ZM171.992 9.66112C170.89 5.25345 167.887 3.26966 162.982 3.70995C161.49 4.06537 160.197 4.75339 159.102 5.7744C157.214 8.13794 156.6 10.7701 157.262 13.6699C158.468 17.9014 161.427 19.7837 166.14 19.3174C168.143 18.9096 169.7 17.9179 170.808 16.3418C171.986 14.2422 172.38 12.0152 171.992 9.66112Z" fill="var(--fill-0, white)"/>
<path id="Subtract_3" d="M60.5176 0.540107C63.9375 0.519823 67.3571 0.539929 70.7764 0.600654C75.8921 1.07351 79.1152 3.60433 80.4444 8.19245C81.4057 12.1357 80.5727 15.6986 77.9454 18.8809C75.9843 20.7479 73.5943 21.8208 70.7764 22.0997C67.3571 22.1604 63.9375 22.1805 60.5176 22.1602V0.540107ZM64.6016 4.16901V18.6231C66.6626 18.6434 68.7232 18.6233 70.7833 18.5626C72.2794 18.3474 73.5729 17.7605 74.6631 16.8018C76.048 15.1923 76.7279 13.3493 76.7022 11.2745C76.6293 7.48456 74.6129 5.13594 70.6524 4.22956C68.6361 4.16883 66.6189 4.14873 64.6016 4.16901Z" fill="var(--fill-0, white)"/>
<g id="Group_10">
<path id="Subtract_4" d="M83.6836 0.540108C87.7613 0.519824 91.8389 0.539924 95.9161 0.600655C100.016 0.905327 102.295 2.93 102.755 6.6739C102.769 9.17004 101.454 10.628 98.8096 11.0469C98.2855 11.1075 97.7593 11.1276 97.2315 11.1075V11.9581C98.2075 11.9106 99.1721 11.9708 100.125 12.1397C101.08 12.5857 101.671 13.2947 101.9 14.2657C101.966 16.8969 101.988 19.5284 101.966 22.1602H98.1514C98.1734 19.9333 98.1517 17.7067 98.086 15.4805C97.811 14.5993 97.1752 14.1531 96.1788 14.1436C93.3957 14.0225 90.5895 13.9823 87.7608 14.0225V22.1602H83.6836V0.540108ZM87.8926 4.18171V10.4981C90.4797 10.5184 93.067 10.4983 95.6534 10.4376C97.7858 9.92019 98.7722 8.64466 98.6124 6.6114C98.207 5.12376 97.1768 4.31353 95.5215 4.18171H87.8926Z" fill="var(--fill-0, white)"/>
</g>
</g>
</svg>
