<svg preserveAspectRatio="none" width="100%" height="100%" overflow="visible" style="display: block;" viewBox="0 0 181.656 32.8707" fill="none" xmlns="http://www.w3.org/2000/svg">
<g id="Group">
<path id="Vector" fill-rule="evenodd" clip-rule="evenodd" d="M21.2516 28.9967C16.397 34.162 8.19196 34.162 3.338 28.9967C-0.73683 24.6634 -1.12419 18.0362 2.41425 13.2596L12.1964 0.0490489C12.2078 0.0338197 12.2226 0.021459 12.2396 0.0129456C12.2567 0.0044322 12.2754 0 12.2945 0C12.3135 0 12.3323 0.0044322 12.3493 0.0129456C12.3663 0.021459 12.3811 0.0338197 12.3926 0.0490489L22.1747 13.2596C25.7138 18.0387 25.3258 24.666 21.2516 28.9967ZM141.747 0.420689H142.283C144.462 0.420689 146.575 0.42006 148.653 0.418803C155.095 0.416916 161.208 0.414401 167.964 0.43641C170.546 0.445213 173.094 0.789814 175.486 1.85128C179.175 3.48625 181.081 6.38768 181.533 10.3468C181.777 12.4779 181.682 14.577 181.038 16.62C179.851 20.3886 177.11 22.5059 173.398 23.3888C171.684 23.7963 169.893 24.0396 168.134 24.0598C163.521 24.1164 159.478 24.1082 155.194 24.1H155.193C153.465 24.0962 151.698 24.0931 149.838 24.0937H149.382C149.263 24.0937 149.149 24.1412 149.064 24.2256C148.98 24.31 148.932 24.4246 148.932 24.544V32.0202C148.932 32.1395 148.885 32.2539 148.8 32.3383C148.716 32.4227 148.601 32.4702 148.482 32.4704H142.196C142.076 32.4704 141.961 32.4229 141.877 32.3383C141.792 32.2538 141.745 32.1391 141.745 32.0195V0.423204C141.745 0.423204 141.746 0.420689 141.747 0.420689ZM148.955 17.2193C148.955 17.352 149.058 17.4621 149.191 17.4715C149.332 17.4822 149.462 17.4916 149.593 17.4916C151.28 17.4916 152.886 17.4929 154.454 17.4935C158.709 17.4954 162.686 17.4979 167.265 17.4828C168.217 17.4803 169.177 17.3904 170.121 17.2527C172.603 16.8879 173.981 15.5774 174.353 13.3111C174.808 10.5298 173.711 8.4056 171.317 7.61705C170.488 7.34225 169.587 7.158 168.717 7.14857C163.175 7.10266 158.386 7.09134 153.116 7.07877H153.111L149.543 7.06996C149.41 7.06996 149.279 7.08506 149.146 7.10141C149.094 7.10739 149.045 7.13231 149.01 7.17146C148.975 7.21061 148.955 7.26129 148.955 7.31395V17.2193ZM31.76 0.452759C31.7121 0.458562 31.6679 0.481611 31.6357 0.5176C31.6035 0.553588 31.5856 0.600057 31.5852 0.648326V32.0711C31.5852 32.3207 31.787 32.522 32.036 32.522H56.375C58.6344 32.5201 60.8756 32.3459 63.067 31.756C68.2907 30.3487 71.955 27.2473 73.4711 21.9469C74.5187 18.2846 74.4936 14.5795 73.4327 10.9102C72.2568 6.83981 69.7075 3.94152 65.8559 2.18205C63.1393 0.938847 60.253 0.454646 57.3032 0.440812C50.7778 0.412514 44.9868 0.416287 38.8463 0.42006C36.6636 0.421318 34.4369 0.423204 32.1172 0.423204C31.9989 0.423204 31.8813 0.437667 31.76 0.452759ZM39.1708 25.8501C39.1016 25.8456 39.0293 25.8406 38.9507 25.8375C38.9513 25.8375 38.952 25.8372 38.9525 25.8367C38.9529 25.8363 38.9532 25.8356 38.9532 25.835V7.33848C38.9532 7.20642 39.0563 7.09763 39.1884 7.09009C39.3688 7.0794 39.5386 7.06934 39.7103 7.06934L45.4792 7.06871H45.4981C49.0434 7.06871 52.4039 7.06745 56.3486 7.06871C58.2451 7.06871 60.1216 7.20705 61.9075 7.9409C64.7863 9.1231 66.3294 11.3397 66.8067 14.3424C67.1469 16.4867 67.0589 18.6216 66.2571 20.6672C65.2007 23.3586 63.1041 24.8427 60.3624 25.4356C59.164 25.6977 57.9418 25.8357 56.7152 25.8475C52.2102 25.8771 48.4215 25.8727 44.3046 25.8689H44.3002C42.7733 25.867 41.2006 25.8658 39.5298 25.8658C39.4141 25.8658 39.2984 25.8582 39.1708 25.8494V25.8501ZM91.3639 22.6034H91.3689C95.943 22.604 100.279 22.6046 104.938 22.5946C105.081 22.5946 105.216 22.6625 105.301 22.7769L112.346 32.2893C112.431 32.4044 112.566 32.4717 112.708 32.4717H120.435C120.805 32.4717 121.017 32.0503 120.797 31.7529L113.748 22.2355C113.565 21.9878 113.679 21.6318 113.967 21.5231C114.448 21.3407 114.917 21.1288 115.376 20.8911C115.923 20.6081 116.464 20.2698 116.939 19.9044C117.416 19.5408 117.855 19.1304 118.25 18.6795C118.649 18.225 118.997 17.7289 119.29 17.1998C119.597 16.6477 119.847 16.0616 120.038 15.4605C120.579 13.7689 120.68 12.0208 120.516 10.26C120.153 6.38579 118.311 3.53655 114.718 1.90348C112.112 0.718756 109.339 0.439554 106.524 0.437039C100.178 0.428864 94.188 0.43075 88.0392 0.431379L80.9315 0.432637H80.6863C80.5668 0.432637 80.4522 0.480053 80.3677 0.564472C80.2832 0.648891 80.2356 0.763411 80.2354 0.882881V32.0202C80.2354 32.2692 80.4373 32.471 80.6863 32.471H86.9256C87.174 32.471 87.3758 32.2698 87.3758 32.0202V22.8423C87.3758 22.7229 87.4701 22.6235 87.5902 22.616H87.5915C87.7179 22.609 87.8204 22.6034 87.9229 22.6034H91.3639ZM87.6229 16.4295L87.4117 16.4182C87.4104 16.4182 87.4098 16.4169 87.4098 16.4157V7.10266C87.4098 6.98633 87.501 6.89012 87.6179 6.88257C87.7613 6.87377 87.8965 6.86559 88.0311 6.86559C89.4101 6.86559 90.7583 6.86434 92.0889 6.86308C96.9869 6.85931 101.645 6.85616 106.719 6.8788C107.736 6.88383 108.774 6.98507 109.76 7.21208C112.283 7.79564 113.434 9.34319 113.355 11.8654C113.279 14.238 111.981 15.7082 109.492 16.1729C108.691 16.3213 107.866 16.4226 107.051 16.4245C101.693 16.4433 96.7775 16.4421 91.5877 16.4408H87.8852C87.8028 16.4408 87.721 16.4358 87.6229 16.4295ZM133.963 0.469738C134.211 0.469738 134.413 0.670964 134.413 0.919982V6.40277C134.413 6.52219 134.366 6.63671 134.281 6.72114C134.197 6.80558 134.082 6.85302 133.963 6.85302H127.57C127.451 6.85302 127.336 6.80558 127.252 6.72114C127.167 6.63671 127.12 6.52219 127.12 6.40277V0.919982C127.12 0.671593 127.322 0.469738 127.57 0.469738H133.963ZM127.57 13.5111C127.451 13.5111 127.336 13.5585 127.252 13.643C127.167 13.7274 127.12 13.8419 127.12 13.9613V32.0277C127.12 32.2767 127.322 32.4786 127.57 32.4786H133.963C134.211 32.4786 134.413 32.2773 134.413 32.0277V13.9613C134.413 13.8419 134.366 13.7274 134.281 13.643C134.197 13.5585 134.082 13.5111 133.963 13.5111H127.57Z" fill="var(--fill-0, white)"/>
</g>
</svg>
