<svg preserveAspectRatio="none" width="100%" height="100%" overflow="visible" style="display: block;" viewBox="0 0 215 33" fill="none" xmlns="http://www.w3.org/2000/svg">
<g id="easeflow" clip-path="url(#clip0_9804_33630)">
<path id="Vector" fill-rule="evenodd" clip-rule="evenodd" d="M31.768 2.42133C33.7149 3.24529 35.46 4.42453 36.9607 5.92846L36.9639 5.92539C38.4645 7.42932 39.6412 9.18141 40.4633 11.1295C41.316 13.1511 41.747 15.2921 41.747 17.5036C41.747 19.7151 41.316 21.8591 40.4633 23.8776C39.6412 25.8288 38.4645 27.5808 36.9639 29.0817C35.4632 30.5827 33.7179 31.765 31.771 32.5888C29.7539 33.4434 27.6145 33.8753 25.4108 33.8753H16.4465C14.246 33.8753 12.1096 33.4404 10.0985 32.5888C8.15162 31.765 6.40645 30.5857 4.90579 29.0817C3.40818 27.5778 2.22842 25.8258 1.40626 23.8776C1.09146 23.1304 0.831669 22.3523 0.629949 21.5651H2.79689C2.94666 22.0767 3.12698 22.5789 3.33176 23.0628C4.05001 24.7629 5.07693 26.2913 6.38505 27.6023C7.69316 28.9132 9.21829 29.9424 10.9146 30.6622C12.6689 31.4065 14.5363 31.7832 16.4588 31.7832H25.4108C27.3333 31.7832 29.2007 31.4065 30.9551 30.6622C32.6513 29.9424 34.1764 28.9132 35.4845 27.6023C36.7926 26.2913 37.8197 24.7629 38.5379 23.0628C39.2806 21.3048 39.6565 19.4332 39.6565 17.5066C39.6565 15.58 39.2806 13.7085 38.5379 11.9503C37.8197 10.2504 36.7926 8.72195 35.4845 7.41098C34.1764 6.10001 32.6513 5.07084 30.9551 4.35104C29.2007 3.60673 27.3333 3.22998 25.4108 3.22998H16.4588C14.5363 3.22998 12.6689 3.60673 10.9146 4.35104C9.21522 5.07084 7.69316 6.10001 6.38505 7.41098C5.07693 8.72502 4.05001 10.2504 3.33176 11.9503C3.12393 12.4343 2.94361 12.9397 2.79384 13.4512H0.626894C0.828614 12.661 1.0884 11.8829 1.40626 11.1325C2.22842 9.18137 3.40511 7.43239 4.90579 5.92846C6.40645 4.42453 8.15468 3.24529 10.0985 2.42133C12.1096 1.56982 14.246 1.13489 16.4465 1.13489H25.4078C27.6145 1.13489 29.7539 1.56676 31.768 2.42133ZM25.8289 24.108C27.6352 23.9976 28.4146 22.5642 28.3748 21.2807V21.2839C28.335 19.9697 27.4487 18.5578 25.5997 18.5578H0.15862C0.137226 18.2085 0.125 17.8594 0.125 17.5102C0.125 17.161 0.137226 16.8087 0.15862 16.4626H25.5997C27.4579 16.4626 28.3412 15.0536 28.3748 13.7427C28.4084 12.444 27.6108 11.0013 25.7708 10.9033C25.652 10.8941 25.5665 10.8941 25.448 10.8941H25.4469H16.6935V8.79897H25.4469C27.9317 8.79897 30.227 9.83735 31.9109 11.7211C33.0969 13.0474 33.8548 14.7474 34.0504 16.5086C34.3715 19.4399 33.2802 22.2211 31.0521 24.1354C29.4935 25.477 27.4273 26.2153 25.2391 26.2153H16.6599V24.1202H25.4132C25.5538 24.1202 25.6914 24.1172 25.8289 24.108Z" fill="var(--fill-0, white)"/>
<path id="Vector_2" d="M63.0775 8.46002H62.5597C59.2749 8.46002 56.75 9.42486 55.0555 11.33C53.6673 12.8891 52.9043 15.0761 52.9043 17.4836C52.9043 22.8867 56.7837 26.5164 62.5597 26.5164H63.3838C67.5972 26.5164 70.6797 24.7981 72.1107 21.6677H69.3529C68.0966 23.5116 66.1937 24.3722 63.3838 24.3722H62.5597C58.6406 24.3722 56.0574 22.3477 55.466 18.816C55.4538 18.7487 55.4722 18.6813 55.5181 18.6292C55.561 18.5771 55.6254 18.5465 55.6928 18.5465H72.6654V17.4744C72.6654 11.912 68.9914 8.46002 63.0805 8.46002H63.0775ZM70.0637 16.3227C70.0208 16.3748 69.9565 16.4024 69.8891 16.4024H55.6835C55.6162 16.4024 55.5518 16.3717 55.5089 16.3227C55.466 16.2707 55.4476 16.2033 55.4568 16.139C56.039 12.4143 58.3617 10.6041 62.5597 10.6041H63.0775C67.156 10.6041 69.5888 12.5185 70.119 16.142C70.1281 16.2094 70.1098 16.2737 70.0669 16.3258L70.0637 16.3227Z" fill="var(--fill-0, white)"/>
<path id="Vector_3" d="M124.835 8.46002H124.317C121.033 8.46002 118.508 9.42486 116.813 11.33C115.425 12.8891 114.662 15.0761 114.662 17.4836C114.662 22.8867 118.541 26.5164 124.317 26.5164H125.142C129.355 26.5164 132.437 24.7981 133.868 21.6677H131.111C129.854 23.5116 127.952 24.3722 125.142 24.3722H124.317C120.398 24.3722 117.815 22.3477 117.224 18.816C117.211 18.7487 117.23 18.6813 117.276 18.6292C117.319 18.5771 117.383 18.5465 117.451 18.5465H134.423V17.4744C134.423 11.912 130.749 8.46002 124.838 8.46002H124.835ZM131.822 16.3227C131.779 16.3748 131.714 16.4024 131.647 16.4024H117.441C117.374 16.4024 117.309 16.3717 117.267 16.3227C117.224 16.2707 117.205 16.2033 117.215 16.139C117.797 12.4143 120.122 10.6041 124.317 10.6041H124.835C128.911 10.6041 131.347 12.5185 131.877 16.142C131.886 16.2094 131.867 16.2737 131.825 16.3258L131.822 16.3227Z" fill="var(--fill-0, white)"/>
<path id="Vector_4" d="M110.007 17.2504C108.592 16.4601 107.081 16.3744 104.197 16.3744H103.306C99.5981 16.3744 98.014 15.5351 98.014 13.5686C98.014 12.5058 98.7401 11.5777 99.9566 11.0876C101.069 10.6373 102.224 10.5761 103.306 10.5761H104.21C106.483 10.5761 107.443 11.0845 108.328 11.9605C109.073 12.6987 109.26 13.5258 109.299 14.0036H111.754C111.692 12.6896 111.113 11.4 110.145 10.4382C109.223 9.5224 107.464 8.42889 104.326 8.42889H103.306C102.102 8.42889 100.327 8.49937 98.8444 9.09972C96.871 9.89915 95.6453 11.5348 95.5657 13.4706C95.489 15.3268 96.4175 16.9043 98.0445 17.6915C99.5031 18.399 100.689 18.5184 102.794 18.5184H104.201C106.811 18.5184 107.712 18.5981 108.653 19.125C109.615 19.664 110.09 20.6197 109.924 21.6795C109.728 22.9262 108.733 23.8482 107.259 24.1421C107.182 24.1574 107.109 24.1666 107.017 24.182C106.027 24.3289 105.383 24.378 104.443 24.378C104.115 24.378 103.79 24.3718 103.462 24.3596C103.064 24.3443 102.653 24.3229 102.209 24.2892C99.0435 24.0594 98.0569 22.1849 97.9497 20.9565H95.4922C95.6087 23.4223 97.5758 26.1238 101.746 26.4272C102.307 26.4669 102.886 26.4915 103.275 26.5037C103.597 26.5129 103.916 26.519 104.201 26.519H104.28C106.529 26.519 107.923 26.2525 107.979 26.2434C110.36 25.7685 112.011 24.1483 112.293 22.0134C112.557 20.0101 111.68 18.1845 110.007 17.2473V17.2504Z" fill="var(--fill-0, white)"/>
<path id="Vector_5" d="M84.5115 8.47653H83.7608C79.7561 8.47653 77.035 10.4369 76.0697 14.0083H78.6375C79.4434 11.6988 81.1748 10.6206 84.0703 10.6206H84.4686C88.2714 10.6206 90.5786 12.7004 90.643 16.18C90.643 16.2413 90.6215 16.3025 90.5786 16.3454C90.5357 16.3883 90.4776 16.4128 90.4162 16.4128L80.9356 16.4251C78.0309 16.4251 76.2628 17.4634 75.5335 19.6015C74.8808 21.5158 75.5826 23.6476 77.323 25.0321C77.4211 25.1086 77.5191 25.1884 77.6233 25.2587L77.654 25.2801C77.7827 25.3689 77.9174 25.4517 78.0553 25.5314C78.1074 25.5621 78.1626 25.5895 78.2177 25.6202C78.2821 25.6539 78.3494 25.6875 78.42 25.7212C78.8183 25.9112 79.2535 26.0675 79.713 26.1837C80.8713 26.4779 82.051 26.5145 82.9519 26.5145C85.6269 26.5145 87.9557 25.8499 89.6869 24.588C89.7789 24.5205 89.8892 24.4838 90.0027 24.4838C90.2968 24.4838 90.5357 24.7227 90.5389 25.0168V26.1747L92.8002 26.1715V16.3148C92.8002 11.5487 89.549 8.4704 84.5207 8.4704L84.5115 8.47653ZM85.8783 24.055C84.6525 24.3399 83.7333 24.3736 83.148 24.3736C81.5332 24.3736 80.3964 24.1928 79.5845 23.8131C78.4352 23.3566 77.7213 22.4041 77.7213 21.3289C77.7213 20.4928 78.0094 19.8219 78.5701 19.341C78.61 19.3043 78.6529 19.2674 78.6988 19.2368C79.2842 18.7957 80.1115 18.5631 81.0858 18.5631L81.6282 18.5569H90.407C90.4684 18.5569 90.5297 18.5813 90.5726 18.6274C90.6155 18.6703 90.64 18.7316 90.6369 18.7927C90.5694 21.5218 88.924 23.3414 85.8783 24.055Z" fill="var(--fill-0, white)"/>
<path id="Vector_6" d="M153.586 1.13489H151.135V26.1903H153.586V1.13489Z" fill="var(--fill-0, white)"/>
<path id="Vector_7" d="M166.658 8.4704H166.22C159.102 8.4704 156.564 13.12 156.564 17.4726C156.564 21.825 159.102 26.4717 166.22 26.4717H166.658C173.776 26.4717 176.313 21.822 176.313 17.4695C176.313 13.117 173.776 8.4704 166.658 8.4704ZM166.658 24.3275H166.22C159.96 24.3275 159.019 20.0301 159.016 17.4695C159.025 11.2822 164.056 10.6115 166.22 10.6115H166.658C172.918 10.6115 173.858 14.9088 173.861 17.4695C173.858 20.0301 172.915 24.3275 166.658 24.3275Z" fill="var(--fill-0, white)"/>
<path id="Vector_8" d="M202.822 22.6399C202.703 23.5864 201.897 24.3 200.945 24.3H199.767C198.839 24.3 198.051 23.6355 197.899 22.7195L196.198 12.3114C195.978 10.9944 195.187 9.42306 192.674 9.42306C190.162 9.42306 189.356 10.9944 189.135 12.3084L187.435 22.7195C187.281 23.6355 186.497 24.3 185.565 24.3H184.389C183.435 24.3 182.628 23.5864 182.507 22.6369L181.094 8.79205H178.631L180.074 22.9095C180.325 24.925 182.051 26.4472 184.082 26.4472H185.694C187.673 26.4472 189.349 25.029 189.677 23.081L191.378 12.3635C191.489 11.7111 192.007 11.2731 192.665 11.2731C193.324 11.2731 193.838 11.7111 193.949 12.3666L195.647 23.081C195.975 25.0322 197.651 26.4503 199.63 26.4503H201.242C203.273 26.4503 204.999 24.931 205.25 22.9187L206.693 8.79512H204.23L202.814 22.646L202.822 22.6399Z" fill="var(--fill-0, white)"/>
<path id="Vector_9" d="M139.42 5.93462V8.55042C139.42 8.67598 139.316 8.78013 139.19 8.78013H135.908V10.9242H139.224C139.349 10.9242 139.453 11.0284 139.453 11.154V26.1873H141.905V11.5368C141.905 11.1999 142.181 10.9242 142.518 10.9242H148.686V8.78013H142.168C142.043 8.78013 141.939 8.67598 141.939 8.55042V5.87028C141.939 4.40617 143.127 3.21775 144.592 3.21775H148.686V1.13489H144.218C141.568 1.13489 139.42 3.28206 139.42 5.93156V5.93462Z" fill="var(--fill-0, white)"/>
<path id="Vector_10" d="M208.264 9.28235H209.091C209.229 9.28235 209.343 9.3957 209.343 9.53355V12.0912H209.891V9.53355C209.891 9.3957 210.005 9.28235 210.142 9.28235H210.975V8.80762H208.264V9.28235Z" fill="var(--fill-0, white)"/>
<path id="Vector_11" d="M214.738 8.80762H214.208C214.131 8.80762 214.066 8.85663 214.042 8.92707L213.332 11.0405C213.307 11.111 213.243 11.16 213.166 11.16C213.089 11.16 213.025 11.114 213 11.0405L212.286 8.92707C212.261 8.85663 212.197 8.80762 212.12 8.80762H211.594C211.499 8.80762 211.42 8.88724 211.42 8.98218V12.0942H211.934V9.58866L212.023 9.57337L212.823 11.8553C212.838 11.8982 212.881 11.9288 212.926 11.9288H213.406C213.451 11.9288 213.495 11.8982 213.51 11.8553L214.306 9.57337L214.394 9.58866V12.0942H214.912V8.98218C214.912 8.88724 214.833 8.80762 214.738 8.80762Z" fill="var(--fill-0, white)"/>
</g>
<defs>
<clipPath id="clip0_9804_33630">
<rect width="215" height="33" fill="white"/>
</clipPath>
</defs>
</svg>
