<svg preserveAspectRatio="none" width="100%" height="100%" overflow="visible" style="display: block;" viewBox="0 0 172 67" fill="none" xmlns="http://www.w3.org/2000/svg">
<g id="gede esports">
<path id="Path 0" fill-rule="evenodd" clip-rule="evenodd" d="M32.5169 7.01314C33.5489 6.99918 35.0075 7.06897 35.7368 7.15272C36.4798 7.22251 37.8008 7.45981 38.6677 7.65522C39.5345 7.85064 40.8693 8.22752 41.6261 8.49272C42.3829 8.75793 43.7451 9.34418 44.6533 9.79085C45.5614 10.2375 46.8686 10.9773 47.5429 11.424C48.2171 11.8846 49.2491 12.6383 49.8133 13.099C50.3774 13.5736 51.4507 14.5646 52.18 15.3323C52.923 16.0861 53.5147 16.7979 53.5285 16.9096C53.5285 17.0213 50.7214 19.9665 41.0757 29.7652L40.3189 28.7602C39.9061 28.2019 39.2181 27.4621 38.8053 27.1271C38.3925 26.7921 37.7733 26.3454 37.4293 26.15C37.0853 25.9406 36.411 25.6475 35.9157 25.4661C35.4203 25.2986 34.5259 25.0892 33.9205 25.0054C33.1912 24.9077 32.4619 24.9077 31.7877 24.9915C31.2235 25.0752 30.3566 25.2567 29.8613 25.4102C29.3659 25.5638 28.5678 25.9267 28.0725 26.2198C27.5771 26.5129 26.6965 27.2388 26.1048 27.839C25.2517 28.7044 24.9214 29.165 24.4261 30.2119C24.0821 30.9238 23.7243 31.9567 23.3941 33.5898L21.1649 35.8511C19.9265 37.0933 18.8808 38.0844 18.812 38.0425C18.7569 38.0146 18.6468 37.4702 18.5643 36.8421C18.468 36.1721 18.4405 34.8461 18.4817 33.7294C18.5368 32.18 18.6193 31.51 18.9083 30.519C19.1009 29.835 19.5688 28.6346 19.9541 27.8669C20.3256 27.0992 21.0549 25.9406 21.564 25.2846C22.0869 24.6425 22.8987 23.7771 23.3941 23.3583C23.8894 22.9536 24.715 22.3394 25.2517 22.0044C25.7745 21.6694 26.7377 21.1669 27.3845 20.9017C28.0312 20.6365 29.187 20.2875 29.9576 20.134C30.8107 19.9525 31.9115 19.8408 32.7096 19.8408C33.4526 19.8408 34.5809 19.9246 35.2277 20.0502C35.8744 20.1619 36.8238 20.3992 37.3605 20.5806C37.8971 20.7621 38.7915 21.1529 39.3557 21.4461C39.9198 21.7392 40.539 22.0881 41.0757 22.479L46.5797 16.9375L45.4789 16.1698C44.8734 15.7371 43.7864 15.0811 43.0709 14.6902C42.3553 14.3133 41.3646 13.8388 40.8693 13.6433C40.3739 13.434 39.4107 13.1129 38.7365 12.9315C38.0622 12.7361 37.1541 12.5267 36.7413 12.4429C36.3285 12.3592 35.2689 12.2336 34.4021 12.1777C33.5077 12.1079 32.1317 12.1079 31.2373 12.1638C30.3704 12.2336 29.0357 12.415 28.2789 12.5825C27.5221 12.7361 26.3387 13.0571 25.6645 13.2944C24.9902 13.5317 23.8344 14.0202 23.1189 14.3831C22.4033 14.7321 21.3713 15.3183 20.8485 15.6673C20.3118 16.0163 19.3211 16.77 18.6469 17.3423C17.9726 17.9146 16.9269 18.9475 16.3214 19.6315C15.7297 20.3294 14.8766 21.46 14.4225 22.144C13.9685 22.8279 13.2942 24.0283 12.9365 24.7961C12.5787 25.5638 12.0558 26.8758 11.7944 27.7273C11.5329 28.5788 11.2027 29.8908 11.0651 30.6586C10.8862 31.6775 10.8174 32.7383 10.8174 34.5669C10.8312 36.7165 10.8862 37.3306 11.1889 38.8242C11.3816 39.7873 11.7393 41.1413 11.987 41.8252C12.2209 42.5092 12.5374 43.3327 12.964 44.1981L11.1201 46.0406C10.1157 47.0596 9.23501 47.8413 9.15245 47.7854C9.08365 47.7296 8.73965 47.0596 8.38189 46.2919C8.02413 45.5242 7.50125 44.24 7.22605 43.4304C6.95085 42.6208 6.60685 41.4623 6.45549 40.8481C6.31789 40.234 6.11149 39.0754 5.98765 38.2658C5.87757 37.4283 5.78125 35.7813 5.78125 34.4273C5.78125 33.0036 5.86381 31.4681 6.00141 30.5888C6.11149 29.7792 6.37293 28.495 6.55181 27.7273C6.74445 26.9596 7.12973 25.7313 7.39117 25.0054C7.65261 24.2796 8.21677 22.9954 8.62957 22.144C9.04237 21.2925 9.67533 20.1758 10.0056 19.6315C10.3496 19.1011 11.0376 18.124 11.5329 17.4679C12.0421 16.8119 13.0328 15.6813 13.7621 14.9554C14.4913 14.2296 15.6609 13.1827 16.3765 12.6383C17.092 12.094 18.1515 11.3681 18.7157 11.0052C19.2798 10.6563 20.4632 10.0281 21.3301 9.60939C22.1969 9.19064 23.5041 8.66022 24.2197 8.40897C24.9352 8.17168 26.091 7.85064 26.7653 7.68314C27.4395 7.5296 28.5953 7.30627 29.3109 7.20856C30.0264 7.11085 31.4712 7.0271 32.5032 7.01314H32.5169ZM156.811 18.8777C158.476 18.8777 160.113 18.9336 160.457 19.0173C160.801 19.1011 161.421 19.3244 161.833 19.5338C162.287 19.7571 163.058 20.3433 163.76 21.0413C164.64 21.8927 165.026 22.3952 165.755 23.9586L165.851 31.0773C165.893 34.9996 166.003 38.545 166.085 38.9638C166.154 39.3825 166.223 39.9688 166.237 40.7783H161.283L161.187 40.3596C161.118 40.1223 161.063 39.9408 161.049 39.9408C161.022 39.9408 160.595 40.1781 159.15 40.9877L156.123 41.0296C153.632 41.0575 152.958 41.0296 152.339 40.8342C151.926 40.7086 151.293 40.4573 150.935 40.2758C150.564 40.0944 149.793 39.4523 149.202 38.8661C148.569 38.21 147.977 37.4702 147.757 37.0096C147.523 36.535 147.317 35.8092 147.234 35.1252C147.124 34.3296 147.124 33.7015 147.234 32.9338C147.317 32.3056 147.537 31.524 147.743 31.1192C147.963 30.6725 148.527 29.9746 149.16 29.3604C149.848 28.6765 150.523 28.174 151.169 27.8529C151.692 27.5877 152.477 27.3086 152.889 27.2388C153.302 27.155 155.242 27.0992 160.733 27.0992V25.2148L159.219 23.7492H154.128L152.545 25.2567L150.275 24.5727C149.023 24.1958 147.977 23.8469 147.936 23.805C147.895 23.7631 147.991 23.5119 148.142 23.2188C148.294 22.9396 149.009 22.1021 149.725 21.3623C150.44 20.6225 151.307 19.8688 151.651 19.6873C151.995 19.5198 152.614 19.2686 153.027 19.129C153.66 18.9196 154.293 18.8777 156.811 18.8777ZM153.027 32.5429C152.408 33.2129 152.256 33.4781 152.229 33.8969C152.201 34.3017 152.298 34.5669 152.614 35.0275C152.834 35.3486 153.233 35.7394 153.481 35.8929C153.866 36.1442 154.169 36.1721 156.054 36.1721H158.187C159.467 35.2788 160.045 34.8461 160.279 34.6506C160.733 34.2877 160.733 34.2877 160.733 33.0036V31.7054H153.798L153.027 32.5429ZM56.363 21.0971C56.4318 21.0971 56.8171 21.7671 57.2161 22.6046C57.6014 23.4281 58.1105 24.6704 58.3582 25.3544C58.5921 26.0523 58.9361 27.2388 59.1288 28.0065C59.3077 28.7742 59.5553 30.1142 59.6654 30.9796C59.7755 31.845 59.8718 33.4083 59.8718 34.4692C59.8718 35.5161 59.803 36.9258 59.7205 37.5679C59.6517 38.224 59.459 39.3546 59.3214 40.0804C59.1701 40.8202 58.8261 42.1323 58.5371 43.0117C58.2619 43.905 57.5464 45.594 56.9547 46.7804C56.363 47.9808 55.4824 49.5163 54.987 50.2002C54.5054 50.8981 53.6248 52.0288 53.0331 52.7127C52.4414 53.3967 51.3957 54.4575 50.7214 55.0577C50.0334 55.6719 48.74 56.6629 47.8318 57.2771C46.9237 57.8913 45.4926 58.7288 44.667 59.1475C43.8277 59.5523 42.4104 60.1386 41.5022 60.4596C40.5941 60.7806 39.108 61.1854 38.1998 61.3809C37.2917 61.5623 35.7093 61.7717 34.691 61.8554C33.4939 61.9392 32.1729 61.9392 30.9758 61.8554C29.9576 61.7717 28.3614 61.5623 27.4257 61.3669C26.5038 61.1854 25.0865 60.7946 24.2609 60.5294C23.4491 60.2502 21.9768 59.6221 20.9998 59.1475C20.0091 58.659 18.6469 57.8773 17.9726 57.4167C17.2846 56.9561 16.2389 56.1744 15.6334 55.6719C15.028 55.1834 13.9547 54.1644 11.9595 52.0148L18.2616 45.6358C21.7291 42.1183 24.6049 39.2429 24.6462 39.2429C24.6875 39.2429 24.8801 39.5221 25.0728 39.8431C25.2792 40.1642 25.8709 40.8481 26.38 41.3506C26.9029 41.8531 27.7285 42.4813 28.2238 42.7604C28.7192 43.0396 29.5861 43.4165 30.1502 43.5979C31.0033 43.8631 31.4712 43.919 32.9022 43.919C34.4571 43.919 34.7323 43.8771 35.7918 43.5002C36.4385 43.2629 37.388 42.7883 37.9246 42.4394C38.4475 42.0904 39.2731 41.3646 39.7547 40.8342C40.3189 40.22 40.8142 39.4802 41.1582 38.7544C41.4472 38.1402 41.7224 37.4981 41.8462 37.0096H37.3742C34.9112 37.0096 32.9022 36.9677 32.9022 36.9119C32.9022 36.8561 34.003 35.6836 37.8008 31.845H42.3691C46.5934 31.845 46.9374 31.8729 47.0337 32.0963C47.1025 32.2219 47.1301 33.3804 47.1301 34.6367C47.1163 36.4931 47.0613 37.1492 46.8411 37.9867C46.676 38.5729 46.3457 39.5361 46.0981 40.1502C45.8504 40.7644 45.2862 41.8113 44.8597 42.4533C44.4469 43.1094 43.7589 44.0167 43.3461 44.4633C42.9333 44.924 42.1077 45.6638 41.5022 46.1244C40.8968 46.585 39.7822 47.269 39.0254 47.6319C38.2686 48.0088 37.1816 48.4275 36.6174 48.5811C36.0533 48.7346 34.9662 48.9161 34.2094 49.0138C33.2462 49.1115 32.4344 49.1254 31.5262 49.0277C30.8107 48.944 29.7237 48.7625 29.1182 48.595C28.5128 48.4415 27.4257 48.0227 26.7102 47.6738C25.9947 47.3248 25.2241 46.9061 24.6187 46.4315L19.156 52.0148L20.1467 52.7546C20.6833 53.1454 21.8529 53.8433 22.7198 54.304C23.5867 54.7646 24.8251 55.3229 25.4718 55.5463C26.1185 55.7696 27.1918 56.0906 27.8798 56.2442C28.5541 56.4117 29.7649 56.6211 30.563 56.7048C31.4299 56.8025 32.6958 56.8444 33.7278 56.7886C34.6773 56.7467 35.9982 56.6071 36.6862 56.4815C37.3605 56.3558 38.4337 56.1046 39.0529 55.9092C39.6859 55.7277 40.7729 55.3229 41.4609 55.0158C42.1627 54.7088 43.236 54.1644 43.8414 53.8154C44.4469 53.4525 45.3963 52.8244 45.9329 52.4196C46.4833 52.0008 47.3777 51.2471 47.9144 50.7306C48.451 50.2142 49.2766 49.3208 49.7582 48.7346C50.2261 48.1623 50.859 47.3108 51.1617 46.8502C51.4644 46.3896 52.0011 45.4823 52.3451 44.8263C52.6891 44.1842 53.1982 43.0117 53.4734 42.244C53.7486 41.4763 54.1339 40.1921 54.3128 39.3825C54.4917 38.5869 54.6981 37.1352 54.7806 36.1721C54.8907 34.9438 54.8907 33.9527 54.7944 32.8221C54.7118 31.9427 54.5467 30.6865 54.4229 30.0304C54.299 29.3883 54.0238 28.2856 53.7899 27.5877C53.5697 26.9038 53.2257 25.9686 52.6478 24.7123L54.4366 22.9117C55.4136 21.9206 56.2805 21.0971 56.363 21.0971ZM100.257 43.9888H162.865L166.237 47.4086V56.7606L164.517 58.5194L91.107 58.5054L91.0382 53.2711L100.257 43.9888ZM110.412 47.604C110.013 48.1204 109.958 48.274 109.958 49.0836C109.958 49.6698 110.055 50.1863 110.206 50.5073C110.33 50.7865 110.591 51.0936 110.784 51.1913C110.976 51.275 111.719 51.5263 112.435 51.7356C113.151 51.945 114.169 52.2242 114.678 52.3777L115.6 52.6429C115.614 53.969 115.545 54.1783 115.297 54.4296C115.008 54.7088 114.843 54.7367 113.467 54.7367C112.022 54.7367 111.94 54.7227 111.609 54.3738L111.265 54.0248L109.655 54.5273C110.605 55.6161 111.059 56.0069 111.279 56.1046C111.568 56.2442 112.242 56.2861 113.618 56.2442C115.49 56.2163 115.572 56.2023 116.054 55.8254C116.343 55.6161 116.728 55.2113 116.921 54.9181C117.251 54.4296 117.265 54.3319 117.182 53.2431C117.1 52.28 117.031 52.0288 116.728 51.6658C116.412 51.3169 116.013 51.1494 114.017 50.5492C112.738 50.1723 111.637 49.7815 111.582 49.6838C111.527 49.5861 111.472 49.3348 111.472 49.1254C111.472 48.9161 111.623 48.5531 111.816 48.3158C112.16 47.9111 112.174 47.8971 113.508 47.9111C114.76 47.9111 114.871 47.925 115.187 48.274C115.517 48.609 115.572 48.6229 116.26 48.4694C116.659 48.3856 116.976 48.2461 116.976 48.1483C116.976 48.0506 116.783 47.7156 116.522 47.4086C116.274 47.1015 115.834 46.7525 115.559 46.6129C115.173 46.4315 114.692 46.3617 113.563 46.3617C112.284 46.3617 111.995 46.4175 111.472 46.6967C111.128 46.8781 110.66 47.2829 110.412 47.604ZM129.429 46.8642C129.208 47.0317 128.851 47.4225 128.644 47.7156L128.259 48.2461V54.3877C128.851 55.2531 129.25 55.6719 129.511 55.8533C129.965 56.1883 130.075 56.2023 131.905 56.2023C133.722 56.2023 133.859 56.1884 134.245 55.8813C134.479 55.6998 134.85 55.3229 135.07 55.0438L135.483 54.5413V48.0506C134.52 47.0456 134.052 46.6688 133.804 46.5571C133.502 46.4315 132.841 46.3756 131.809 46.3756C130.956 46.3896 130.158 46.4315 130.048 46.4733C129.938 46.5152 129.663 46.6967 129.429 46.8642ZM155.972 47.3667C155.531 47.8413 155.394 48.1204 155.311 48.6648C155.256 49.0556 155.27 49.6558 155.352 49.9908C155.435 50.3817 155.641 50.7586 155.875 50.9819C156.151 51.2331 156.88 51.4983 158.462 51.9311C159.673 52.28 160.746 52.615 160.843 52.6988C160.939 52.7825 161.022 53.1315 161.022 53.4525C161.008 53.9131 160.925 54.1225 160.636 54.4017C160.279 54.7367 160.168 54.7506 158.737 54.7506C157.306 54.7367 157.21 54.7227 156.88 54.3738C156.536 54.0248 156.536 54.0248 155.82 54.2481C155.421 54.3598 155.091 54.5133 155.091 54.5692C155.105 54.625 155.311 54.9181 155.559 55.2252C155.807 55.5323 156.233 55.8952 156.508 56.0348C156.921 56.2302 157.389 56.2721 158.806 56.2721C160.058 56.2721 160.705 56.2163 160.98 56.0906C161.187 55.979 161.613 55.6021 161.943 55.2531L162.521 54.5971C162.521 52.7686 162.453 52.2242 162.315 51.945C162.205 51.7217 161.943 51.4425 161.737 51.3309C161.531 51.2331 160.457 50.8842 159.357 50.5631C158.256 50.2281 157.251 49.9071 157.127 49.8513C156.949 49.7536 156.88 49.5442 156.88 49.1533C156.88 48.7486 156.976 48.5113 157.224 48.2461C157.527 47.925 157.65 47.8971 158.875 47.8971C160.113 47.8971 160.21 47.925 160.567 48.274C160.925 48.6369 160.967 48.6369 161.558 48.4834C161.902 48.3856 162.232 48.2461 162.287 48.1763C162.343 48.1065 162.122 47.7575 161.806 47.3946C161.476 47.0317 161.022 46.6548 160.774 46.5571C160.485 46.4315 159.783 46.3756 158.847 46.3756C157.939 46.3756 157.21 46.4454 156.949 46.5571C156.728 46.6688 156.288 47.0177 155.972 47.3667ZM101.702 56.1325H107.757V54.7367H103.353V52.0846H107.481V50.5492H103.353V47.8971H107.757V46.5013H101.702V56.1325ZM119.453 56.1325H121.104V52.2242C124.007 52.2242 124.668 52.1684 124.929 52.0427C125.135 51.9311 125.507 51.624 125.755 51.3448C126.195 50.8423 126.195 50.8283 126.195 49.4046C126.195 48.1065 126.154 47.939 125.851 47.5202C125.658 47.269 125.314 46.934 125.067 46.7944C124.654 46.5292 124.365 46.5152 122.039 46.5152L119.453 46.5013V56.1325ZM137.891 56.1325H139.405L139.473 52.294L141.331 52.2242L143.189 56.1465L144.909 56.1325C143.519 53.3269 143.12 52.4475 143.12 52.3638C143.12 52.294 143.45 51.9171 143.849 51.5402L144.565 50.8563V47.9111L143.257 46.5711L137.905 46.4873L137.891 56.1325ZM146.835 47.8971L149.381 47.9669L149.449 56.1325H150.963L151.032 47.9669L153.577 47.8971V46.5013H146.835V47.8971ZM78.379 10.5027C80.5806 10.5027 82.7134 10.5586 83.1262 10.6283C83.5528 10.7121 84.2958 10.9773 84.7774 11.2146C85.3553 11.5077 86.0709 12.0521 86.7589 12.7221C87.3505 13.2944 88.2037 14.3273 88.644 14.9973C89.0981 15.6673 89.4558 16.2954 89.4558 16.3931C89.4696 16.4908 88.4926 16.8538 84.5022 18.0263L82.2318 15.6673L74.8702 15.6533L72.8062 17.6773V34.0086L73.4667 34.6506C73.8245 34.9996 74.306 35.4323 74.5262 35.5998C74.9252 35.8929 75.0491 35.9069 78.5166 35.9069C81.9841 35.9069 82.108 35.8929 82.507 35.5998C82.7409 35.4323 83.1675 35.0694 83.4565 34.7902C83.7454 34.5111 84.0619 34.1202 84.172 33.9108C84.3233 33.6177 84.3646 32.9198 84.3646 28.7742H78.035V23.6096H89.5934L89.6485 29.165C89.6897 34.5529 89.7035 34.7902 90.1301 37.6377C90.364 39.2569 90.5566 40.6248 90.5566 40.6806C90.5566 40.7365 89.387 40.7783 85.3278 40.7783L85.1902 39.6617L84.3371 40.234C83.8555 40.5411 83.2638 40.8621 82.9886 40.9319C82.6859 41.0296 80.8283 41.0715 73.5493 40.9877L72.3521 40.4015C71.3614 39.9129 70.9349 39.5779 69.8065 38.4473C68.7883 37.4144 68.348 36.8421 67.5086 35.1392L67.4673 26.2059C67.4398 18.0123 67.4536 17.1888 67.6737 16.3513C67.8251 15.765 68.1141 15.1788 68.4856 14.6763C68.8021 14.2575 69.6001 13.3921 70.2469 12.764C71.0312 11.9963 71.7329 11.4658 72.2971 11.1867C72.7649 10.9633 73.4392 10.7121 73.7694 10.6423C74.1134 10.5865 76.1912 10.5167 78.379 10.5027ZM127.709 10.4888C132.91 10.5027 134.74 10.5446 135.414 10.6842C135.91 10.7958 136.598 11.0192 136.928 11.1867C137.272 11.3681 137.946 11.8288 138.428 12.2196C138.909 12.6104 139.762 13.4758 140.327 14.1179C140.946 14.8438 141.469 15.6115 141.647 16.0721C141.95 16.8398 141.95 16.9236 141.991 25.2846C142.033 31.2308 141.991 33.9806 141.881 34.5669C141.799 35.0275 141.565 35.7254 141.359 36.1023C141.152 36.4931 140.327 37.4842 139.473 38.3496C138.62 39.215 137.671 40.0386 137.272 40.2479C136.9 40.4573 136.212 40.7225 135.758 40.8481C135.098 41.0156 134.121 41.0575 126.745 41.0575V35.195H120.691L120.677 22.9396C120.663 16.1977 120.705 10.6423 120.76 10.5865C120.829 10.5306 123.952 10.4888 127.709 10.4888ZM126.883 35.0554L134.245 35.0694L135.827 33.3804V18.1658L134.245 16.4908H126.883V35.0554ZM105.624 18.8777C107.963 18.8777 109.133 18.9196 109.614 19.0592C109.999 19.1569 110.632 19.4081 111.031 19.6175C111.431 19.8129 112.187 20.4131 112.724 20.9296C113.261 21.4461 113.88 22.1579 114.086 22.4929C114.306 22.8419 114.582 23.47 114.705 23.8888C114.884 24.5169 114.926 25.3963 114.912 32.4033H101.565L101.578 34.7065L103.078 36.1721H108.582L109.298 35.5858C109.683 35.2508 110.082 34.9298 110.178 34.8461C110.302 34.7483 111.018 34.9158 112.573 35.4044C113.783 35.7952 114.788 36.1721 114.788 36.2419C114.788 36.3256 114.582 36.7025 114.334 37.0794C114.086 37.4702 113.426 38.2519 112.862 38.8381C112.132 39.5779 111.554 40.0246 110.921 40.3317C110.44 40.569 109.752 40.8342 109.408 40.904C109.078 40.9877 107.413 41.0575 105.734 41.0575C103.986 41.0575 102.363 40.9877 101.95 40.904C101.551 40.8202 100.89 40.5829 100.478 40.3875C100.01 40.1642 99.2805 39.5779 98.5925 38.894C97.7531 38.0565 97.354 37.54 96.5422 35.8231V24.0981L96.9825 23.1908C97.2853 22.5767 97.7669 21.9346 98.4961 21.1948C99.0878 20.5806 99.8584 19.9246 100.189 19.7292C100.533 19.5338 101.152 19.2546 101.565 19.129C102.198 18.9196 102.886 18.8777 105.624 18.8777ZM101.578 25.1869L101.565 27.7971H109.821V25.145L108.307 23.7492H103.064L101.578 25.1869ZM121.104 47.8971H122.617C124.007 47.8971 124.159 47.925 124.406 48.2181C124.626 48.4554 124.681 48.7206 124.681 49.3627C124.681 50.0467 124.613 50.27 124.365 50.5213C124.09 50.8144 123.938 50.8423 121.104 50.8283V47.8971ZM131.892 47.8971C133.116 47.8971 133.24 47.925 133.557 48.2461C133.901 48.595 133.901 48.595 133.901 51.3588C133.901 54.0248 133.887 54.1225 133.584 54.4296C133.309 54.7227 133.158 54.7506 131.878 54.7506C130.474 54.7367 130.461 54.7367 130.117 54.3179C129.773 53.9131 129.773 53.8852 129.8 48.7206L130.185 48.3158C130.571 47.9111 130.626 47.8971 131.892 47.8971ZM140.946 47.8971C141.978 47.8971 142.446 47.9529 142.679 48.1065C142.955 48.3019 142.982 48.4415 142.982 49.3627C142.982 50.2979 142.955 50.4375 142.679 50.619C142.432 50.7865 142.019 50.8283 139.473 50.7586L139.432 49.5163C139.418 48.8323 139.432 48.1902 139.473 48.0925C139.515 47.9529 139.9 47.8971 140.946 47.8971Z" fill="var(--fill-0, white)"/>
</g>
</svg>
