<svg width="196" height="51" viewBox="0 0 196 51" fill="none" xmlns="http://www.w3.org/2000/svg">
<g clip-path="url(#clip0_9772_2195)">
<mask id="mask0_9772_2195" style="mask-type:alpha" maskUnits="userSpaceOnUse" x="0" y="0" width="75" height="51">
<path d="M74.0645 0H0V51H74.0645V0Z" fill="#D9D9D9"/>
</mask>
<g mask="url(#mask0_9772_2195)">
<path d="M26.4121 3.89209H4.79102V46.2972H26.4121V3.89209Z" fill="white"/>
<path d="M69.6549 24.9534H48.3184V46.0155H69.6549V24.9534Z" fill="white"/>
<path d="M5.35938 3.89141L5.35938 25.2344L48.317 25.2344V3.89141L5.35938 3.89141Z" fill="white"/>
<path d="M52.7868 25.0848L48.3379 20.7393L43.9357 25.1309L48.3846 29.4765L52.7868 25.0848Z" fill="white"/>
</g>
<path d="M77.9118 41.5509H75.0215V29.3893H78.3273L89.997 38.4659V29.3893H92.8873V41.5509H89.6357L77.9118 32.3673V41.5509ZM94.8063 37.0393C94.8063 33.7582 97.3353 32.296 102.682 32.296C108.048 32.296 110.577 33.7582 110.577 37.0393C110.577 40.3026 108.048 41.7649 102.682 41.7649C97.3353 41.7649 94.8063 40.3026 94.8063 37.0393ZM97.4979 37.0393C97.4979 38.8047 98.7263 39.518 102.682 39.518C106.657 39.518 107.885 38.8047 107.885 37.0393C107.885 35.274 106.657 34.5607 102.682 34.5607C98.7263 34.5607 97.4979 35.274 97.4979 37.0393ZM123.854 28.1768H126.564V41.5509H124.197L123.98 40.1778C122.156 40.9981 119.988 41.7292 117.73 41.7292C114.171 41.7292 112.13 40.4631 112.13 37.1463C112.13 33.5621 114.84 32.3673 118.814 32.3673C120.693 32.3673 122.409 32.5813 123.854 32.831V28.1768ZM114.822 37.0928C114.822 38.8226 115.797 39.518 118.145 39.518C119.934 39.518 121.885 39.0722 123.854 38.4481V34.8817C122.282 34.6855 120.313 34.525 118.633 34.525C116.194 34.525 114.822 35.2205 114.822 37.0928ZM136.143 39.6607C138.834 39.6607 140.966 39.3219 141.959 39.1435L142.519 41.0872C140.894 41.4796 138.256 41.7827 135.908 41.7827C130.832 41.7827 128.483 40.4631 128.483 37.0393C128.483 33.6691 131.085 32.3138 135.655 32.3138C139.9 32.3138 142.772 33.4016 142.772 36.4687C142.772 36.8432 142.736 37.4673 142.7 37.6813H131.139C131.428 39.304 132.819 39.6607 136.143 39.6607ZM135.565 34.1327C132.656 34.1327 131.392 34.6677 131.139 36.2547H140.117C139.936 34.7925 138.925 34.1327 135.565 34.1327ZM154.224 41.7827C147.378 41.7827 144.325 39.839 144.325 35.4701C144.325 31.1012 147.378 29.1575 154.224 29.1575C161.071 29.1575 164.124 31.1012 164.124 35.4701C164.124 39.839 161.071 41.7827 154.224 41.7827ZM154.224 39.3219C159.517 39.3219 161.197 38.1984 161.197 35.4701C161.197 32.7418 159.517 31.6184 154.224 31.6184C148.932 31.6184 147.215 32.7418 147.215 35.4701C147.215 38.1984 148.932 39.3219 154.224 39.3219ZM168.742 44.8498H166.032V32.5456H168.399L168.615 33.9187C170.458 33.0984 172.716 32.3673 175.046 32.3673C178.461 32.3673 180.466 33.6869 180.466 36.9502C180.466 40.481 177.846 41.7292 173.872 41.7292C172.048 41.7292 170.241 41.5152 168.742 41.2477V44.8498ZM174.559 34.5785C172.861 34.5785 170.801 35.0243 168.742 35.6663V39.2149C170.331 39.3932 172.319 39.5715 174.017 39.5715C176.455 39.5715 177.774 38.8761 177.774 37.0037C177.774 35.2918 176.853 34.5785 174.559 34.5785ZM195.356 39.09C195.356 41.1942 193.514 41.7827 189.07 41.7827C186.378 41.7827 183.813 41.4261 182.205 41.0694L182.657 39.3219C184.427 39.6428 186.866 39.9817 189.413 39.9817C192.051 39.9817 192.827 39.8212 192.827 39.0722C192.827 38.2876 192.123 38.1806 190.353 38.0558L186.053 37.8061C183.235 37.6456 182.025 36.9502 182.025 35.0065C182.025 32.7953 184.319 32.296 188.673 32.296C190.551 32.296 193.189 32.5813 194.724 32.831L194.309 34.5963C192.358 34.2754 190.172 34.0792 188.058 34.0792C185.385 34.0792 184.554 34.2219 184.554 34.9886C184.554 35.7376 185.204 35.8089 186.342 35.8803L190.732 36.1656C193.785 36.3439 195.356 37.0037 195.356 39.09Z" fill="white"/>
</g>
<defs>
<clipPath id="clip0_9772_2195">
<rect width="196" height="51" fill="white"/>
</clipPath>
</defs>
</svg>
