<svg preserveAspectRatio="none" width="100%" height="100%" overflow="visible" style="display: block;" viewBox="0 0 226.903 33.9244" fill="none" xmlns="http://www.w3.org/2000/svg">
<g id="g244">
<path id="polygon151" d="M144.799 8.83032e-09V3.73233H166.742L168.928 8.83032e-09H144.799Z" fill="var(--fill-0, #00FF00)"/>
<path id="polygon153" d="M144.799 15.0897V18.8221H166.742L168.928 15.0897H144.799Z" fill="var(--fill-0, #00FF00)"/>
<path id="polygon155" d="M144.799 30.1794V33.9117H166.742L168.928 30.1794H144.799Z" fill="var(--fill-0, #00FF00)"/>
<path id="path157" d="M217.199 10.5087V8.35748C217.199 7.25997 216.979 6.1732 216.552 5.15923C216.125 4.14526 215.5 3.22392 214.711 2.44786C213.922 1.6718 212.986 1.05619 211.955 0.636189C210.924 0.216188 209.82 2.66922e-07 208.704 0H193.059V33.9244H196.852V18.8661H203.959L212.815 33.9244H217.188L208.332 18.8661H208.693C209.809 18.8675 210.915 18.6524 211.947 18.233C212.979 17.8136 213.917 17.1983 214.707 16.4221C215.497 15.6459 216.124 14.7241 216.551 13.7094C216.979 12.6947 217.199 11.6071 217.199 10.5087ZM196.852 3.7324H208.704C209.95 3.73524 211.144 4.22344 212.025 5.09019C212.906 5.95695 213.402 7.13171 213.405 8.35748V10.5087C213.402 11.7344 212.906 12.9092 212.025 13.7759C211.144 14.6427 209.95 15.1309 208.704 15.1337H196.852V3.7324Z" fill="var(--fill-0, #00FF00)"/>
<path id="path159" d="M24.1404 10.5087V8.35748C24.1404 7.25997 23.9207 6.1732 23.4938 5.15923C23.0669 4.14526 22.4411 3.22392 21.6523 2.44786C20.8634 1.6718 19.9269 1.05619 18.8963 0.636189C17.8656 0.216188 16.7609 -2.0472e-07 15.6453 8.83055e-09H0V33.9244H3.7938V18.8661H10.9332L19.789 33.9244H24.1623L15.3064 18.8661H15.6672C17.9164 18.8604 20.0716 17.9774 21.66 16.4106C23.2484 14.8439 24.1404 12.7215 24.1404 10.5087ZM3.7938 3.7324H15.6453C16.8913 3.73524 18.0854 4.22344 18.9665 5.09019C19.8475 5.95695 20.3437 7.13171 20.3466 8.35748V10.5087C20.3437 11.7344 19.8475 12.9092 18.9665 13.7759C18.0854 14.6427 16.8913 15.1309 15.6453 15.1337H3.7938V3.7324Z" fill="var(--fill-0, #00FF00)"/>
<path id="polygon161" d="M60.2725 9.96005L70.1123 33.9136H74.2013L62.317 4.98002L60.2725 0L58.228 4.98002L46.3436 33.9136H50.4326L60.2725 9.96005Z" fill="var(--fill-0, #00FF00)"/>
<path id="path163" d="M220.223 0H222.639V0.473296H221.71V3.29136H221.163V0.473296H220.223V0Z" fill="var(--fill-0, #00FF00)"/>
<path id="path165" d="M223.568 0.0101318H224.498L225.219 2.58082L225.963 0.0101318H226.903V3.2907H226.367V0.590927H226.313L225.525 3.16167H224.968L224.126 0.590927V3.2907H223.59L223.568 0.0101318Z" fill="var(--fill-0, #00FF00)"/>
<path id="polygon167" d="M96.5293 0V3.73233H114.252L98.7269 30.1813L96.5293 33.9136H100.914H118.614L120.801 30.1813H103.1L118.625 3.73233L120.812 0H116.439H96.5293Z" fill="var(--fill-0, #00FF00)"/>
<path id="polygon169" d="M144.799 8.83032e-09V3.73233H166.742L168.928 8.83032e-09H144.799Z" fill="var(--fill-0, #00FF00)"/>
<path id="polygon171" d="M144.799 15.0897V18.8221H166.742L168.928 15.0897H144.799Z" fill="var(--fill-0, #00FF00)"/>
<path id="polygon173" d="M144.799 30.1794V33.9117H166.742L168.928 30.1794H144.799Z" fill="var(--fill-0, #00FF00)"/>
<path id="polygon179" d="M60.2725 9.96005L70.1123 33.9136H74.2013L62.317 4.98002L60.2725 0L58.228 4.98002L46.3436 33.9136H50.4326L60.2725 9.96005Z" fill="var(--fill-0, #00FF00)"/>
</g>
</svg>
