<svg preserveAspectRatio="none" width="100%" height="100%" overflow="visible" style="display: block;" viewBox="0 0 212 37" fill="none" xmlns="http://www.w3.org/2000/svg">
<g id="Group">
<path id="Vector" d="M96.6694 2.78438H90.6682V12.2982H96.6694V2.78438Z" fill="var(--fill-0, white)"/>
<path id="Vector_2" d="M90.6688 27.0724C90.6688 32.5965 94.1818 35.7526 99.5483 35.7526H103.5V30.6234H100.231C97.9866 30.6234 96.6693 29.3411 96.6693 26.8259V18.4558H90.6682L90.6688 27.0724Z" fill="var(--fill-0, white)"/>
<path id="Vector_3" d="M131.538 20.9577C132.173 17.2094 134.319 15.4335 137.686 15.4335H143.31V10.8959H137.686C129.635 10.8959 125.635 16.6665 125.635 23.2258C125.635 29.785 128.578 35.7528 138.174 35.7528H148.582V30.7222H138.174C134.395 30.7222 132.142 29.0721 131.551 26.1954H143.31V21.1519H131.531L131.538 20.9577Z" fill="var(--fill-0, white)"/>
<path id="Vector_4" d="M200.909 10.7593V15.8634H206.12V35.7548H212V10.7593H200.909Z" fill="var(--fill-0, white)"/>
<path id="Vector_5" d="M184.059 10.7593V35.7548H189.94V15.8633H195.21V10.7593H184.059Z" fill="var(--fill-0, white)"/>
<path id="Vector_6" d="M113.259 12.2933H107.258V35.748H113.259V22.7766H119.2V16.8923H113.259V12.2933Z" fill="var(--fill-0, white)"/>
<path id="Vector_7" d="M125.13 10.7593H119.19V16.8993H125.13V10.7593Z" fill="var(--fill-0, white)"/>
<path id="Vector_8" d="M200.921 15.8658H195.223V24.8688H200.921V15.8658Z" fill="var(--fill-0, white)"/>
<path id="Vector_9" d="M148.577 15.435H143.305V21.1541H148.577V15.435Z" fill="var(--fill-0, white)"/>
<path id="Vector_10" d="M164.151 30.7165C164.136 30.7165 164.122 30.7151 164.107 30.7145C161.585 30.6193 160.023 29.5886 159.061 28.2855C159.052 28.2734 159.042 28.2613 159.035 28.2492C158.986 28.1827 158.939 28.1155 158.893 28.0477C158.878 28.0241 158.861 27.9999 158.846 27.9755C158.801 27.9055 158.756 27.8355 158.714 27.7648C158.708 27.7569 158.705 27.7491 158.701 27.7412C157.694 26.0404 157.543 24.0594 157.543 23.0901C157.543 21.8656 157.76 19.0196 159.523 17.1637C159.54 17.1445 159.558 17.1258 159.576 17.1073C159.585 17.0979 159.594 17.088 159.604 17.0786C160.56 16.0851 161.853 15.55 163.447 15.4513C163.479 15.4492 163.511 15.4478 163.543 15.4464C163.599 15.4435 163.657 15.4399 163.715 15.4385C163.81 15.4356 163.906 15.4334 164.003 15.4334H167.833V10.8959H164.003C155.953 10.8959 151.952 16.6666 151.952 23.2257C151.952 29.785 156.441 35.7528 164.49 35.7528H167.833V30.7223H164.49C164.375 30.7223 164.262 30.7208 164.151 30.7165Z" fill="var(--fill-0, white)"/>
<path id="Vector_11" d="M72.9923 12.2776H65.4104V18.4817H72.9923V12.2776Z" fill="var(--fill-0, white)"/>
<path id="Vector_12" d="M80.8981 18.4821H72.9981V24.6863H80.8981V18.4821Z" fill="var(--fill-0, white)"/>
<path id="Vector_13" d="M103.497 12.2933H96.6663V18.4511H103.497V12.2933Z" fill="var(--fill-0, white)"/>
<path id="Vector_14" d="M173.166 15.4356H167.835V21.1539H173.166V25.0051H167.835V30.7243H173.166V35.7548H179.047V10.7593H173.166V15.4356Z" fill="var(--fill-0, white)"/>
<path id="Vector_15" d="M79.2519 29.7385C78.0394 30.8871 75.9837 31.4694 73.1414 31.4694C70.2991 31.4694 68.2433 30.8871 67.0307 29.7385C65.922 28.6876 65.3827 27.0353 65.3827 24.6865H59.9123C59.9123 28.5934 61.0486 31.6508 63.291 33.7739C65.5509 35.9141 68.8652 37 73.1421 37C77.4189 37 80.7332 35.9149 82.9931 33.7739C85.2347 31.6508 86.3712 28.5934 86.3712 24.6865H80.8979C80.8979 27.0353 80.3615 28.6883 79.2519 29.7385Z" fill="var(--fill-0, white)"/>
<path id="Vector_16" d="M82.6681 3.64682C80.2216 1.29514 76.838 0 73.1421 0C69.4461 0 66.0633 1.29514 63.616 3.64682C62.4402 4.77693 61.5208 6.10065 60.882 7.58222C60.2389 9.07524 59.9123 10.654 59.9123 12.2763H65.416C65.416 10.5375 66.0937 8.89594 67.3855 7.6551C68.3939 6.68571 70.2115 5.53058 73.1421 5.53058C76.0728 5.53058 77.8903 6.68571 78.8988 7.6551C80.1898 8.89594 80.9014 10.5375 80.9014 12.2763H86.3718C86.3718 10.6547 86.0453 9.07524 85.4023 7.58222C84.7641 6.10065 83.8441 4.77693 82.6681 3.64682Z" fill="var(--fill-0, white)"/>
<path id="Vector_17" d="M14.2622 36.9277C5.09728 36.9277 0 30.9349 0 18.4744C0 6.01377 5.02801 0.0209991 14.2622 0.0209991V5.55088C6.47035 5.55088 5.47041 12.5445 5.47041 18.4744C5.47041 25.8687 7.1311 31.3979 14.2622 31.3979V36.9277Z" fill="var(--fill-0, white)"/>
<path id="Vector_18" d="M23.8538 36.9277C33.0186 36.9277 38.116 30.9349 38.116 18.4744C38.116 6.50667 33.0879 0.0209961 23.8538 0.0209961V5.55087C31.6455 5.55087 32.6455 12.5445 32.6455 18.4744C32.6455 25.8687 30.9849 31.3979 23.8538 31.3979V36.9277Z" fill="var(--fill-0, white)"/>
<path id="Vector_19" d="M19.0556 23.6144C21.841 23.6144 24.0991 21.3317 24.0991 18.516C24.0991 15.7002 21.841 13.4176 19.0556 13.4176C16.27 13.4176 14.012 15.7002 14.012 18.516C14.012 21.3317 16.27 23.6144 19.0556 23.6144Z" fill="var(--fill-0, #FF6225)"/>
</g>
</svg>
