<svg width="159" height="79" viewBox="0 0 159 79" fill="none" xmlns="http://www.w3.org/2000/svg">
<g clip-path="url(#clip0_9772_2117)">
<path fill-rule="evenodd" clip-rule="evenodd" d="M4.96875 8.77278L19.875 0H49.6875L64.5938 8.77278V14.6213L49.6875 5.84852H19.875L4.96875 14.6213V8.77278ZM4.96875 14.6213L0 17.5456V58.4852L34.7812 78.955L69.5625 58.4852V17.5456L64.5938 14.6213V55.5609L34.7812 73.1065L4.96875 55.5609V14.6213ZM24.8438 20.4698L19.875 17.5456V35.0911L34.7812 43.8639L49.6875 35.0911V17.5456L44.7188 20.4698V32.1669L34.7812 38.0154L24.8438 32.1669V20.4698ZM44.7188 43.8639V49.7124L29.8125 58.4852V52.6367L44.7188 43.8639Z" fill="url(#paint0_linear_9772_2117)"/>
<path d="M155.332 49.1606H151.659L147.986 51.3192V55.6365L151.659 57.795H155.332L157.168 58.8744V61.033L155.332 62.1123H151.659L149.823 61.033L147.986 62.1123L151.659 64.2709H155.332L159.005 62.1123V57.795L155.332 55.6365H151.659L149.823 54.5571V52.3986L151.659 51.3192H155.332L157.168 52.3986L159.005 51.3192L155.332 49.1606Z" fill="white"/>
<path d="M136.96 49.1606L133.287 51.3192V55.6365L135.123 54.5571V52.3986L136.96 51.3192H140.633L142.469 52.3986L144.305 51.3192L140.633 49.1606H136.96Z" fill="white"/>
<path d="M140.633 55.6377H133.287V57.7963H140.633L142.469 58.8756V54.5583L140.633 55.6377Z" fill="white"/>
<path d="M135.123 58.8753L133.287 57.7959V62.1132L136.96 64.2717H140.633L144.305 62.1132L142.469 61.0338L140.633 62.1132H136.96L135.123 61.0338V58.8753Z" fill="white"/>
<path d="M122.27 49.1606L118.598 51.3192V64.2917L120.434 63.1917V52.3986L122.27 51.3192L123.189 51.8589V58.3347L124.107 58.8744L125.025 58.3347V51.8796L125.943 51.3192L127.769 52.3986L127.78 63.1917L129.616 64.2917V51.3192L125.943 49.1606L124.107 50.2398L122.27 49.1606Z" fill="white"/>
<path d="M125.965 62.1131L124.109 61.0337L122.252 62.1131L124.109 63.1924L125.965 62.1131Z" fill="white"/>
<path d="M107.583 49.1606L103.91 51.3192V55.6365L105.747 54.5571V52.3986L107.583 51.3192H111.256L113.092 52.3986V54.5571L114.929 55.6365V51.3192L111.256 49.1606H107.583Z" fill="white"/>
<path d="M114.929 55.6357H103.91V57.7943H114.929V55.6357Z" fill="white"/>
<path d="M105.747 58.8753L103.91 57.7959V64.2717L105.747 63.1926V58.8753Z" fill="white"/>
<path d="M113.092 58.8753L114.928 57.7959V64.2717L113.092 63.1926V58.8753Z" fill="white"/>
<path d="M96.5663 49.1606H92.8934L89.2207 51.3192V62.1123L92.8934 64.2709H96.5663L100.239 62.1123V57.795L96.5663 55.6365L92.8934 57.795L94.7299 58.8744L96.5663 57.795L98.4028 58.8744V61.033L96.5663 62.1123H92.8934L91.0572 61.033V52.3986L92.8934 51.3192H96.5663L98.4028 52.3986L100.239 51.3192L96.5663 49.1606Z" fill="white"/>
<path d="M155.332 29.7349H147.986V31.8934H155.332L157.168 32.9728V41.6074L155.332 42.6865H147.986V44.8453H155.332L159.005 42.6865V31.8934L155.332 29.7349Z" fill="white"/>
<path d="M149.823 32.969L147.986 31.8896V42.6828L149.823 41.6036V32.969Z" fill="white"/>
<path d="M135.123 30.8142L133.287 29.7349V42.6865L136.96 44.8453H144.305V42.6865H136.96L135.123 41.6074V30.8142Z" fill="white"/>
<path d="M120.441 32.9728V30.8142L122.278 29.7349H125.951L127.787 30.8142V32.9728L125.951 31.8934H122.278L120.441 32.9728Z" fill="white"/>
<path d="M124.111 32.9681L123.193 32.4285V42.1424L124.111 41.6027L125.03 42.1424V32.4285L124.111 32.9681Z" fill="white"/>
<path d="M120.441 43.7665V41.6079L122.278 42.6871H125.951L127.787 41.6079V43.7665L125.951 44.8458H122.278L120.441 43.7665Z" fill="white"/>
<path d="M105.747 30.8142L103.91 29.7349V42.6865L107.583 44.8453H111.256L114.929 42.6865V29.7349L113.092 30.8142V41.6074L111.256 42.6865H107.583L105.747 41.6074V30.8142Z" fill="white"/>
<path d="M96.5663 29.7349H92.8934L89.2207 31.8934V42.6865L92.8934 44.8453H96.5663L100.239 42.6865V38.3694L96.5663 36.2107L92.8934 38.3694L94.7299 39.4486L96.5663 38.3694L98.4028 39.4486V41.6074L96.5663 42.6865H92.8934L91.0572 41.6074V32.9728L92.8934 31.8934H96.5663L98.4028 32.9728L100.239 31.8934L96.5663 29.7349Z" fill="white"/>
<path d="M155.332 10.304H147.986V12.4626H155.332L157.168 13.5419V22.1763L155.332 23.2557H147.986V25.4143H155.332L159.005 23.2557V12.4626L155.332 10.304Z" fill="white"/>
<path d="M149.823 13.5434L147.986 12.4641V23.2572L149.823 22.1779V13.5434Z" fill="white"/>
<path d="M135.123 11.3833L133.287 10.304V23.2557L136.96 25.4143H144.305V23.2557H136.96L135.123 22.1763V11.3833Z" fill="white"/>
<path d="M122.27 10.304L118.598 12.4626V16.7798L120.434 15.7005V13.5419L122.27 12.4626H125.943L127.78 13.5419L129.616 12.4626L125.943 10.304H122.27Z" fill="white"/>
<path d="M125.943 16.781H118.598V18.9396H125.943L127.78 20.0189V15.7017L125.943 16.781Z" fill="white"/>
<path d="M120.434 20.0186L118.598 18.9392V23.2565L122.27 25.415H125.943L129.616 23.2565L127.78 22.1771L125.943 23.2565H122.27L120.434 22.1771V20.0186Z" fill="white"/>
<path d="M105.742 13.5419V11.3833L107.578 10.304H111.251L113.088 11.3833V13.5419L111.251 12.4626H107.578L105.742 13.5419Z" fill="white"/>
<path d="M109.412 13.5426L108.494 13.0029V22.7167L109.412 22.177L110.33 22.7167V13.0029L109.412 13.5426Z" fill="white"/>
<path d="M105.742 24.3355V22.1768L107.578 23.2561H111.251L113.088 22.1768V24.3355L111.251 25.4147H107.578L105.742 24.3355Z" fill="white"/>
<path d="M92.8848 23.2548L98.3941 20.0168V22.1754L92.8848 25.4133V23.2548Z" fill="white"/>
<path d="M89.2207 16.7798V10.304L91.0572 11.3833V15.7005L94.7299 17.8591L98.4028 15.7005V11.3833L100.239 10.304V16.7798L94.7299 20.0178L89.2207 16.7798Z" fill="white"/>
</g>
<defs>
<linearGradient id="paint0_linear_9772_2117" x1="1.06276" y1="14.1132" x2="28.681" y2="82.463" gradientUnits="userSpaceOnUse">
<stop stop-color="#FAFF00"/>
<stop offset="0.479167" stop-color="#FF92E5"/>
<stop offset="1" stop-color="#5CF5FF"/>
</linearGradient>
<clipPath id="clip0_9772_2117">
<rect width="159" height="79" fill="white"/>
</clipPath>
</defs>
</svg>
