<svg preserveAspectRatio="none" width="100%" height="100%" overflow="visible" style="display: block;" viewBox="0 0 168 75" fill="none" xmlns="http://www.w3.org/2000/svg">
<g id="zephyrus capital" clip-path="url(#clip0_9804_33722)">
<path id="Vector" fill-rule="evenodd" clip-rule="evenodd" d="M57.0475 2.03397C56.9624 2.47888 56.9594 3.10295 57.0409 3.421L57.189 3.99925L70.358 4.0592C83.4259 4.11846 83.5275 4.12263 83.5962 4.59276C83.6406 4.89739 81.6128 8.09855 77.9253 13.5448C57.5213 43.6807 56.5284 45.1972 56.8578 45.7192C56.922 45.8212 57.2923 46.0655 57.6805 46.2622C58.3695 46.6113 58.4035 46.6016 59.1202 45.8555C59.5238 45.4351 61.7158 42.3307 63.9913 38.9569C88.2466 2.99369 88.6072 2.44878 88.6072 1.77193V1.2254H72.9047H57.2025L57.0475 2.03397ZM102.784 1.47725C100.391 1.73374 97.2761 2.46151 95.404 3.2011C91.2878 4.82725 86.5597 8.70249 84.1177 12.4513C82.7834 14.4997 80.4264 18.058 71.4676 31.5495C68.6352 35.8145 65.3256 40.8009 64.1125 42.6303C62.8994 44.4594 61.9067 46.046 61.9067 46.156C61.9067 46.6296 63.8563 46.7115 75.119 46.7115H87.0318L87.2525 46.0631C87.4028 45.6212 87.3813 45.1974 87.1845 44.7321L86.8957 44.0495H76.9929C68.5336 44.0495 67.071 44.0002 66.9581 43.7117C66.8841 43.5236 67.394 42.5249 68.1102 41.4548C68.8165 40.3992 70.7762 37.4523 72.465 34.906C80.3407 23.0305 79.9101 23.6236 80.3392 24.058C80.4475 24.168 80.6996 25.4201 80.8992 26.8407C81.3824 30.2773 82.2647 32.7902 83.8637 35.2835C86.7386 39.7664 90.9533 43.2374 95.5046 44.8705C99.7058 46.3782 99.8565 46.4057 104.557 46.5289C110.706 46.69 111.525 46.4488 110.838 44.678L110.621 44.1192L105.69 43.9949C100.836 43.8726 100.722 43.858 98.2871 43.058C95.2459 42.0587 92.6406 40.702 90.9046 39.2136C85.7979 34.8358 83.4067 30.0705 83.4105 24.2786C83.4143 18.5476 85.5487 13.8523 90.0289 9.72077C94.5328 5.56707 100.256 3.70225 107.302 4.0923C109.933 4.2379 110.126 4.21869 110.59 3.76383C110.901 3.4592 111.056 3.05411 111.01 2.66707C110.95 2.1673 110.752 2.00133 109.945 1.77355C108.512 1.36892 105.107 1.22795 102.784 1.47725ZM101.636 64.4411C100.665 64.6247 99.2571 65.465 98.5848 66.2622C97.0313 68.105 96.7709 70.8527 97.9495 72.9668C99.2082 75.2245 101.581 76.2916 104.144 75.753C105.321 75.5057 107.274 74.3636 107.274 73.9229C107.274 73.4553 106.741 73.4222 106.252 73.8592C105.203 74.7986 104.205 75.1222 102.657 75.0256C100.707 74.9039 99.5212 74.1486 98.6784 72.4918C97.0769 69.3432 98.8958 65.5356 102.175 65.1736C103.614 65.0148 104.699 65.249 105.745 65.9439C106.79 66.6388 107.601 66.5465 106.92 65.8097C105.904 64.7092 103.504 64.0879 101.636 64.4411ZM0.516801 64.8249C0.587687 65.1863 0.985831 65.237 4.19673 65.2939C6.17682 65.3291 7.79704 65.403 7.79704 65.4583C7.79704 65.5134 6.09601 67.7242 4.01692 70.3712C1.93807 73.018 0.236801 75.3141 0.236328 75.4731C0.236092 75.6944 1.29442 75.7624 4.74256 75.7624C8.90759 75.7624 9.24335 75.7317 9.1701 75.3574C9.09898 74.9953 8.6954 74.9455 5.37202 74.8886C3.32696 74.8534 1.65358 74.7796 1.65358 74.7243C1.65358 74.6689 3.35461 72.458 5.4337 69.8111C7.51255 67.1643 9.21381 64.8685 9.21429 64.7092C9.21452 64.4881 8.17982 64.4199 4.8262 64.4199C0.773645 64.4199 0.443552 64.4509 0.516801 64.8249ZM12.0502 70.0911V75.7624H16.2025C20.0298 75.7624 20.3486 75.7307 20.2756 75.3574C20.2047 74.996 19.8066 74.9453 16.5957 74.8884L12.9953 74.8245V72.6314V70.4384H16.1852C18.8631 70.4384 19.3751 70.3826 19.3751 70.0911C19.3751 69.7997 18.8631 69.7439 16.1852 69.7439H12.9953V67.5449V65.3458H16.5397C19.9264 65.3458 20.084 65.3252 20.084 64.8828C20.084 64.4379 19.9264 64.4199 16.0671 64.4199H12.0502V70.0911ZM23.0366 64.6858C22.9671 64.8634 22.9388 67.4009 22.974 70.3247C23.0319 75.1747 23.0737 75.6474 23.451 75.7185C23.8199 75.7879 23.8645 75.5731 23.8645 73.727V71.6576L26.2002 71.5474C29.7356 71.3807 31.146 70.4655 31.3617 68.1986C31.4876 66.8731 30.8591 65.7717 29.5491 65.0222C28.4934 64.418 23.2476 64.1472 23.0366 64.6858ZM34.0249 70.0911C34.0249 74.978 34.0738 75.7624 34.3793 75.7624C34.6737 75.7624 34.7337 75.3124 34.7337 73.1004V70.4384H38.3962H42.0586V73.1004C42.0586 75.608 42.086 75.7624 42.5312 75.7624C42.991 75.7624 43.0038 75.608 43.0038 70.0911C43.0038 64.5742 42.991 64.4199 42.5312 64.4199C42.086 64.4199 42.0586 64.5742 42.0586 67.0819V69.7439H38.3962H34.7337V67.0819C34.7337 64.8699 34.6737 64.4199 34.3793 64.4199C34.0738 64.4199 34.0249 65.2043 34.0249 70.0911ZM45.3667 64.5967C45.3667 64.6939 46.4299 66.2289 47.7295 68.0078L50.0924 71.2423V73.5194C50.0924 75.5631 50.1347 75.7884 50.5059 75.7189C50.8608 75.6523 50.9291 75.3173 50.9874 73.3557L51.0555 71.0698L53.0186 68.3814C54.0982 66.9027 55.1697 65.4064 55.3996 65.0564C55.8056 64.4384 55.8039 64.4199 55.3493 64.4199C55.0171 64.4199 54.2839 65.2597 52.8277 67.308C51.6982 68.8965 50.6966 70.243 50.6021 70.3002C50.5075 70.3574 49.4835 69.0578 48.3264 67.412C46.9375 65.4365 46.0772 64.4199 45.7946 64.4199C45.5592 64.4199 45.3667 64.4995 45.3667 64.5967ZM58.1261 70.0911C58.1261 74.978 58.1751 75.7624 58.4806 75.7624C58.7719 75.7624 58.835 75.3509 58.835 73.4476V71.1328H60.7874H62.7399L64.3533 73.2053C66.2008 75.5786 66.4642 75.8298 66.9954 75.7238C67.2853 75.6657 66.9371 75.0918 65.589 73.4078C64.6035 72.1763 63.797 71.1226 63.797 71.0664C63.797 71.0104 64.2845 70.7819 64.8804 70.559C66.2469 70.0476 66.8666 69.1187 66.8678 67.5796C66.8685 66.6178 66.7572 66.3476 66.0897 65.6937C65.0579 64.6828 63.9735 64.4226 60.7844 64.4212L58.1261 64.4199V70.0911ZM69.7441 68.6238C69.8318 73.3786 69.9582 73.8335 71.5168 74.9981C72.2627 75.5555 72.6363 75.656 74.1752 75.7131C76.401 75.7958 77.5447 75.2492 78.4461 73.6722C79.0042 72.6958 79.0423 72.4053 79.1195 68.5286C79.2003 64.4851 79.1937 64.4199 78.706 64.4199C78.2221 64.4199 78.2105 64.5127 78.2101 68.4129C78.2098 72.9099 78.0274 73.5958 76.5806 74.5425C75.5256 75.233 73.469 75.2687 72.3752 74.6152C70.9 73.734 70.7798 73.3226 70.6494 68.7161C70.5416 64.905 70.4934 64.534 70.0986 64.4599C69.6898 64.3833 69.6704 64.6122 69.7441 68.6238ZM83.6598 64.8428C82.8604 65.2627 81.9911 66.4999 81.9911 67.2173C81.9911 68.0585 82.5495 69.0636 83.2524 69.4874C83.6633 69.7354 84.9563 70.2013 86.1257 70.5231C87.5051 70.903 88.3971 71.2842 88.6658 71.6092C89.1275 72.1678 89.2069 73.2453 88.8364 73.9233C88.0852 75.2986 85.2349 75.4423 83.2066 74.2069C82.5582 73.812 81.9663 73.5493 81.8912 73.6226C81.536 73.9705 81.8496 74.4085 82.8772 75.0004C83.8679 75.571 84.2351 75.6467 86.008 75.6467C88.4158 75.6467 89.364 75.1587 89.8136 73.6884C90.4225 71.6976 89.3796 70.5115 86.3251 69.721C83.9367 69.103 82.9363 68.4157 82.9363 67.3932C82.9363 66.4597 83.289 65.8814 84.113 65.4638C85.1491 64.9391 86.6982 65.0275 88.0292 65.6877C89.1393 66.2384 89.8165 66.183 89.4316 65.5733C88.7626 64.5127 85.1567 64.0562 83.6598 64.8428ZM113.253 66.2138C112.79 67.2004 111.627 69.6617 110.669 71.6833C109.711 73.7048 108.928 75.4495 108.928 75.5606C108.928 75.6717 109.093 75.7624 109.296 75.7624C109.524 75.7624 109.941 75.1481 110.394 74.1421L111.125 72.5217H114.481H117.837L118.599 74.1421C119.164 75.3416 119.482 75.7624 119.824 75.7624C120.184 75.7624 120.241 75.6729 120.084 75.3574C119.972 75.1347 118.772 72.584 117.417 69.6893C115.529 65.6574 114.853 64.4254 114.524 64.4231C114.218 64.4208 113.854 64.9333 113.253 66.2138ZM122.632 70.0631C122.632 75.608 122.645 75.7624 123.105 75.7624C123.542 75.7624 123.578 75.608 123.578 73.7101V71.6576L125.881 71.5474C129.553 71.3715 130.982 70.3736 131.008 67.9675C131.023 66.5932 130.511 65.7398 129.235 65.0076C128.597 64.6418 127.877 64.5351 125.538 64.4587L122.632 64.3641V70.0631ZM133.738 70.0911C133.738 75.4002 133.767 75.7909 134.151 75.7185C134.532 75.6467 134.565 75.1921 134.565 70.0911C134.565 64.9902 134.532 64.5356 134.151 64.4638C133.767 64.3914 133.738 64.7821 133.738 70.0911ZM137.282 64.8828C137.282 65.3094 137.44 65.3458 139.291 65.3458H141.299V70.5541C141.299 75.0293 141.349 75.7624 141.654 75.7624C141.958 75.7624 142.008 75.0293 142.008 70.5541V65.3458H144.016C145.867 65.3458 146.025 65.3094 146.025 64.8828C146.025 64.4365 145.867 64.4199 141.654 64.4199C137.44 64.4199 137.282 64.4365 137.282 64.8828ZM148.998 69.909C147.579 72.9374 146.376 75.4932 146.326 75.5888C146.275 75.6844 146.436 75.7624 146.685 75.7624C147.016 75.7624 147.33 75.3328 147.866 74.1421L148.597 72.5217L151.978 72.5229L155.358 72.524L156.107 74.1432C156.575 75.1553 156.996 75.7624 157.23 75.7624C157.435 75.7624 157.603 75.6793 157.603 75.578C157.603 75.4766 156.45 72.9504 155.04 69.9645C153.124 65.9055 152.364 64.5189 152.028 64.4692C151.653 64.4138 151.147 65.3215 148.998 69.909ZM160.202 70.0911V75.7624H164C167.49 75.7624 167.791 75.7296 167.719 75.3574C167.648 74.9979 167.261 74.9451 164.275 74.8881L160.911 74.8238V69.6219C160.911 65.1523 160.861 64.4199 160.557 64.4199C160.251 64.4199 160.202 65.2043 160.202 70.0911ZM23.8645 67.9874V70.6699H25.9987C29.293 70.6699 30.4806 69.9518 30.4806 67.9599C30.4806 67.1974 30.3242 66.8018 29.7916 66.2175L29.1026 65.4615L26.4836 65.3833L23.8645 65.3048V67.9874ZM58.835 67.7574V70.2069H61.446C64.4017 70.2069 65.211 69.9442 65.8225 68.7861C66.3114 67.8597 66.1067 66.7527 65.3109 66.0194C64.7497 65.5023 64.4915 65.456 61.7702 65.3847L58.835 65.308V67.7574ZM123.578 68.0078V70.6699H125.712C128.217 70.6699 129.294 70.3138 129.824 69.3106C130.296 68.415 130.297 67.2136 129.825 66.5534C129.157 65.6196 128.252 65.3458 125.834 65.3458H123.578V68.0078ZM114.157 66.0604C114.035 66.3675 113.393 67.7495 112.731 69.1314C112.069 70.5131 111.527 71.6851 111.527 71.7356C111.527 71.7861 112.856 71.8273 114.481 71.8273C116.105 71.8273 117.434 71.7835 117.434 71.7298C117.434 71.5111 114.787 65.9085 114.592 65.7131C114.465 65.587 114.29 65.727 114.157 66.0604ZM150.681 68.1365C148.703 72.2467 148.551 71.8273 152.023 71.8273H154.98L153.846 69.3323C153.222 67.9604 152.544 66.5279 152.339 66.1495L151.967 65.4615L150.681 68.1365Z" fill="var(--fill-0, white)"/>
</g>
<defs>
<clipPath id="clip0_9804_33722">
<rect width="168" height="75" fill="white"/>
</clipPath>
</defs>
</svg>
